<svg width="30" height="31" viewBox="0 0 30 31" fill="none" xmlns="http://www.w3.org/2000/svg">
<path d="M3.75 9.25C3.75 8.58696 4.01339 7.95107 4.48223 7.48223C4.95107 7.01339 5.58696 6.75 6.25 6.75H23.75C24.413 6.75 25.0489 7.01339 25.5178 7.48223C25.9866 7.95107 26.25 8.58696 26.25 9.25V21.75C26.25 22.413 25.9866 23.0489 25.5178 23.5178C25.0489 23.9866 24.413 24.25 23.75 24.25H6.25C5.58696 24.25 4.95107 23.9866 4.48223 23.5178C4.01339 23.0489 3.75 22.413 3.75 21.75V9.25Z" stroke="#FF7D00" stroke-width="2" stroke-linecap="round" stroke-linejoin="round"/>
<path d="M3.75 9.25L15 16.75L26.25 9.25" stroke="#FF7D00" stroke-width="2" stroke-linecap="round" stroke-linejoin="round"/>
</svg>
