<svg width="198" height="34" viewBox="0 0 198 34" fill="none" xmlns="http://www.w3.org/2000/svg">
<g clip-path="url(#clip0_1_14)">
<path d="M91.2094 8.49008L87.9411 12.4645H100.356V25.8052H110.682V12.4645H119.881L123.149 8.49008H91.2094ZM177.043 21.3499C174.666 21.3499 172.739 19.4347 172.739 17.0715C172.739 14.709 174.666 12.7937 177.043 12.7937H194.725L197.994 8.4397H171.643C169.79 8.4397 167.969 9.01636 166.505 10.1464C166.307 10.2992 166.124 10.4552 165.967 10.6106C165.128 11.4443 164.467 12.4218 163.981 13.5445C163.496 14.6671 163.254 15.8594 163.254 17.1229C163.254 18.3859 163.496 19.5786 163.981 20.7008C164.467 21.8239 165.128 22.8016 165.967 23.6346C166.039 23.7059 166.113 23.776 166.187 23.8444C167.529 25.0692 169.31 25.7046 171.132 25.7046H194.725L197.994 21.3499H177.043ZM76.1239 17.1476C76.1239 20.2417 73.6008 22.75 70.487 22.75H65.1493C62.0362 22.75 59.5124 20.2417 59.5124 17.1476C59.5124 14.0535 62.0362 11.5451 65.1493 11.5451H70.487C73.6008 11.5451 76.1239 14.0535 76.1239 17.1476ZM86.0175 13.8406C85.5321 12.7911 84.8704 11.8692 84.0322 11.0754C83.194 10.2816 82.2098 9.65283 81.0808 9.18739C79.9512 8.72246 78.7511 8.49025 77.4804 8.49025H58.1559C56.8853 8.49025 55.6851 8.72246 54.5555 9.18739C53.4266 9.65283 52.4424 10.2816 51.6041 11.0754C50.7659 11.8692 50.1042 12.7911 49.6188 13.8406C49.1334 14.8913 48.8906 15.9929 48.8906 17.1476C48.8906 18.3023 49.1334 19.4044 49.6188 20.4545C50.1042 21.5047 50.7659 22.426 51.6041 23.2198C52.4424 24.0135 53.4266 24.6423 54.5555 25.1078C55.6851 25.5727 56.8853 25.8049 58.1559 25.8049H77.4804C78.7511 25.8049 79.9512 25.5727 81.0808 25.1078C82.2098 24.6423 83.194 24.0135 84.0322 23.2198C84.8704 22.426 85.5321 21.5047 86.0175 20.4545C86.5024 19.4044 86.7457 18.3023 86.7457 17.1476C86.7457 15.9929 86.5024 14.8913 86.0175 13.8406ZM134.419 25.7552L150.604 14.5328V25.7552H160.448V8.49025H150.617L134.346 19.7622V8.49025H124.502V25.7552H134.419Z" fill="white"/>
<path d="M17.0967 0.122192C7.90067 0.122192 0.403078 7.3352 0.0113268 16.3788C0.399975 8.74986 6.74749 2.68316 14.5201 2.68316C22.5439 2.68316 29.0477 9.14762 29.0477 17.1224C29.0477 25.0966 22.5439 31.5611 14.5201 31.5611C6.74749 31.5611 0.399975 25.4944 0.0113268 17.8654C0.403078 26.909 7.90067 34.122 17.0967 34.122C26.5433 34.122 34.201 26.5106 34.201 17.1224C34.201 7.73363 26.5433 0.122192 17.0967 0.122192ZM12.9029 4.29062C5.81018 4.29062 0.0544332 9.97482 -0.00626067 17.0105C0.0539159 13.4057 3.01205 10.5016 6.65334 10.5016C10.3317 10.5016 13.314 13.4658 13.314 17.1222C13.314 20.7779 10.3317 23.7421 6.65334 23.7421C3.01205 23.7421 0.0539159 20.838 -0.00626067 17.2339C0.0540884 21.9667 3.93246 25.7855 8.70883 25.7855C13.5233 25.7855 17.4255 21.9065 17.4255 17.1222C17.4255 12.3377 13.5233 8.45888 8.70883 8.45888C3.93246 8.45888 0.0540884 12.2775 -0.00626067 17.0105C0.0533987 14.6699 1.98129 12.7904 4.35077 12.7904C6.75766 12.7904 8.709 14.73 8.709 17.1222C8.709 19.5144 6.75766 21.4538 4.35077 21.4538C1.98129 21.4538 0.0533987 19.5745 -0.00626067 17.2339L-0.00764007 17.1222L-0.00626067 17.0105C0.0542608 11.4046 4.64424 6.87884 10.2989 6.87884C15.9912 6.87884 20.6055 11.4649 20.6055 17.1224C20.6055 22.7793 15.9912 27.3655 10.2989 27.3655C4.60665 27.3655 -0.0078125 22.7793 -0.0078125 17.1224C-0.0078125 24.2084 5.77259 29.9536 12.9029 29.9536C20.0332 29.9536 25.8136 24.2084 25.8136 17.1224C25.8136 10.0351 20.0332 4.29062 12.9029 4.29062Z" fill="#FF7D00"/>
</g>
<defs>
<clipPath id="clip0_1_14">
<rect width="198" height="34" fill="white"/>
</clipPath>
</defs>
</svg>
