<svg width="20" height="20" viewBox="0 0 20 20" fill="none" xmlns="http://www.w3.org/2000/svg">
<path fill-rule="evenodd" clip-rule="evenodd" d="M6.875 10C6.875 9.1712 7.20424 8.37634 7.79029 7.79029C8.37634 7.20424 9.1712 6.875 10 6.875C10.8288 6.875 11.6237 7.20424 12.2097 7.79029C12.7958 8.37634 13.125 9.1712 13.125 10C13.125 10.8288 12.7958 11.6237 12.2097 12.2097C11.6237 12.7958 10.8288 13.125 10 13.125C9.1712 13.125 8.37634 12.7958 7.79029 12.2097C7.20424 11.6237 6.875 10.8288 6.875 10ZM10 8.125C9.50272 8.125 9.02581 8.32254 8.67417 8.67417C8.32254 9.02581 8.125 9.50272 8.125 10C8.125 10.4973 8.32254 10.9742 8.67417 11.3258C9.02581 11.6775 9.50272 11.875 10 11.875C10.4973 11.875 10.9742 11.6775 11.3258 11.3258C11.6775 10.9742 11.875 10.4973 11.875 10C11.875 9.50272 11.6775 9.02581 11.3258 8.67417C10.9742 8.32254 10.4973 8.125 10 8.125Z" fill="#A7A7A7"/>
<path fill-rule="evenodd" clip-rule="evenodd" d="M3.6025 8.87167C3.25333 9.375 3.125 9.76917 3.125 10C3.125 10.2308 3.25333 10.625 3.6025 11.1283C3.94083 11.6142 4.4425 12.1417 5.0775 12.6292C6.35 13.6058 8.09417 14.375 10 14.375C11.9058 14.375 13.65 13.6058 14.9225 12.6292C15.5575 12.1417 16.0592 11.6142 16.3975 11.1283C16.7467 10.625 16.875 10.2308 16.875 10C16.875 9.76917 16.7467 9.375 16.3975 8.87167C16.0592 8.38583 15.5575 7.85833 14.9225 7.37083C13.65 6.39417 11.9058 5.625 10 5.625C8.09417 5.625 6.35 6.39417 5.0775 7.37083C4.4425 7.85833 3.94083 8.38583 3.6025 8.87167ZM4.31583 6.37917C5.75833 5.2725 7.76333 4.375 10 4.375C12.2367 4.375 14.2417 5.2725 15.6833 6.37917C16.4058 6.93333 17.0025 7.55167 17.4242 8.15917C17.8342 8.75 18.125 9.3975 18.125 10C18.125 10.6025 17.8333 11.25 17.4242 11.8408C17.0025 12.4483 16.4058 13.0658 15.6842 13.6208C14.2425 14.7275 12.2367 15.625 10 15.625C7.76333 15.625 5.75833 14.7275 4.31667 13.6208C3.59417 13.0667 2.9975 12.4483 2.57583 11.8408C2.16667 11.25 1.875 10.6025 1.875 10C1.875 9.3975 2.16667 8.75 2.57583 8.15917C2.9975 7.55167 3.59417 6.93417 4.31583 6.37917Z" fill="#A7A7A7"/>
</svg>
