<svg width="30" height="30" viewBox="0 0 30 30" fill="none" xmlns="http://www.w3.org/2000/svg">
<path d="M24.0358 19.075L20.8608 18.7125C20.4875 18.6686 20.1091 18.7099 19.754 18.8333C19.399 18.9567 19.0765 19.159 18.8108 19.425L16.5108 21.725C12.9626 19.9199 10.0784 17.0357 8.27334 13.4875L10.5858 11.175C11.1233 10.6375 11.3858 9.88745 11.2983 9.12495L10.9358 5.97495C10.8652 5.36507 10.5727 4.80248 10.1139 4.39445C9.65517 3.98641 9.0623 3.76145 8.44834 3.76245H6.28584C4.87334 3.76245 3.69834 4.93745 3.78584 6.34995C4.44834 17.025 12.9858 25.55 23.6483 26.2125C25.0608 26.3 26.2358 25.125 26.2358 23.7125V21.55C26.2483 20.2875 25.2983 19.225 24.0358 19.075Z" fill="#FF7D00"/>
</svg>
