<svg width="24" height="24" viewBox="0 0 24 24" fill="none" xmlns="http://www.w3.org/2000/svg">
<path fill-rule="evenodd" clip-rule="evenodd" d="M5.78734 14.02C5.83059 14.0333 5.87469 14.0437 5.91934 14.051C6.20226 14.7176 6.48359 15.385 6.76334 16.053C7.26634 17.255 7.77334 18.493 7.88434 18.849C8.02334 19.287 8.16934 19.585 8.32934 19.789C8.41234 19.893 8.50734 19.985 8.61934 20.055C8.67815 20.0906 8.74048 20.1201 8.80534 20.143C9.12534 20.263 9.41734 20.213 9.60034 20.152C9.70778 20.1155 9.80999 20.065 9.90434 20.002L9.90934 20L12.7353 18.238L16.0003 20.74C16.0483 20.7767 16.1003 20.8077 16.1563 20.833C16.5483 21.003 16.9283 21.063 17.2863 21.015C17.6423 20.965 17.9253 20.816 18.1363 20.647C18.3784 20.4515 18.5715 20.2022 18.7003 19.919L18.7093 19.897L18.7123 19.889L18.7143 19.885V19.883L18.7153 19.882C18.7317 19.8386 18.7451 19.7942 18.7553 19.749L21.7353 4.72399C21.7436 4.67573 21.7483 4.62693 21.7493 4.57799C21.7493 4.13799 21.5833 3.71899 21.1943 3.46599C20.8603 3.24899 20.4893 3.23899 20.2543 3.25699C20.0023 3.27699 19.7683 3.33899 19.6113 3.38899C19.5236 3.41731 19.4369 3.44867 19.3513 3.48299L19.3403 3.48799L2.62634 10.044L2.62434 10.045C2.56766 10.0655 2.51194 10.0885 2.45734 10.114C2.32475 10.1735 2.1976 10.2444 2.07734 10.326C1.85034 10.481 1.32734 10.907 1.41634 11.611C1.48634 12.171 1.87034 12.516 2.10534 12.682C2.23334 12.773 2.35534 12.838 2.44534 12.881C2.48534 12.901 2.57134 12.935 2.60834 12.951L2.61834 12.954L5.78734 14.02ZM19.9253 4.86799H19.9233L19.8973 4.87899L3.16334 11.444L3.13734 11.454L3.12734 11.457C3.0967 11.4688 3.06666 11.4822 3.03734 11.497C3.0653 11.5127 3.094 11.527 3.12334 11.54L6.26534 12.598C6.32081 12.6185 6.37436 12.644 6.42534 12.674L16.8023 6.59899L16.8123 6.59399C16.8529 6.56986 16.8942 6.54718 16.9363 6.52599C17.0083 6.48899 17.1233 6.43499 17.2533 6.39499C17.3433 6.36699 17.6103 6.28799 17.8983 6.38099C18.0513 6.42872 18.1877 6.51873 18.2918 6.64064C18.3958 6.76255 18.4633 6.91139 18.4863 7.06999C18.5236 7.20874 18.5246 7.35472 18.4893 7.49399C18.4193 7.76899 18.2273 7.98299 18.0523 8.14699C17.9023 8.28699 15.9563 10.163 14.0373 12.015L11.4243 14.535L10.9593 14.985L16.8313 19.487C16.9106 19.5201 16.9967 19.5338 17.0823 19.527C17.1255 19.5211 17.166 19.503 17.1993 19.475C17.2398 19.4407 17.2746 19.4002 17.3023 19.355L17.3043 19.354L20.1943 4.78099C20.1034 4.80337 20.0142 4.83211 19.9273 4.86699L19.9253 4.86799ZM11.4643 17.262L10.2923 16.364L10.0083 18.169L11.4643 17.262ZM9.21734 14.582L10.3823 13.457L12.9953 10.935L13.9683 9.99699L7.44834 13.814L7.48334 13.896C7.89455 14.8674 8.30122 15.8408 8.70334 16.816L8.98634 15.016C9.01217 14.8491 9.09356 14.6968 9.21734 14.582Z" fill="white"/>
</svg>
