<svg width="24" height="24" viewBox="0 0 24 24" fill="none" xmlns="http://www.w3.org/2000/svg">
<path d="M19.0469 4.91005C18.1299 3.98416 17.0379 3.25002 15.8344 2.75042C14.6309 2.25081 13.34 1.99574 12.0369 2.00005C6.57687 2.00005 2.12688 6.45005 2.12688 11.9101C2.12688 13.6601 2.58688 15.3601 3.44688 16.8601L2.04688 22.0001L7.29688 20.6201C8.74687 21.4101 10.3769 21.8301 12.0369 21.8301C17.4969 21.8301 21.9469 17.3801 21.9469 11.9201C21.9469 9.27005 20.9169 6.78005 19.0469 4.91005ZM12.0369 20.1501C10.5569 20.1501 9.10687 19.7501 7.83687 19.0001L7.53687 18.8201L4.41688 19.6401L5.24688 16.6001L5.04688 16.2901C4.22442 14.9771 3.7878 13.4593 3.78688 11.9101C3.78688 7.37005 7.48687 3.67005 12.0269 3.67005C14.2269 3.67005 16.2969 4.53005 17.8469 6.09005C18.6145 6.85392 19.2228 7.7626 19.6365 8.76338C20.0502 9.76417 20.2611 10.8371 20.2569 11.9201C20.2769 16.4601 16.5769 20.1501 12.0369 20.1501ZM16.5569 13.9901C16.3069 13.8701 15.0869 13.2701 14.8669 13.1801C14.6369 13.1001 14.4769 13.0601 14.3069 13.3001C14.1369 13.5501 13.6669 14.1101 13.5269 14.2701C13.3869 14.4401 13.2369 14.4601 12.9869 14.3301C12.7369 14.2101 11.9369 13.9401 10.9969 13.1001C10.2569 12.4401 9.76687 11.6301 9.61687 11.3801C9.47687 11.1301 9.59687 11.0001 9.72687 10.8701C9.83687 10.7601 9.97688 10.5801 10.0969 10.4401C10.2169 10.3001 10.2669 10.1901 10.3469 10.0301C10.4269 9.86005 10.3869 9.72005 10.3269 9.60005C10.2669 9.48005 9.76687 8.26005 9.56687 7.76005C9.36687 7.28005 9.15688 7.34005 9.00688 7.33005H8.52687C8.35687 7.33005 8.09687 7.39005 7.86687 7.64005C7.64687 7.89005 7.00688 8.49005 7.00688 9.71005C7.00688 10.9301 7.89688 12.1101 8.01688 12.2701C8.13688 12.4401 9.76687 14.9401 12.2469 16.0101C12.8369 16.2701 13.2969 16.4201 13.6569 16.5301C14.2469 16.7201 14.7869 16.6901 15.2169 16.6301C15.6969 16.5601 16.6869 16.0301 16.8869 15.4501C17.0969 14.8701 17.0969 14.3801 17.0269 14.2701C16.9569 14.1601 16.8069 14.1101 16.5569 13.9901Z" fill="white"/>
</svg>
