<svg width="48" height="48" viewBox="0 0 48 48" fill="none" xmlns="http://www.w3.org/2000/svg">
<path fill-rule="evenodd" clip-rule="evenodd" d="M8.72656 9.86233C8.72656 6.61362 11.3602 3.97998 14.6089 3.97998H40.0992V33.3917H14.6089C13.526 33.3917 12.6482 34.2696 12.6482 35.3525V37.3133C12.6482 38.3963 13.526 39.2741 14.6089 39.2741H38.1383V35.3525H40.0992V43.1957H14.6089C11.3602 43.1957 8.72656 40.5621 8.72656 37.3133V9.86233ZM24.4129 17.7054V25.5486H28.3345V17.7054H24.4129ZM28.3345 13.7839C28.3345 14.8668 27.4565 15.7447 26.3736 15.7447C25.2907 15.7447 24.4129 14.8668 24.4129 13.7839C24.4129 12.701 25.2907 11.8231 26.3736 11.8231C27.4565 11.8231 28.3345 12.701 28.3345 13.7839ZM36.1776 35.3525H14.6089V37.3133H36.1776V35.3525Z" fill="white"/>
</svg>
