<svg width="55" height="55" viewBox="0 0 55 55" fill="none" xmlns="http://www.w3.org/2000/svg">
<path d="M8.79922 27.5025C8.79922 17.1625 17.1592 8.80249 27.4992 8.80249C37.8392 8.80249 46.1992 17.1625 46.1992 27.5025C46.1992 37.8425 37.8392 46.2025 27.4992 46.2025C17.1592 46.2025 8.79922 37.8425 8.79922 27.5025ZM43.9992 27.5025C43.9992 18.3725 36.6292 11.0025 27.4992 11.0025C18.3692 11.0025 10.9992 18.3725 10.9992 27.5025C10.9992 36.6325 18.3692 44.0025 27.4992 44.0025C36.6292 44.0025 43.9992 36.6325 43.9992 27.5025Z" fill="#28374D"/>
<path d="M16.8319 27.8328L27.5019 17.1628L38.1719 27.8328L36.6319 29.3728L27.5019 20.2428L18.3719 29.3728L16.8319 27.8328Z" fill="#28374D"/>
<path d="M28.6016 18.6975L28.6016 37.3975L26.4016 37.3975L26.4016 18.6975L28.6016 18.6975Z" fill="#28374D"/>
</svg>
