<svg width="25" height="25" viewBox="0 0 25 25" fill="none" xmlns="http://www.w3.org/2000/svg">
<path d="M7.80729 4.16662C7.94438 4.16741 8.08028 4.14113 8.20719 4.08929C8.33411 4.03746 8.44954 3.96108 8.54688 3.86453L9.58854 2.82287C9.78469 2.62672 9.89489 2.36068 9.89489 2.08328C9.89489 1.80588 9.78469 1.53985 9.58854 1.3437C9.39239 1.14755 9.12636 1.03735 8.84896 1.03735C8.57156 1.03735 8.30553 1.14755 8.10938 1.3437L7.06771 2.38537C6.97007 2.4822 6.89258 2.59741 6.8397 2.72435C6.78681 2.85129 6.75959 2.98744 6.75959 3.12495C6.75959 3.26246 6.78681 3.39861 6.8397 3.52555C6.89258 3.65249 6.97007 3.7677 7.06771 3.86453C7.16504 3.96108 7.28048 4.03746 7.40739 4.08929C7.5343 4.14113 7.6702 4.16741 7.80729 4.16662ZM11.974 4.16662C12.111 4.16741 12.2469 4.14113 12.3739 4.08929C12.5008 4.03746 12.6162 3.96108 12.7135 3.86453L13.7552 2.82287C13.9514 2.62672 14.0616 2.36068 14.0616 2.08328C14.0616 1.80588 13.9514 1.53985 13.7552 1.3437C13.5591 1.14755 13.293 1.03735 13.0156 1.03735C12.7382 1.03735 12.4722 1.14755 12.276 1.3437L11.2344 2.38537C11.1367 2.4822 11.0592 2.59741 11.0064 2.72435C10.9535 2.85129 10.9263 2.98744 10.9263 3.12495C10.9263 3.26246 10.9535 3.39861 11.0064 3.52555C11.0592 3.65249 11.1367 3.7677 11.2344 3.86453C11.3317 3.96108 11.4471 4.03746 11.5741 4.08929C11.701 4.14113 11.8369 4.16741 11.974 4.16662ZM16.1406 4.16662C16.2777 4.16741 16.4136 4.14113 16.5405 4.08929C16.6674 4.03746 16.7829 3.96108 16.8802 3.86453L17.9219 2.82287C18.019 2.72574 18.096 2.61044 18.1486 2.48354C18.2012 2.35664 18.2282 2.22064 18.2282 2.08328C18.2282 1.94593 18.2012 1.80992 18.1486 1.68302C18.096 1.55612 18.019 1.44082 17.9219 1.3437C17.8248 1.24658 17.7094 1.16953 17.5826 1.11697C17.4557 1.06441 17.3196 1.03735 17.1823 1.03735C17.0449 1.03735 16.9089 1.06441 16.782 1.11697C16.6551 1.16953 16.5398 1.24658 16.4427 1.3437L15.401 2.38537C15.3034 2.4822 15.2259 2.59741 15.173 2.72435C15.1201 2.85129 15.0929 2.98744 15.0929 3.12495C15.0929 3.26246 15.1201 3.39861 15.173 3.52555C15.2259 3.65249 15.3034 3.7677 15.401 3.86453C15.4984 3.96108 15.6138 4.03746 15.7407 4.08929C15.8676 4.14113 16.0035 4.16741 16.1406 4.16662ZM18.6615 16.2708C18.6382 16.2046 18.6067 16.1416 18.5677 16.0833L18.4427 15.927L18.2865 15.802C18.2282 15.763 18.1652 15.7315 18.099 15.7083C18.0369 15.6766 17.97 15.6554 17.901 15.6458C17.7337 15.6123 17.5607 15.6204 17.3972 15.6694C17.2337 15.7185 17.0848 15.8069 16.9635 15.927C16.9194 15.9771 16.8777 16.0292 16.8385 16.0833C16.7995 16.1416 16.768 16.2046 16.7448 16.2708C16.7141 16.3296 16.6931 16.3929 16.6823 16.4583C16.6773 16.5276 16.6773 16.5973 16.6823 16.6666C16.6834 16.9399 16.7919 17.2018 16.9844 17.3958C17.0805 17.4968 17.1979 17.5751 17.3281 17.625C17.4469 17.6757 17.574 17.704 17.7031 17.7083C17.9794 17.7083 18.2443 17.5985 18.4397 17.4032C18.635 17.2078 18.7448 16.9429 18.7448 16.6666C18.7498 16.5973 18.7498 16.5276 18.7448 16.4583C18.7275 16.3916 18.6994 16.3283 18.6615 16.2708ZM20.5781 11.5729L19.1615 7.3437C18.9454 6.73248 18.5445 6.2036 18.0145 5.83033C17.4844 5.45705 16.8514 5.25787 16.2031 5.26037H8.78646C8.13817 5.25787 7.50515 5.45705 6.9751 5.83033C6.44506 6.2036 6.04422 6.73248 5.82813 7.3437L4.41146 11.5729C3.74513 11.7474 3.15512 12.1371 2.73316 12.6815C2.31119 13.2259 2.08091 13.8945 2.07812 14.5833V18.75C2.07994 19.3947 2.28112 20.0231 2.6541 20.549C3.02708 21.0749 3.55359 21.4725 4.16146 21.6875V22.9166C4.16146 23.1929 4.27121 23.4578 4.46656 23.6532C4.66191 23.8485 4.92686 23.9583 5.20313 23.9583C5.47939 23.9583 5.74434 23.8485 5.93969 23.6532C6.13505 23.4578 6.24479 23.1929 6.24479 22.9166V21.875H18.7448V22.9166C18.7448 23.1929 18.8545 23.4578 19.0499 23.6532C19.2452 23.8485 19.5102 23.9583 19.7865 23.9583C20.0627 23.9583 20.3277 23.8485 20.523 23.6532C20.7184 23.4578 20.8281 23.1929 20.8281 22.9166V21.6875C21.436 21.4725 21.9625 21.0749 22.3355 20.549C22.7085 20.0231 22.9096 19.3947 22.9115 18.75V14.5833C22.9087 13.8945 22.6784 13.2259 22.2564 12.6815C21.8345 12.1371 21.2445 11.7474 20.5781 11.5729ZM7.79688 7.99995C7.86676 7.79305 7.99989 7.61335 8.17747 7.48624C8.35505 7.35914 8.56808 7.29105 8.78646 7.29162H16.2031C16.4303 7.27976 16.6551 7.34258 16.8432 7.47049C17.0313 7.59839 17.1723 7.78434 17.2448 7.99995L18.3385 11.4583H6.65104L7.79688 7.99995ZM20.8281 18.75C20.8281 19.0262 20.7184 19.2912 20.523 19.4865C20.3277 19.6819 20.0627 19.7916 19.7865 19.7916H5.20313C4.92686 19.7916 4.66191 19.6819 4.46656 19.4865C4.27121 19.2912 4.16146 19.0262 4.16146 18.75V14.5833C4.16146 14.307 4.27121 14.0421 4.46656 13.8467C4.66191 13.6514 4.92686 13.5416 5.20313 13.5416H19.7865C20.0627 13.5416 20.3277 13.6514 20.523 13.8467C20.7184 14.0421 20.8281 14.307 20.8281 14.5833V18.75ZM13.5365 15.6249H11.4531C11.1769 15.6249 10.9119 15.7347 10.7166 15.93C10.5212 16.1254 10.4115 16.3903 10.4115 16.6666C10.4115 16.9429 10.5212 17.2078 10.7166 17.4032C10.9119 17.5985 11.1769 17.7083 11.4531 17.7083H13.5365C13.8127 17.7083 14.0777 17.5985 14.273 17.4032C14.4684 17.2078 14.5781 16.9429 14.5781 16.6666C14.5781 16.3903 14.4684 16.1254 14.273 15.93C14.0777 15.7347 13.8127 15.6249 13.5365 15.6249ZM8.24479 16.2708C8.22156 16.2046 8.19006 16.1416 8.15104 16.0833L8.02604 15.927C7.87956 15.7825 7.69355 15.6846 7.49147 15.6456C7.2894 15.6067 7.08032 15.6285 6.89063 15.7083C6.76276 15.7579 6.64594 15.8322 6.54688 15.927C6.50273 15.9771 6.46102 16.0292 6.42188 16.0833C6.38286 16.1416 6.35136 16.2046 6.32813 16.2708C6.29021 16.3283 6.26205 16.3916 6.24479 16.4583C6.23983 16.5276 6.23983 16.5973 6.24479 16.6666C6.24566 16.8726 6.30759 17.0738 6.42276 17.2446C6.53793 17.4154 6.70116 17.5482 6.89182 17.6263C7.08248 17.7043 7.292 17.7241 7.49389 17.6831C7.69578 17.642 7.88097 17.5421 8.02604 17.3958C8.21848 17.2018 8.32697 16.9399 8.32813 16.6666C8.33309 16.5973 8.33309 16.5276 8.32813 16.4583C8.31087 16.3916 8.28271 16.3283 8.24479 16.2708Z" fill="#28374D"/>
</svg>
