<svg width="27" height="28" viewBox="0 0 27 28" fill="none" xmlns="http://www.w3.org/2000/svg">
<path d="M17.2504 15.25V16.5C17.2504 20.035 17.2504 21.8038 18.3491 22.9013C19.4466 24 21.2154 24 24.7504 24M24.3642 21.5V26.5M9.75036 12.5375L9.07911 12.6112C8.07411 12.7237 7.5716 12.7788 7.1716 12.7363C5.2191 12.5238 3.67909 10.7925 3.51034 8.61875C3.47534 8.17375 3.53159 7.61625 3.64284 6.5M15.6141 7.75H15.6266M19.7504 7.75H25.3754" stroke="#28374D" stroke-width="2" stroke-linecap="round" stroke-linejoin="round"/>
<path d="M1.30741 4.28C1.02991 3.15875 0.891162 2.59875 1.10241 2.18125C1.17367 2.03956 1.27124 1.91272 1.38991 1.8075C1.74117 1.5 2.31242 1.5 3.45867 1.5H19.1937C22.9525 1.5 26 4.5775 26 8.375C26 12.1725 22.9525 15.25 19.1925 15.25H13.2562C12.2362 15.25 11.7262 15.25 11.2887 15.075C10.9508 14.9394 10.6467 14.7316 10.3974 14.4663C10.0737 14.12 9.88494 13.6413 9.50619 12.6863L8.83369 10.99C8.44619 10.0087 8.25119 9.51875 7.89244 9.155C7.53244 8.7925 7.04743 8.59625 6.07618 8.205L3.96117 7.35C3.05242 6.9825 2.59867 6.8 2.25742 6.475C2.13791 6.36176 2.02989 6.23698 1.93492 6.1025C1.66366 5.7175 1.54491 5.23875 1.30741 4.28Z" stroke="#28374D" stroke-width="2" stroke-linecap="round" stroke-linejoin="round"/>
</svg>
