<svg width="26" height="27" viewBox="0 0 26 27" fill="none" xmlns="http://www.w3.org/2000/svg">
<g clip-path="url(#clip0_1_61369)">
<path d="M12.9948 11.8125C11.8897 11.8125 10.8299 11.368 10.0485 10.5769C9.26711 9.78569 8.82813 8.71263 8.82812 7.59375C8.82813 6.47487 9.26711 5.40181 10.0485 4.61064C10.8299 3.81947 11.8897 3.375 12.9948 3.375C14.0999 3.375 15.1597 3.81947 15.9411 4.61064C16.7225 5.40181 17.1615 6.47487 17.1615 7.59375C17.1615 8.71263 16.7225 9.78569 15.9411 10.5769C15.1597 11.368 14.0999 11.8125 12.9948 11.8125ZM12.9948 5.0625C11.6115 5.0625 10.4948 6.19313 10.4948 7.59375C10.4948 8.99437 11.6115 10.125 12.9948 10.125C14.3781 10.125 15.4948 8.99437 15.4948 7.59375C15.4948 6.19313 14.3781 5.0625 12.9948 5.0625Z" fill="#28374D"/>
<path d="M23 18.5625C22.5333 18.5625 22.1667 18.1912 22.1667 17.7188C22.1667 17.2463 22.5333 16.875 23 16.875C23.4667 16.875 23.8333 16.5037 23.8333 16.0312C23.8333 14.9124 23.3943 13.8393 22.6129 13.0481C21.8315 12.257 20.7717 11.8125 19.6667 11.8125H18C17.5333 11.8125 17.1667 11.4412 17.1667 10.9688C17.1667 10.4963 17.5333 10.125 18 10.125C19.3833 10.125 20.5 8.99437 20.5 7.59375C20.5 6.19313 19.3833 5.0625 18 5.0625C17.5333 5.0625 17.1667 4.69125 17.1667 4.21875C17.1667 3.74625 17.5333 3.375 18 3.375C19.1051 3.375 20.1649 3.81947 20.9463 4.61064C21.7277 5.40181 22.1667 6.47487 22.1667 7.59375C22.1667 8.64 21.8 9.585 21.1667 10.3275C23.65 11.0025 25.5 13.2975 25.5 16.0312C25.5 17.4319 24.3833 18.5625 23 18.5625ZM3 18.5625C1.61667 18.5625 0.5 17.4319 0.5 16.0312C0.5 13.2975 2.33333 11.0025 4.83333 10.3275C4.21667 9.585 3.83333 8.64 3.83333 7.59375C3.83333 6.47487 4.27232 5.40181 5.05372 4.61064C5.83512 3.81947 6.89493 3.375 8 3.375C8.46667 3.375 8.83333 3.74625 8.83333 4.21875C8.83333 4.69125 8.46667 5.0625 8 5.0625C6.61667 5.0625 5.5 6.19313 5.5 7.59375C5.5 8.99437 6.61667 10.125 8 10.125C8.46667 10.125 8.83333 10.4963 8.83333 10.9688C8.83333 11.4412 8.46667 11.8125 8 11.8125H6.33333C5.22826 11.8125 4.16846 12.257 3.38705 13.0481C2.60565 13.8393 2.16667 14.9124 2.16667 16.0312C2.16667 16.5037 2.53333 16.875 3 16.875C3.46667 16.875 3.83333 17.2463 3.83333 17.7188C3.83333 18.1912 3.46667 18.5625 3 18.5625ZM18 23.625H8C6.61667 23.625 5.5 22.4944 5.5 21.0938V19.4062C5.5 16.1494 8.11667 13.5 11.3333 13.5H14.6667C17.8833 13.5 20.5 16.1494 20.5 19.4062V21.0938C20.5 22.4944 19.3833 23.625 18 23.625ZM11.3333 15.1875C10.2283 15.1875 9.16846 15.632 8.38705 16.4231C7.60565 17.2143 7.16667 18.2874 7.16667 19.4062V21.0938C7.16667 21.5662 7.53333 21.9375 8 21.9375H18C18.4667 21.9375 18.8333 21.5662 18.8333 21.0938V19.4062C18.8333 18.2874 18.3943 17.2143 17.6129 16.4231C16.8315 15.632 15.7717 15.1875 14.6667 15.1875H11.3333Z" fill="#28374D"/>
</g>
<defs>
<clipPath id="clip0_1_61369">
<rect width="25" height="27" fill="white" transform="translate(0.5)"/>
</clipPath>
</defs>
</svg>
