<svg width="29" height="29" viewBox="0 0 29 29" fill="none" xmlns="http://www.w3.org/2000/svg">
<path fill-rule="evenodd" clip-rule="evenodd" d="M13.6812 6.3454C13.6809 5.35457 13.9128 4.37745 14.3581 3.49235C14.8035 2.60725 15.45 1.83878 16.2458 1.24852C17.0417 0.658254 17.9647 0.262615 18.9409 0.0933033C19.9172 -0.0760084 20.9195 -0.0142844 21.8677 0.273529C22.0175 0.318925 22.153 0.402373 22.2611 0.515739C22.3691 0.629104 22.4458 0.768519 22.4839 0.920393C22.522 1.07227 22.5201 1.23142 22.4784 1.38234C22.4367 1.53325 22.3566 1.67079 22.2459 1.78153L18.2342 5.79199C18.3121 6.38648 18.5843 6.93856 19.0085 7.3623C19.4326 7.78604 19.985 8.05768 20.5796 8.13495L24.5888 4.12449C24.6996 4.01379 24.8371 3.93368 24.988 3.89196C25.1389 3.85024 25.2981 3.84833 25.45 3.88642C25.6018 3.92451 25.7413 4.0013 25.8546 4.1093C25.968 4.21731 26.0514 4.35284 26.0968 4.5027C26.398 5.49456 26.4515 6.54511 26.2526 7.56243C26.0538 8.57976 25.6087 9.53286 24.9563 10.3384C24.3039 11.1439 23.464 11.7772 22.5102 12.183C21.5564 12.5888 20.5176 12.7547 19.4848 12.6662C18.2547 12.5623 17.2252 12.787 16.6948 13.4323L8.0552 23.9267C7.70145 24.3541 7.26233 24.703 6.76596 24.951C6.2696 25.1989 5.72692 25.3405 5.17268 25.3666C4.61844 25.3927 4.06485 25.3028 3.54736 25.1026C3.02987 24.9025 2.55989 24.5964 2.16751 24.2041C1.77512 23.8118 1.46899 23.3419 1.2687 22.8245C1.06841 22.307 0.978378 21.7534 1.00438 21.1992C1.03038 20.645 1.17183 20.1022 1.41968 19.6058C1.66753 19.1094 2.01632 18.6702 2.4437 18.3164L12.9369 9.67557C13.5809 9.1439 13.8069 8.11561 13.703 6.88553C13.6876 6.7059 13.6804 6.52568 13.6812 6.3454ZM4.15591 21.2985C4.15591 21.0582 4.25139 20.8277 4.42135 20.6577C4.5913 20.4878 4.82181 20.3923 5.06216 20.3923H5.07183C5.31218 20.3923 5.54269 20.4878 5.71264 20.6577C5.8826 20.8277 5.97808 21.0582 5.97808 21.2985V21.3082C5.97808 21.5485 5.8826 21.7791 5.71264 21.949C5.54269 22.119 5.31218 22.2144 5.07183 22.2144H5.06216C4.82181 22.2144 4.5913 22.119 4.42135 21.949C4.25139 21.7791 4.15591 21.5485 4.15591 21.3082V21.2985Z" fill="white"/>
<path d="M11.3545 8.62911L8.69498 5.97078V4.07853C8.69497 3.92207 8.65446 3.76828 8.57738 3.63213C8.50031 3.49597 8.38929 3.38209 8.25515 3.30157L3.7239 0.582819C3.55059 0.478929 3.34753 0.435938 3.14699 0.460677C2.94645 0.485416 2.75993 0.576467 2.61707 0.719361L1.71082 1.62561C1.56792 1.76847 1.47687 1.955 1.45213 2.15554C1.42739 2.35608 1.47038 2.55914 1.57427 2.73244L4.29302 7.26369C4.37355 7.39784 4.48743 7.50885 4.62358 7.58593C4.75974 7.663 4.91353 7.70352 5.06998 7.70353H6.95982L9.4514 10.1951L11.3545 8.62911Z" fill="white"/>
<path fill-rule="evenodd" clip-rule="evenodd" d="M14.3516 19.1283L19.406 24.1816C19.7847 24.5603 20.2343 24.8607 20.7291 25.0656C21.2239 25.2705 21.7542 25.376 22.2897 25.376C22.8253 25.376 23.3556 25.2705 23.8503 25.0656C24.3451 24.8607 24.7947 24.5603 25.1734 24.1816C25.5521 23.8029 25.8525 23.3533 26.0574 22.8585C26.2624 22.3637 26.3679 21.8334 26.3679 21.2979C26.3679 20.7623 26.2624 20.232 26.0574 19.7372C25.8525 19.2425 25.5521 18.7929 25.1734 18.4142L21.1786 14.4207C20.5663 14.5075 19.9461 14.5249 19.3299 14.4726C18.8538 14.4315 18.5058 14.4654 18.2823 14.5234C18.2116 14.5385 18.1436 14.5642 18.0805 14.5995L14.3516 19.1283ZM18.4768 17.485C18.6467 17.3153 18.8771 17.22 19.1172 17.22C19.3574 17.22 19.5877 17.3153 19.7576 17.485L22.0233 19.7518C22.1123 19.8348 22.1837 19.9348 22.2333 20.046C22.2828 20.1572 22.3094 20.2772 22.3116 20.3989C22.3137 20.5205 22.2913 20.6414 22.2458 20.7543C22.2002 20.8671 22.1323 20.9696 22.0463 21.0557C21.9602 21.1417 21.8577 21.2096 21.7449 21.2551C21.632 21.3007 21.5112 21.3231 21.3895 21.321C21.2678 21.3188 21.1478 21.2922 21.0366 21.2426C20.9255 21.1931 20.8254 21.1217 20.7424 21.0327L18.4768 18.767C18.3071 18.5971 18.2118 18.3668 18.2118 18.1266C18.2118 17.8865 18.3071 17.6561 18.4768 17.4862" fill="white"/>
</svg>
