<svg width="35" height="35" viewBox="0 0 35 35" fill="none" xmlns="http://www.w3.org/2000/svg">
<g clip-path="url(#clip0_1_63859)">
<path fill-rule="evenodd" clip-rule="evenodd" d="M19.6856 3.375C19.6856 2.79484 19.4551 2.23844 19.0449 1.8282C18.6346 1.41797 18.0782 1.1875 17.4981 1.1875C16.9179 1.1875 16.3615 1.41797 15.9513 1.8282C15.5411 2.23844 15.3106 2.79484 15.3106 3.375V6.05396C14.5812 6.39983 13.9443 6.91375 13.4521 7.55352C12.9599 8.19329 12.6265 8.94068 12.4792 9.73432C12.3319 10.528 12.3749 11.3452 12.6047 12.119C12.8345 12.8928 13.2446 13.6011 13.8012 14.1856L8.16475 28.8404C7.96723 29.3796 7.98962 29.9748 8.22709 30.4976C8.46457 31.0204 8.89808 31.4288 9.43407 31.6348C9.97006 31.8408 10.5655 31.8278 11.092 31.5985C11.6185 31.3693 12.0337 30.9423 12.2481 30.4096L14.0987 25.6C16.3368 26.1097 18.6608 26.1097 20.8989 25.6L22.7481 30.4125C22.9566 30.954 23.3716 31.3905 23.9019 31.6259C24.4322 31.8614 25.0343 31.8766 25.5758 31.6681C26.1173 31.4597 26.5538 31.0446 26.7892 30.5143C27.0247 29.984 27.0399 29.3819 26.8314 28.8404L24.9808 24.0308C26.4562 23.2032 27.7842 22.1368 28.911 20.875C29.2821 20.4405 29.4685 19.878 29.4303 19.3079C29.3921 18.7377 29.1323 18.2052 28.7064 17.8241C28.2806 17.443 27.7226 17.2437 27.1517 17.2688C26.5808 17.2939 26.0424 17.5414 25.6516 17.9583C24.9879 18.7006 24.2259 19.3487 23.3868 19.8848L21.195 14.1856C21.7516 13.6011 22.1617 12.8928 22.3915 12.119C22.6213 11.3452 22.6643 10.528 22.517 9.73432C22.3697 8.94068 22.0362 8.19329 21.544 7.55352C21.0518 6.91375 20.4149 6.39983 19.6856 6.05396V3.375ZM19.3035 21.4554L17.4981 16.7596L15.6912 21.4554C16.8872 21.653 18.1075 21.653 19.3035 21.4554Z" fill="white"/>
</g>
<defs>
<clipPath id="clip0_1_63859">
<rect width="35" height="35" fill="white"/>
</clipPath>
</defs>
</svg>
