<svg width="35" height="35" viewBox="0 0 35 35" fill="none" xmlns="http://www.w3.org/2000/svg">
<g clip-path="url(#clip0_1_63876)">
<path d="M30.2214 19.7834C30.226 19.7291 30.2179 19.6744 30.1976 19.6238C30.1773 19.5731 30.1455 19.5279 30.1047 19.4918L29.1714 18.5001C29.1104 18.4611 29.0396 18.4404 28.9672 18.4404C28.8949 18.4404 28.824 18.4611 28.763 18.5001C27.5168 19.0245 26.1776 19.2923 24.8255 19.2876C23.7451 19.2918 22.6712 19.1194 21.6464 18.7772C21.5592 18.7479 21.4641 18.7527 21.3803 18.7905C21.2964 18.8284 21.23 18.8965 21.1943 18.9813C20.8141 19.8385 20.3239 20.6425 19.736 21.373C19.7143 21.4237 19.7031 21.4783 19.7031 21.5334C19.7031 21.5886 19.7143 21.6431 19.736 21.6938C19.8351 22.0512 19.9569 22.4019 20.1005 22.7438C20.1408 22.8316 20.2142 22.8998 20.3047 22.9334C23.863 24.2459 28.486 26.4188 28.486 33.1418V35.3293C28.4918 35.4361 28.4918 35.5432 28.486 35.6501C28.4787 35.7021 28.4827 35.7552 28.4978 35.8055C28.5129 35.8558 28.5387 35.9023 28.5735 35.9418C28.6467 36.0158 28.7464 36.0577 28.8505 36.0584H34.2755C34.4689 36.0584 34.6544 35.9816 34.7911 35.8449C34.9279 35.7081 35.0047 35.5226 35.0047 35.3293V34.0897C35.0047 29.5688 31.8547 28.4459 29.0693 27.4543L28.3547 27.1918C28.2642 27.1581 28.1908 27.0899 28.1505 27.0022C28.1063 26.9088 28.0721 26.8111 28.0485 26.7105C27.9181 26.1148 27.9181 25.4979 28.0485 24.9022C29.3644 23.5125 30.1358 21.6954 30.2214 19.7834Z" fill="white"/>
<path d="M14.5833 9.02095C14.5833 8.00262 14.7357 6.99002 15.0354 6.01678C15.0728 5.92315 15.0728 5.81876 15.0354 5.72512C14.9763 5.63907 14.8884 5.577 14.7875 5.55012C14.2415 5.43069 13.6839 5.37201 13.125 5.37512C9.66875 5.37512 6.19792 7.65012 6.19792 12.6668C6.19792 18.7334 8.6625 20.1918 8.95417 20.8043C9.2466 21.7057 9.27695 22.6717 9.04167 23.5897C8.93958 23.9689 8.79375 24.1293 8.69167 24.173L7.58333 24.5668C4.025 25.8793 0 27.2501 0 33.0834V35.2709C0 35.4643 0.0768227 35.6498 0.213568 35.7865C0.350313 35.9233 0.53578 36.0001 0.729167 36.0001H25.5208C25.7142 36.0001 25.8997 35.9233 26.0364 35.7865C26.1732 35.6498 26.25 35.4643 26.25 35.2709V33.0834C26.25 27.323 22.2104 25.8939 18.6375 24.6105L17.5 24.2314C17.3979 24.2314 17.2521 24.0272 17.15 23.648C16.8955 22.737 16.8955 21.7737 17.15 20.8626C17.9597 20.0094 18.6159 19.0227 19.0896 17.946C19.1193 17.8665 19.1226 17.7796 19.099 17.6981C19.0753 17.6167 19.026 17.545 18.9583 17.4939C17.5945 16.5443 16.4831 15.2762 15.7207 13.7996C14.9583 12.3231 14.5678 10.6827 14.5833 9.02095Z" fill="white"/>
<path d="M29.1639 15.7874C29.2293 15.7389 29.3085 15.7127 29.3899 15.7127C29.4714 15.7127 29.5506 15.7389 29.616 15.7874L32.5327 18.7041C32.6682 18.8408 32.8295 18.9493 33.0072 19.0233C33.1849 19.0973 33.3756 19.1354 33.5681 19.1354C33.7606 19.1354 33.9512 19.0973 34.1289 19.0233C34.3066 18.9493 34.4679 18.8408 34.6035 18.7041C34.7402 18.5685 34.8487 18.4072 34.9227 18.2295C34.9967 18.0518 35.0349 17.8612 35.0349 17.6687C35.0349 17.4761 34.9967 17.2855 34.9227 17.1078C34.8487 16.9301 34.7402 16.7688 34.6035 16.6332L31.6868 13.7166C31.6383 13.6512 31.6121 13.572 31.6121 13.4905C31.6121 13.4091 31.6383 13.3299 31.6868 13.2645C32.7361 11.595 33.1336 9.59752 32.8035 7.65352C32.4733 5.70952 31.4387 3.95525 29.8971 2.72575C28.3555 1.49626 26.4151 0.877692 24.4463 0.988201C22.4776 1.09871 20.6186 1.93055 19.2243 3.32484C17.83 4.71914 16.9981 6.57818 16.8876 8.54691C16.7771 10.5156 17.3957 12.4561 18.6252 13.9977C19.8547 15.5392 21.6089 16.5739 23.5529 16.904C25.4969 17.2342 27.4944 16.8367 29.1639 15.7874ZM19.6847 9.02074C19.6847 8.01123 19.9841 7.02439 20.5449 6.18502C21.1058 5.34564 21.903 4.69143 22.8356 4.30511C23.7683 3.91878 24.7946 3.8177 25.7847 4.01465C26.7748 4.21159 27.6843 4.69772 28.3981 5.41155C29.1119 6.12538 29.5981 7.03486 29.795 8.02497C29.9919 9.01508 29.8909 10.0414 29.5045 10.974C29.1182 11.9067 28.464 12.7038 27.6246 13.2647C26.7853 13.8256 25.7984 14.1249 24.7889 14.1249C23.4352 14.1249 22.1369 13.5871 21.1797 12.6299C20.2225 11.6727 19.6847 10.3744 19.6847 9.02074Z" fill="white"/>
</g>
<defs>
<clipPath id="clip0_1_63876">
<rect width="35" height="35" fill="white"/>
</clipPath>
</defs>
</svg>
