<svg width="60" height="61" viewBox="0 0 60 61" fill="none" xmlns="http://www.w3.org/2000/svg">
<path d="M16.4991 8.75C16.0962 8.75022 15.7007 8.85863 15.354 9.06391C15.0073 9.2692 14.7221 9.56382 14.5281 9.917L6.27814 24.917C6.06072 25.3126 5.96734 25.7645 6.01014 26.214C6.05294 26.6634 6.22994 27.0895 6.51814 27.437L28.2681 53.687C28.4793 53.9418 28.744 54.1469 29.0435 54.2876C29.3429 54.4284 29.6697 54.5014 30.0006 54.5014C30.3315 54.5014 30.6584 54.4284 30.9578 54.2876C31.2573 54.1469 31.522 53.9418 31.7331 53.687L53.4831 27.437C53.7713 27.0895 53.9483 26.6634 53.9911 26.214C54.0339 25.7645 53.9406 25.3126 53.7231 24.917L45.4731 9.917C45.2789 9.56337 44.9933 9.26846 44.646 9.06315C44.2987 8.85784 43.9026 8.74968 43.4991 8.75H16.4991ZM12.4671 23L17.8281 13.25H22.3281L18.9141 23H12.4671ZM18.4311 27.5L24.2181 41.744L12.4131 27.5H18.4311ZM29.9661 43.943L23.2881 27.5H36.4461L29.9661 43.943ZM23.6841 23L27.0951 13.25H32.9301L36.5211 23H23.6841ZM41.3181 23L37.7271 13.25H42.1671L47.5311 23H41.3181ZM41.2821 27.5H47.5821L35.5671 42.002L41.2821 27.5Z" fill="white"/>
</svg>
