<svg width="35" height="36" viewBox="0 0 35 36" fill="none" xmlns="http://www.w3.org/2000/svg">
<g clip-path="url(#clip0_1_63911)">
<path fill-rule="evenodd" clip-rule="evenodd" d="M10.6138 3.925C12.9657 3.7475 15.3228 3.64744 17.6813 3.625C20.7263 3.625 24.5838 3.975 27.7163 4.33C29.2738 4.505 30.6413 4.685 31.6138 4.8175L31.8088 4.8425C31.3888 7.2225 28.9963 10.91 23.3213 10.91C22.9069 10.91 22.5095 11.0746 22.2165 11.3676C21.9234 11.6607 21.7588 12.0581 21.7588 12.4725V19.195C21.7626 19.4126 21.6827 19.6233 21.5357 19.7837C21.3888 19.9442 21.1859 20.0422 20.9688 20.0575C17.5083 20.2746 14.0394 20.328 10.5738 20.2175C6.38381 20.0825 3.12631 16.5 3.12631 12.1475C3.12631 7.815 6.37131 4.22 10.6138 3.9225M33.6313 1.945H33.6238L33.6013 1.94L33.5188 1.9275L33.2038 1.8825L32.0363 1.7175C30.7156 1.53885 29.3931 1.37468 28.0688 1.225C24.9113 0.865 20.9113 0.5 17.6813 0.5C15.4738 0.5 12.8588 0.6325 10.3938 0.805C4.43631 1.225 0.00130945 6.255 0.00130945 12.15C0.00130945 17.8075 4.11131 22.765 9.80131 23.3V25.315C9.80131 26.105 9.59131 26.4475 9.42631 26.6275C9.22131 26.8525 8.83631 27.095 8.13131 27.2775C7.12631 27.5375 5.95631 27.5775 4.69381 27.575C4.60215 26.9216 4.47361 26.2739 4.30881 25.635C4.23952 25.3545 4.11535 25.0905 3.94346 24.8583C3.77158 24.626 3.55539 24.4301 3.30738 24.2819C3.05937 24.1337 2.78445 24.0361 2.4985 23.9947C2.21255 23.9533 1.92123 23.9689 1.64137 24.0408C1.36151 24.1126 1.09865 24.2391 0.867975 24.4131C0.637295 24.5871 0.443366 24.805 0.297386 25.0544C0.151405 25.3037 0.0562669 25.5795 0.0174636 25.8658C-0.0213397 26.1521 -0.00303878 26.4433 0.0713095 26.7225C0.607663 28.7035 0.607663 30.7915 0.0713095 32.7725C-0.00619006 33.0528 -0.027033 33.3457 0.00999944 33.6341C0.0470319 33.9225 0.141196 34.2006 0.286987 34.4522C0.432777 34.7038 0.627267 34.9239 0.859083 35.0994C1.0909 35.2749 1.35539 35.4025 1.63709 35.4746C1.91879 35.5468 2.21204 35.562 2.4997 35.5195C2.78735 35.4769 3.06364 35.3775 3.31241 35.2269C3.56117 35.0763 3.77742 34.8777 3.9485 34.6425C4.11959 34.4074 4.24208 34.1405 4.30881 33.8575C4.47548 33.2158 4.60214 32.5817 4.68881 31.955C6.11381 31.955 7.78131 31.8875 9.22881 31.5125C10.4038 31.2075 11.6763 30.6525 12.6538 29.58C13.6763 28.4625 14.1788 27.005 14.1788 25.315V23.4C16.5021 23.4 18.8305 23.3258 21.1638 23.1775C22.0106 23.1226 22.8176 22.7981 23.4667 22.2515C24.1158 21.705 24.573 20.9651 24.7713 20.14H29.0263C30.7063 20.14 32.3463 18.9575 32.4913 17.0675C32.6488 15.05 32.5263 12.6225 32.1913 10.5475C34.3713 8.2775 35.2413 5.365 34.9463 3.2725C34.8989 2.93953 34.7453 2.63075 34.5084 2.39203C34.2715 2.15332 33.9639 1.99492 33.6313 1.945ZM8.53131 14.3975C8.53131 13.535 9.23131 12.835 10.0938 12.835H12.3638C12.7782 12.835 13.1756 12.9996 13.4687 13.2926C13.7617 13.5857 13.9263 13.9831 13.9263 14.3975C13.9263 14.8119 13.7617 15.2093 13.4687 15.5024C13.1756 15.7954 12.7782 15.96 12.3638 15.96H10.0938C9.67941 15.96 9.28198 15.7954 8.98895 15.5024C8.69593 15.2093 8.53131 14.8119 8.53131 14.3975Z" fill="white"/>
</g>
<defs>
<clipPath id="clip0_1_63911">
<rect width="35" height="35" fill="white" transform="translate(0 0.5)"/>
</clipPath>
</defs>
</svg>
