<svg width="35" height="36" viewBox="0 0 35 36" fill="none" xmlns="http://www.w3.org/2000/svg">
<path fill-rule="evenodd" clip-rule="evenodd" d="M3.28125 15.8124C3.28136 13.0469 4.08798 10.3413 5.60233 8.02722C7.11668 5.7131 9.27302 3.89083 11.8073 2.78358C14.3415 1.67634 17.1437 1.33217 19.8705 1.79324C22.5974 2.25431 25.1306 3.5006 27.1599 5.37948C29.1893 7.25836 30.6266 9.68826 31.296 12.3716C31.9654 15.055 31.8377 17.8753 30.9285 20.4871C30.0194 23.099 28.3683 25.3891 26.1775 27.0769C23.9866 28.7646 21.3511 29.7769 18.5938 29.9896V31.1249H24.0625V33.3124H10.9375V31.1249H16.4063V29.9896C12.8351 29.7141 9.49941 28.1009 7.0661 25.4725C4.63279 22.8442 3.28111 19.3942 3.28125 15.8124ZM17.5 3.78118C14.3091 3.78118 11.2489 5.04875 8.99262 7.30505C6.73633 9.56135 5.46875 12.6215 5.46875 15.8124C5.46875 19.0033 6.73633 22.0635 8.99262 24.3198C11.2489 26.5761 14.3091 27.8437 17.5 27.8437C20.6909 27.8437 23.7511 26.5761 26.0074 24.3198C28.2637 22.0635 29.5313 19.0033 29.5313 15.8124C29.5313 12.6215 28.2637 9.56135 26.0074 7.30505C23.7511 5.04875 20.6909 3.78118 17.5 3.78118Z" fill="white"/>
<path fill-rule="evenodd" clip-rule="evenodd" d="M9.84375 15.8125C9.84375 13.7819 10.6504 11.8345 12.0862 10.3987C13.522 8.96289 15.4694 8.15625 17.5 8.15625C19.5306 8.15625 21.478 8.96289 22.9138 10.3987C24.3496 11.8345 25.1562 13.7819 25.1562 15.8125C25.1562 17.8431 24.3496 19.7905 22.9138 21.2263C21.478 22.6621 19.5306 23.4688 17.5 23.4688C15.4694 23.4688 13.522 22.6621 12.0862 21.2263C10.6504 19.7905 9.84375 17.8431 9.84375 15.8125ZM17.5 10.3438C16.3653 10.3441 15.2588 10.6973 14.3338 11.3546C13.4089 12.0118 12.7112 12.9405 12.3377 14.0119C11.9641 15.0834 11.933 16.2445 12.2488 17.3344C12.5645 18.4242 13.2115 19.3889 14.1 20.0947C14.9885 20.8005 16.0745 21.2124 17.2076 21.2733C18.3407 21.3343 19.4646 21.0413 20.4237 20.435C21.3829 19.8287 22.1296 18.939 22.5605 17.8893C22.9915 16.8396 23.0852 15.6819 22.8287 14.5766C22.6645 15.1192 22.3624 15.6101 21.952 16.0012C21.5416 16.3924 21.0368 16.6705 20.4869 16.8085C19.937 16.9465 19.3607 16.9397 18.8142 16.7887C18.2677 16.6376 17.7697 16.3476 17.3686 15.9468C16.9676 15.546 16.6773 15.0481 16.526 14.5017C16.3747 13.9553 16.3675 13.379 16.5052 12.829C16.6429 12.279 16.9208 11.7741 17.3117 11.3634C17.7027 10.9528 18.1934 10.6505 18.7359 10.4859C18.3307 10.3917 17.916 10.344 17.5 10.3438Z" fill="white"/>
</svg>
