<svg width="35" height="36" viewBox="0 0 35 36" fill="none" xmlns="http://www.w3.org/2000/svg">
<path fill-rule="evenodd" clip-rule="evenodd" d="M28.6721 6.64851C30.4323 6.36559 32.0846 7.71018 32.0846 9.54184V23.5418C32.0846 25.3735 30.4338 26.7181 28.6721 26.4366C25.459 25.916 22.2138 25.6178 18.9596 25.5441V27.5304C19.9994 27.6018 20.9721 27.7346 21.7509 27.8643C22.3955 27.9708 23.0401 28.0933 23.6759 28.2493C24.443 28.4389 24.9417 29.2483 24.7492 30.0212C24.6552 30.3961 24.4163 30.7183 24.0848 30.9171C23.7534 31.1158 23.3567 31.175 22.9817 31.0814C22.4164 30.9469 21.8463 30.8336 21.2726 30.7416C20.0269 30.5244 18.7657 30.4088 17.5013 30.396C16.1538 30.396 14.7815 30.5652 13.7301 30.7402C13.1584 30.8364 12.5853 30.9429 12.0223 31.0814C11.6483 31.1723 11.2534 31.1116 10.9239 30.9125C10.5944 30.7134 10.357 30.3921 10.2635 30.0187C10.1699 29.6453 10.2278 29.25 10.4245 28.9191C10.6213 28.5882 10.9408 28.3485 11.3136 28.2523C11.9542 28.0972 12.6008 27.9678 13.2517 27.8643C14.0305 27.7331 15.0017 27.6018 16.043 27.5304V25.5441C12.7888 25.6178 9.54357 25.916 6.33047 26.4366C4.57026 26.7181 2.91797 25.3721 2.91797 23.5418V9.54184C2.91797 7.71018 4.5688 6.36559 6.33047 6.64851C13.7286 7.85738 21.274 7.85738 28.6721 6.64851ZM29.1432 9.52726H29.133C21.4295 10.785 13.5731 10.785 5.86964 9.52726H5.85359L5.83901 9.53601L5.83464 9.54184V23.5418L5.83901 23.5477L5.85359 23.555L5.85943 23.5564H5.86964C13.5731 22.2987 21.4295 22.2987 29.133 23.5564H29.149L29.1636 23.5477L29.168 23.5433V9.54184L29.1636 9.53601L29.149 9.52872L29.1432 9.52726Z" fill="white"/>
</svg>
