<svg width="35" height="36" viewBox="0 0 35 36" fill="none" xmlns="http://www.w3.org/2000/svg">
<g clip-path="url(#clip0_1_63887)">
<path d="M15.8594 3.23438V2.14062C15.8594 1.7055 16.0322 1.2882 16.3399 0.980528C16.6476 0.672851 17.0649 0.5 17.5 0.5C17.9351 0.5 18.3524 0.672851 18.6601 0.980528C18.9678 1.2882 19.1406 1.7055 19.1406 2.14062V3.23438C19.1406 3.6695 18.9678 4.0868 18.6601 4.39447C18.3524 4.70215 17.9351 4.875 17.5 4.875C17.0649 4.875 16.6476 4.70215 16.3399 4.39447C16.0322 4.0868 15.8594 3.6695 15.8594 3.23438ZM27.3438 8.15625C27.5593 8.15642 27.7727 8.11413 27.9719 8.03179C28.171 7.94945 28.352 7.82867 28.5045 7.67637L29.5982 6.58262C29.7509 6.43001 29.8719 6.24883 29.9545 6.04944C30.0371 5.85004 30.0796 5.63633 30.0796 5.42051C30.0796 5.20468 30.0371 4.99097 29.9545 4.79158C29.8719 4.59218 29.7509 4.41101 29.5982 4.2584C29.4456 4.10579 29.2645 3.98473 29.0651 3.90214C28.8657 3.81955 28.652 3.77704 28.4361 3.77704C28.2203 3.77704 28.0066 3.81955 27.8072 3.90214C27.6078 3.98473 27.4266 4.10579 27.274 4.2584L26.1803 5.35215C25.9495 5.58162 25.7921 5.87455 25.7282 6.1937C25.6644 6.51284 25.6969 6.84377 25.8216 7.14439C25.9463 7.44501 26.1577 7.70174 26.4287 7.88192C26.6998 8.0621 27.0183 8.1576 27.3438 8.15625ZM6.49551 7.67637C6.80372 7.98458 7.22174 8.15773 7.65762 8.15773C8.09349 8.15773 8.51152 7.98458 8.81973 7.67637C9.12794 7.36816 9.30109 6.95013 9.30109 6.51426C9.30109 6.07838 9.12794 5.66036 8.81973 5.35215L7.72598 4.2584C7.41777 3.95019 6.99974 3.77704 6.56387 3.77704C6.12799 3.77704 5.70997 3.95019 5.40176 4.2584C5.09355 4.56661 4.9204 4.98463 4.9204 5.42051C4.9204 5.85638 5.09355 6.27441 5.40176 6.58262L6.49551 7.67637ZM32.2656 24.5625V27.8438C32.2656 28.569 31.9775 29.2645 31.4647 29.7772C30.952 30.29 30.2565 30.5781 29.5312 30.5781H5.46875C4.74355 30.5781 4.04805 30.29 3.53525 29.7772C3.02246 29.2645 2.73438 28.569 2.73438 27.8438V24.5625C2.73425 23.9321 2.95191 23.3211 3.35054 22.8328C3.74916 22.3445 4.30425 22.0089 4.92188 21.8828V19.6406C4.92188 16.3047 6.24707 13.1054 8.60592 10.7465C10.9648 8.38769 14.1641 7.0625 17.5 7.0625H17.5971C24.4727 7.11445 30.0781 12.8184 30.0781 19.7773V21.8828C30.6957 22.0089 31.2508 22.3445 31.6495 22.8328C32.0481 23.3211 32.2658 23.9321 32.2656 24.5625ZM8.20312 19.6406V21.8281H26.7969V19.7773C26.7969 14.6135 22.6584 10.382 17.5711 10.3438H17.5C15.0343 10.3438 12.6696 11.3232 10.9261 13.0667C9.18261 14.8102 8.20312 17.1749 8.20312 19.6406ZM28.9844 25.1094H6.01562V27.2969H28.9844V25.1094ZM18.6484 15.9875C19.2368 16.1724 19.7718 16.4966 20.2079 16.9327C20.644 17.3688 20.9683 17.9038 21.1531 18.4922C21.2837 18.9074 21.5738 19.2537 21.9597 19.455C22.3455 19.6562 22.7956 19.696 23.2107 19.5654C23.6259 19.4349 23.9722 19.1448 24.1735 18.7589C24.3748 18.373 24.4145 17.923 24.284 17.5078C23.9405 16.416 23.3386 15.4233 22.5293 14.614C21.72 13.8048 20.7273 13.2028 19.6355 12.8594C19.2204 12.7288 18.7703 12.7686 18.3845 12.9698C17.9986 13.1711 17.7085 13.5174 17.5779 13.9326C17.4474 14.3478 17.4871 14.7978 17.6884 15.1837C17.8897 15.5696 18.236 15.8597 18.6512 15.9902L18.6484 15.9875Z" fill="white"/>
</g>
<defs>
<clipPath id="clip0_1_63887">
<rect width="35" height="35" fill="white" transform="translate(0 0.5)"/>
</clipPath>
</defs>
</svg>
