<svg width="35" height="36" viewBox="0 0 35 36" fill="none" xmlns="http://www.w3.org/2000/svg">
<path d="M7.68397 6.37109C8.49626 5.45525 9.81751 5.45525 10.6648 6.15525L10.8179 6.2938L17.8879 13.3623L18.0148 13.2355C18.2772 12.9739 18.6294 12.8221 18.9997 12.8108C19.3701 12.7994 19.7308 12.9295 20.0087 13.1746C20.2867 13.4196 20.4609 13.7613 20.496 14.1301C20.5311 14.499 20.4246 14.8673 20.1979 15.1605L20.0769 15.2975L19.95 15.4244L26.2894 21.7653C27.1236 22.5994 27.1848 24.0359 26.2121 24.9007C24.3773 26.5326 22.1203 27.6151 19.6992 28.0244L19.2019 28.0988L20.6311 30.0209C20.8002 30.2479 20.9062 30.5156 20.9384 30.7968C20.9706 31.0781 20.9278 31.3628 20.8143 31.6222C20.7008 31.8815 20.5208 32.1062 20.2924 32.2734C20.064 32.4407 19.7955 32.5445 19.514 32.5744L19.3448 32.5832H9.74897C9.5005 32.5833 9.2554 32.5257 9.033 32.4149C8.81059 32.3042 8.61695 32.1432 8.46735 31.9449C8.31775 31.7465 8.21628 31.5161 8.17093 31.2718C8.12559 31.0275 8.13761 30.776 8.20605 30.5371L8.26438 30.3694L10.0931 25.92C8.32953 24.716 6.88673 23.0994 5.89018 21.2107C4.89363 19.3221 4.3735 17.2186 4.37501 15.0832C4.37108 11.8714 5.54887 8.77043 7.68397 6.37109ZM12.6802 27.2953L11.7075 29.6665H16.7329L15.5386 28.0623C14.754 27.9443 13.9819 27.7554 13.2315 27.498L12.6802 27.2938V27.2953ZM9.34355 8.94359C7.86265 10.9093 7.14173 13.3438 7.31355 15.7989C7.48536 18.254 8.53834 20.5643 10.2786 22.3046C12.0188 24.0448 14.3292 25.0978 16.7843 25.2696C19.2394 25.4414 21.6739 24.7205 23.6396 23.2396L17.8879 17.488L15.6144 19.76C15.3393 20.0257 14.971 20.1727 14.5886 20.1694C14.2062 20.166 13.8405 20.0127 13.5701 19.7423C13.2997 19.4719 13.1463 19.1061 13.143 18.7238C13.1397 18.3414 13.2867 17.973 13.5523 17.698L15.8244 15.4244L9.34355 8.94359ZM20.5727 7.8688C21.6345 8.05576 22.6098 8.57414 23.3589 9.34961C24.1079 10.1251 24.5921 11.1178 24.7421 12.1855C24.7955 12.5547 24.7055 12.9303 24.4904 13.2352C24.2753 13.54 23.9516 13.7508 23.5858 13.8242C23.22 13.8976 22.84 13.8281 22.524 13.6299C22.2079 13.4316 21.9798 13.1198 21.8867 12.7586L21.8531 12.5909C21.7945 12.1725 21.6159 11.78 21.339 11.4609C21.0621 11.1418 20.6987 10.9098 20.2927 10.7928L20.0667 10.7417C19.6857 10.6744 19.3471 10.4585 19.1253 10.1416C18.9035 9.82458 18.8167 9.43248 18.884 9.0515C18.9513 8.67053 19.1672 8.3319 19.4841 8.1101C19.8011 7.8883 20.1917 7.8015 20.5727 7.8688ZM20.4167 3.4165C22.7373 3.4165 24.9629 4.33838 26.6039 5.97932C28.2448 7.62026 29.1667 9.84586 29.1667 12.1665C29.1663 12.5382 29.0239 12.8957 28.7688 13.166C28.5136 13.4363 28.1649 13.5989 27.7938 13.6207C27.4228 13.6425 27.0574 13.5218 26.7723 13.2832C26.4873 13.0446 26.3041 12.7062 26.2602 12.3371L26.25 12.1665C26.25 10.6194 25.6354 9.13568 24.5415 8.04171C23.4475 6.94775 21.9638 6.33317 20.4167 6.33317C20.0299 6.33317 19.659 6.17953 19.3855 5.90603C19.112 5.63254 18.9583 5.26161 18.9583 4.87484C18.9583 4.48806 19.112 4.11713 19.3855 3.84364C19.659 3.57015 20.0299 3.4165 20.4167 3.4165Z" fill="white"/>
</svg>
