<svg width="35" height="35" viewBox="0 0 35 35" fill="none" xmlns="http://www.w3.org/2000/svg">
<path d="M17.4984 5.60039C24.0784 5.60039 29.3984 10.9204 29.3984 17.5004C29.3984 24.0804 24.0784 29.4004 17.4984 29.4004C10.9184 29.4004 5.59844 24.0804 5.59844 17.5004C5.59844 10.9204 10.9184 5.60039 17.4984 5.60039ZM17.4984 28.0004C23.3084 28.0004 27.9984 23.3104 27.9984 17.5004C27.9984 11.6904 23.3084 7.00039 17.4984 7.00039C11.6884 7.00039 6.99844 11.6904 6.99844 17.5004C6.99844 23.3104 11.6884 28.0004 17.4984 28.0004Z" fill="#28374D"/>
<path d="M17.2881 10.71L24.0781 17.5L17.2881 24.29L16.3081 23.31L22.1181 17.5L16.3081 11.69L17.2881 10.71Z" fill="#28374D"/>
<path d="M23.1016 18.2002L11.2016 18.2002L11.2016 16.8002L23.1016 16.8002L23.1016 18.2002Z" fill="#28374D"/>
</svg>
