<svg width="40" height="40" viewBox="0 0 40 40" fill="none" xmlns="http://www.w3.org/2000/svg">
<mask id="mask0_1_101584" style="mask-type:luminance" maskUnits="userSpaceOnUse" x="2" y="2" width="36" height="36">
<path d="M19.9987 36.6666C22.1878 36.6693 24.3559 36.2394 26.3783 35.4017C28.4008 34.5639 30.2377 33.3348 31.7837 31.7849C33.3336 30.239 34.5627 28.402 35.4004 26.3795C36.2382 24.3571 36.6681 22.189 36.6654 19.9999C36.6681 17.8108 36.2382 15.6428 35.4004 13.6203C34.5627 11.5979 33.3336 9.76091 31.7837 8.21493C30.2377 6.66507 28.4008 5.43595 26.3783 4.59819C24.3559 3.76044 22.1878 3.33057 19.9987 3.33326C17.8096 3.33057 15.6416 3.76044 13.6191 4.59819C11.5967 5.43595 9.75969 6.66507 8.21371 8.21493C6.66384 9.76091 5.43473 11.5979 4.59697 13.6203C3.75922 15.6428 3.32934 17.8108 3.33204 19.9999C3.32934 22.189 3.75922 24.3571 4.59697 26.3795C5.43473 28.402 6.66384 30.239 8.21371 31.7849C9.75969 33.3348 11.5967 34.5639 13.6191 35.4017C15.6416 36.2394 17.8096 36.6693 19.9987 36.6666Z" fill="white" stroke="white" stroke-width="2" stroke-linejoin="round"/>
<path fill-rule="evenodd" clip-rule="evenodd" d="M19.9974 30.8332C20.5499 30.8332 21.0798 30.6137 21.4705 30.223C21.8612 29.8323 22.0807 29.3024 22.0807 28.7498C22.0807 28.1973 21.8612 27.6674 21.4705 27.2767C21.0798 26.886 20.5499 26.6665 19.9974 26.6665C19.4449 26.6665 18.915 26.886 18.5243 27.2767C18.1336 27.6674 17.9141 28.1973 17.9141 28.7498C17.9141 29.3024 18.1336 29.8323 18.5243 30.223C18.915 30.6137 19.4449 30.8332 19.9974 30.8332Z" fill="black"/>
<path d="M20 10V23.3333" stroke="black" stroke-width="2" stroke-linecap="round" stroke-linejoin="round"/>
</mask>
<g mask="url(#mask0_1_101584)">
<path d="M0 0H40V40H0V0Z" fill="white"/>
</g>
</svg>
