<svg width="35" height="35" viewBox="0 0 35 35" fill="none" xmlns="http://www.w3.org/2000/svg">
<path d="M12.0312 15.3125C13.4817 15.3125 14.8727 14.7363 15.8982 13.7107C16.9238 12.6852 17.5 11.2942 17.5 9.84375C17.5 8.39335 16.9238 7.00235 15.8982 5.97676C14.8727 4.95117 13.4817 4.375 12.0312 4.375C10.5808 4.375 9.18985 4.95117 8.16426 5.97676C7.13867 7.00235 6.5625 8.39335 6.5625 9.84375C6.5625 11.2942 7.13867 12.6852 8.16426 13.7107C9.18985 14.7363 10.5808 15.3125 12.0312 15.3125ZM29.5312 10.9375C29.5312 12.0978 29.0703 13.2106 28.2498 14.0311C27.4294 14.8516 26.3166 15.3125 25.1562 15.3125C23.9959 15.3125 22.8831 14.8516 22.0627 14.0311C21.2422 13.2106 20.7812 12.0978 20.7812 10.9375C20.7812 9.77718 21.2422 8.66438 22.0627 7.84391C22.8831 7.02344 23.9959 6.5625 25.1562 6.5625C26.3166 6.5625 27.4294 7.02344 28.2498 7.84391C29.0703 8.66438 29.5312 9.77718 29.5312 10.9375ZM17.5 17.5C18.3702 17.5 19.2048 17.8457 19.8202 18.4611C20.4355 19.0764 20.7812 19.911 20.7812 20.7812V20.9869C20.7616 21.5338 20.37 27.3438 12.0312 27.3438C3.28125 27.3438 3.28125 20.9453 3.28125 20.9453V20.7812C3.28125 19.911 3.62695 19.0764 4.24231 18.4611C4.85766 17.8457 5.69226 17.5 6.5625 17.5H17.5ZM27.5275 18.7709L28.1466 17.1303C28.7109 15.6428 30.4697 14.9078 31.9528 15.54L32.8016 15.9031C33.8363 16.345 34.6938 17.1456 34.8731 18.2219C35.8728 24.1828 30.6994 32.6616 24.745 34.825C23.6688 35.2144 22.5072 34.9125 21.5841 34.2869L20.8272 33.7728C20.5164 33.5635 20.2548 33.2893 20.0603 32.969C19.8659 32.6488 19.7432 32.2902 19.7008 31.9179C19.6583 31.5457 19.6972 31.1687 19.8146 30.8129C19.932 30.4571 20.1253 30.131 20.3809 29.8572L21.5731 28.5294C21.8532 28.221 22.2104 27.9929 22.608 27.8687C23.0057 27.7445 23.4292 27.7287 23.835 27.8228L26.5147 28.4572C28.6395 27.1301 29.7784 25.2634 29.9316 22.8572L28.0109 20.9759C27.7241 20.6956 27.5255 20.3375 27.4396 19.9457C27.3537 19.5539 27.3842 19.1456 27.5275 18.7709Z" fill="white"/>
</svg>
