<svg width="35" height="35" viewBox="0 0 35 35" fill="none" xmlns="http://www.w3.org/2000/svg">
<path d="M7.29167 18.9584L9.47917 12.3959H25.5208L27.7083 18.9584M25.5208 26.2501C24.9407 26.2501 24.3843 26.0196 23.974 25.6094C23.5638 25.1991 23.3333 24.6427 23.3333 24.0626C23.3333 23.4824 23.5638 22.926 23.974 22.5158C24.3843 22.1055 24.9407 21.8751 25.5208 21.8751C26.101 21.8751 26.6574 22.1055 27.0676 22.5158C27.4779 22.926 27.7083 23.4824 27.7083 24.0626C27.7083 24.6427 27.4779 25.1991 27.0676 25.6094C26.6574 26.0196 26.101 26.2501 25.5208 26.2501ZM9.47917 26.2501C8.89901 26.2501 8.34261 26.0196 7.93237 25.6094C7.52213 25.1991 7.29167 24.6427 7.29167 24.0626C7.29167 23.4824 7.52213 22.926 7.93237 22.5158C8.34261 22.1055 8.89901 21.8751 9.47917 21.8751C10.0593 21.8751 10.6157 22.1055 11.026 22.5158C11.4362 22.926 11.6667 23.4824 11.6667 24.0626C11.6667 24.6427 11.4362 25.1991 11.026 25.6094C10.6157 26.0196 10.0593 26.2501 9.47917 26.2501ZM27.5917 11.6667C27.3 10.8209 26.4833 10.2084 25.5208 10.2084H9.47917C8.51667 10.2084 7.7 10.8209 7.40833 11.6667L4.375 20.4167V32.0834C4.375 32.4702 4.52865 32.8411 4.80214 33.1146C5.07563 33.3881 5.44656 33.5417 5.83333 33.5417H7.29167C7.67844 33.5417 8.04937 33.3881 8.32286 33.1146C8.59635 32.8411 8.75 32.4702 8.75 32.0834V30.6251H26.25V32.0834C26.25 32.4702 26.4036 32.8411 26.6771 33.1146C26.9506 33.3881 27.3216 33.5417 27.7083 33.5417H29.1667C29.5534 33.5417 29.9244 33.3881 30.1979 33.1146C30.4714 32.8411 30.625 32.4702 30.625 32.0834V20.4167M10.2083 7.29175C10.7885 7.29175 11.3449 7.06128 11.7551 6.65104C12.1654 6.24081 12.3958 5.68441 12.3958 5.10425C12.3958 3.64591 10.2083 1.16675 10.2083 1.16675C10.2083 1.16675 8.02083 3.64591 8.02083 5.10425C8.02083 5.68441 8.2513 6.24081 8.66154 6.65104C9.07177 7.06128 9.62817 7.29175 10.2083 7.29175ZM17.5 7.29175C18.0802 7.29175 18.6366 7.06128 19.0468 6.65104C19.457 6.24081 19.6875 5.68441 19.6875 5.10425C19.6875 3.64591 17.5 1.16675 17.5 1.16675C17.5 1.16675 15.3125 3.64591 15.3125 5.10425C15.3125 5.68441 15.543 6.24081 15.9532 6.65104C16.3634 7.06128 16.9198 7.29175 17.5 7.29175ZM24.7917 7.29175C25.3718 7.29175 25.9282 7.06128 26.3385 6.65104C26.7487 6.24081 26.9792 5.68441 26.9792 5.10425C26.9792 3.64591 24.7917 1.16675 24.7917 1.16675C24.7917 1.16675 22.6042 3.64591 22.6042 5.10425C22.6042 5.68441 22.8346 6.24081 23.2449 6.65104C23.6551 7.06128 24.2115 7.29175 24.7917 7.29175Z" fill="white"/>
</svg>
