<svg width="35" height="35" viewBox="0 0 35 35" fill="none" xmlns="http://www.w3.org/2000/svg">
<path d="M7.28906 33.5416V30.6249C8.09115 30.6249 8.77802 30.9108 9.34969 31.4824C9.92135 32.0541 10.2067 32.7405 10.2057 33.5416H7.28906ZM13.1224 33.5416C13.1224 31.9374 12.5512 30.5642 11.4089 29.4218C10.2665 28.2794 8.89323 27.7083 7.28906 27.7083V24.7916C9.71962 24.7916 11.7856 25.6423 13.487 27.3437C15.1884 29.0451 16.0391 31.111 16.0391 33.5416H13.1224ZM18.9557 33.5416C18.9557 30.2846 17.8255 27.526 15.5651 25.2655C13.3047 23.0051 10.546 21.8749 7.28906 21.8749V18.9583C9.30642 18.9583 11.2023 19.3413 12.9766 20.1074C14.7509 20.8735 16.2943 21.9123 17.6068 23.2239C18.9193 24.5354 19.9586 26.0788 20.7247 27.8541C21.4908 29.6294 21.8734 31.5252 21.8724 33.5416H18.9557ZM17.4974 8.74992C17.9106 8.74992 18.2572 8.60992 18.5372 8.32992C18.8172 8.04992 18.9567 7.70381 18.9557 7.29159C18.9548 6.87936 18.8148 6.53325 18.5357 6.25325C18.2567 5.97325 17.9106 5.83325 17.4974 5.83325C17.0842 5.83325 16.7381 5.97325 16.4591 6.25325C16.18 6.53325 16.04 6.87936 16.0391 7.29159C16.0381 7.70381 16.1781 8.0504 16.4591 8.33138C16.74 8.61235 17.0861 8.75186 17.4974 8.74992ZM24.7891 33.5416C24.7891 31.111 24.3273 28.8326 23.4036 26.7064C22.48 24.5801 21.222 22.7266 19.6295 21.1458C18.037 19.5649 16.1839 18.3195 14.0703 17.4095C11.9567 16.4995 9.69628 16.0435 7.28906 16.0416V4.37492C7.28906 3.57284 7.5749 2.88645 8.14656 2.31575C8.71823 1.74506 9.40462 1.45922 10.2057 1.45825H24.7891C25.5911 1.45825 26.278 1.74409 26.8497 2.31575C27.4214 2.88742 27.7067 3.57381 27.7057 4.37492V8.89575C28.1432 9.06589 28.4957 9.33325 28.763 9.69784C29.0304 10.0624 29.1641 10.4756 29.1641 10.9374V13.8541C29.1641 14.3159 29.0304 14.7291 28.763 15.0937C28.4957 15.4583 28.1432 15.7256 27.7057 15.8958V30.6249C27.7057 31.427 27.4204 32.1139 26.8497 32.6855C26.279 33.2572 25.5921 33.5426 24.7891 33.5416Z" fill="white"/>
</svg>
