<svg width="35" height="35" viewBox="0 0 35 35" fill="none" xmlns="http://www.w3.org/2000/svg">
<path d="M5.83073 17.5C5.83073 18.4236 5.93427 19.3292 6.14135 20.2169C6.34844 21.1045 6.65809 21.9367 7.07031 22.7135C7.26476 23.0781 7.31337 23.467 7.21615 23.8802C7.11892 24.2934 6.91233 24.6094 6.59635 24.8281C6.25608 25.0712 5.89781 25.1383 5.52156 25.0294C5.14531 24.9205 4.84733 24.6833 4.6276 24.3177C4.06858 23.2726 3.64323 22.1847 3.35156 21.054C3.0599 19.9233 2.91406 18.7386 2.91406 17.5C2.91406 16.2614 3.0599 15.0641 3.35156 13.9081C3.64323 12.7522 4.06858 11.6647 4.6276 10.6458C4.84635 10.2813 5.14434 10.0503 5.52156 9.95312C5.89878 9.8559 6.25705 9.92882 6.59635 10.1719C6.91233 10.3906 7.11892 10.7066 7.21615 11.1198C7.31337 11.533 7.26476 11.9219 7.07031 12.2865C6.65712 13.0642 6.34698 13.8969 6.1399 14.7846C5.93281 15.6722 5.82976 16.5774 5.83073 17.5ZM17.4974 26.25C15.0668 26.25 13.0009 25.3993 11.2995 23.6979C9.59809 21.9965 8.7474 19.9306 8.7474 17.5C8.7474 15.0694 9.59809 13.0035 11.2995 11.3021C13.0009 9.60069 15.0668 8.75 17.4974 8.75C19.9279 8.75 21.9939 9.60069 23.6953 11.3021C25.3967 13.0035 26.2474 15.0694 26.2474 17.5C26.2474 19.9306 25.3967 21.9965 23.6953 23.6979C21.9939 25.3993 19.9279 26.25 17.4974 26.25ZM29.1641 17.5C29.1641 16.5764 29.0605 15.6712 28.8534 14.7846C28.6464 13.8979 28.3367 13.0652 27.9245 12.2865C27.73 11.9219 27.6756 11.533 27.7611 11.1198C27.8467 10.7066 28.047 10.3906 28.362 10.1719C28.7023 9.92882 29.0668 9.8559 29.4557 9.95312C29.8446 10.0503 30.1484 10.2813 30.3672 10.6458C30.9262 11.6667 31.3516 12.7546 31.6432 13.9096C31.9349 15.0646 32.0807 16.2614 32.0807 17.5C32.0807 18.7386 31.9349 19.9237 31.6432 21.0554C31.3516 22.1871 30.9262 23.2745 30.3672 24.3177C30.1484 24.6823 29.8446 24.9195 29.4557 25.0294C29.0668 25.1392 28.7023 25.0722 28.362 24.8281C28.046 24.6094 27.8457 24.2934 27.7611 23.8802C27.6766 23.467 27.731 23.0781 27.9245 22.7135C28.3377 21.9358 28.6478 21.1035 28.8549 20.2169C29.062 19.3302 29.165 18.4246 29.1641 17.5Z" fill="white"/>
</svg>
