<svg width="122" height="47" viewBox="0 0 122 47" fill="none" xmlns="http://www.w3.org/2000/svg">
<path d="M81.0633 34.2083V21.6797H72.2836V15.7902H97.5431L96.557 18.7082L95.5709 21.6262L91.7434 21.6545L87.9157 21.6825V46.7369H81.0632L81.0633 34.2083ZM50.013 31.2036V15.7774L56.7852 15.8207C64.0829 15.8674 64.0113 15.8623 65.6757 16.4664C66.7953 16.8728 67.5489 17.3731 68.5527 18.3761C69.3228 19.145 69.5626 19.4716 69.9692 20.3036C70.6108 21.6159 70.8362 22.7347 70.753 24.1941C70.6109 26.6876 69.4082 28.7734 67.466 29.8949L66.9017 30.2207L67.7811 30.6781C68.8424 31.2304 70.1565 32.423 70.7646 33.3858C71.9166 35.2103 72.251 37.8477 71.6387 40.2822C71.5235 40.7403 71.2072 41.5663 70.9356 42.1179C70.531 42.9397 70.2835 43.2779 69.5635 43.9919C68.5581 44.9888 67.8385 45.4497 66.5207 45.9412C64.7573 46.5989 64.32 46.6297 56.7932 46.6297H50.013V31.2036ZM62.3523 40.4908C63.0198 40.1642 63.3872 39.7865 63.765 39.0386C64.6935 37.2002 64.1457 34.7588 62.6311 33.9861C62.039 33.6839 60.7416 33.5533 58.6856 33.5888L56.9189 33.6195L56.8906 37.099C56.8751 39.0125 56.8879 40.6447 56.9189 40.7259C56.9655 40.8466 57.4048 40.8655 59.3606 40.8305C61.709 40.7885 61.7551 40.7834 62.3522 40.491L62.3523 40.4908ZM61.8201 27.5615C63.4801 26.9998 64.1604 24.411 63.0358 22.9364C62.3234 22.0025 61.5111 21.7869 58.7038 21.7869H56.8654V27.81L59.1406 27.7543C60.5585 27.7195 61.5681 27.647 61.82 27.5617L61.8201 27.5615ZM99.2653 31.1566V15.6833H109.598C115.281 15.6833 119.93 15.7197 119.931 15.7636C119.931 15.808 119.489 17.1331 118.949 18.7083L117.966 21.5728H106.225V27.3267L109.303 27.3856C111.349 27.4247 112.706 27.5002 113.351 27.6112C116.767 28.1988 119.017 29.7261 120.311 32.3346C121.097 33.9212 121.253 34.6818 121.253 36.9391C121.254 38.6756 121.226 38.9683 120.978 39.8914C119.952 43.6957 117.089 45.9747 112.652 46.519C112.119 46.5843 109.167 46.6303 105.505 46.6303H99.2653V31.157V31.1566ZM110.585 40.6333C112.243 40.4181 113.165 39.5567 113.506 37.9038C113.871 36.1375 113.201 34.3838 111.915 33.7358C111.127 33.3393 110.423 33.2449 108.254 33.2449H106.225V40.7406L108.018 40.7374C109.005 40.7356 110.16 40.6889 110.585 40.6335L110.585 40.6333ZM10.8227 31.0302C9.44547 30.0933 6.71658 27.4884 5.39234 25.8464C3.37621 23.3468 1.71556 20.3156 0.655349 17.1995C0.131776 15.6608 0.128993 15.7175 0.830622 13.756C1.79104 11.0714 3.48168 8.03525 5.30294 5.72485C6.21796 4.56387 8.89481 1.92216 10.0601 1.03006L11.0612 0.263672H38.2184L37.9486 1.1471C37.8004 1.63325 37.5358 2.40424 37.3608 2.86041L37.0424 3.69029H12.0144L11.3932 4.215C11.0592 4.49679 10.7272 4.78092 10.3972 5.06737L10.0225 5.39504L23.1118 5.39932C30.3112 5.40178 36.2011 5.42523 36.2011 5.45147C36.2011 5.53542 35.4398 6.81676 34.7822 7.8394L34.1455 8.82947L20.5929 8.85667L7.04015 8.88387L6.52867 9.63345C6.24729 10.0457 6.01506 10.4434 6.01238 10.5169C6.00863 10.6234 8.73667 10.6507 19.3087 10.6507H32.6094L31.7554 11.5149C31.2854 11.9901 30.4628 12.737 29.927 13.1746L28.9527 13.9703H4.20718L3.88811 14.8533L3.56937 15.7362L3.8895 16.6429C5.29052 20.6129 7.78899 24.3469 10.8531 27.0513L11.6837 27.784H22.7111C28.7763 27.784 33.7387 27.7684 33.7387 27.749C33.7387 27.6382 33.1217 26.2247 32.7543 25.4939C31.7515 23.4989 30.4645 21.7229 28.8469 20.1015L27.8593 19.1115L17.3349 19.0843L6.8107 19.057L6.32888 18.0885C6.06399 17.5558 5.74075 16.8209 5.61065 16.4555L5.37403 15.7911H29.0155L30.5847 17.3131C33.6041 20.2414 35.6859 23.2849 37.0036 26.6973C37.4165 27.7667 37.954 29.7517 38.0735 30.6486L38.1485 31.2108H24.6176C12.1161 31.2108 11.0668 31.1971 10.8224 31.0309L10.8227 31.0302Z" fill="white"/>
</svg>
