<svg width="35" height="35" viewBox="0 0 35 35" fill="none" xmlns="http://www.w3.org/2000/svg">
<path d="M10.2104 7.29159H33.5438V13.1249H32.0854V14.5833H23.3354C22.9486 14.5833 22.5777 14.7369 22.3042 15.0104C22.0307 15.2839 21.8771 15.6548 21.8771 16.0416V17.4999C21.8771 18.2735 21.5698 19.0153 21.0228 19.5623C20.4758 20.1093 19.734 20.4166 18.9604 20.4166H14.0312C13.4771 20.4166 12.9667 20.7374 12.7188 21.2333L9.14583 28.3645C8.89792 28.8603 8.40208 29.1666 7.84792 29.1666H2.91875C2.91875 29.1666 -1.45625 29.1666 4.37708 20.4166C4.37708 20.4166 8.75208 14.5833 2.91875 14.5833V7.29159H4.37708L5.10625 5.83325H9.48125L10.2104 7.29159ZM20.4188 17.4999V16.0416C20.4188 15.6548 20.2651 15.2839 19.9916 15.0104C19.7181 14.7369 19.3472 14.5833 18.9604 14.5833H17.5021C17.5021 14.5833 16.0438 16.0416 17.5021 17.4999C16.7285 17.4999 15.9867 17.1926 15.4397 16.6456C14.8927 16.0987 14.5854 15.3568 14.5854 14.5833C14.1986 14.5833 13.8277 14.7369 13.5542 15.0104C13.2807 15.2839 13.1271 15.6548 13.1271 16.0416V17.4999C13.1271 17.8867 13.2807 18.2576 13.5542 18.5311C13.8277 18.8046 14.1986 18.9583 14.5854 18.9583H18.9604C19.3472 18.9583 19.7181 18.8046 19.9916 18.5311C20.2651 18.2576 20.4188 17.8867 20.4188 17.4999Z" fill="white"/>
</svg>
