<svg width="35" height="35" viewBox="0 0 35 35" fill="none" xmlns="http://www.w3.org/2000/svg">
<path d="M15.8594 2.73438V1.64062C15.8594 1.2055 16.0322 0.788205 16.3399 0.480528C16.6476 0.172851 17.0649 0 17.5 0C17.9351 0 18.3524 0.172851 18.6601 0.480528C18.9678 0.788205 19.1406 1.2055 19.1406 1.64062V2.73438C19.1406 3.1695 18.9678 3.5868 18.6601 3.89447C18.3524 4.20215 17.9351 4.375 17.5 4.375C17.0649 4.375 16.6476 4.20215 16.3399 3.89447C16.0322 3.5868 15.8594 3.1695 15.8594 2.73438ZM27.3438 7.65625C27.5593 7.65642 27.7727 7.61413 27.9719 7.53179C28.171 7.44945 28.352 7.32867 28.5045 7.17637L29.5982 6.08262C29.7509 5.93001 29.8719 5.74883 29.9545 5.54944C30.0371 5.35004 30.0796 5.13633 30.0796 4.92051C30.0796 4.70468 30.0371 4.49097 29.9545 4.29158C29.8719 4.09218 29.7509 3.91101 29.5982 3.7584C29.4456 3.60579 29.2645 3.48473 29.0651 3.40214C28.8657 3.31955 28.652 3.27704 28.4361 3.27704C28.2203 3.27704 28.0066 3.31955 27.8072 3.40214C27.6078 3.48473 27.4266 3.60579 27.274 3.7584L26.1803 4.85215C25.9495 5.08162 25.7921 5.37455 25.7282 5.6937C25.6644 6.01284 25.6969 6.34377 25.8216 6.64439C25.9463 6.94501 26.1577 7.20174 26.4287 7.38192C26.6998 7.5621 27.0183 7.6576 27.3438 7.65625ZM6.49551 7.17637C6.80372 7.48458 7.22174 7.65773 7.65762 7.65773C8.09349 7.65773 8.51152 7.48458 8.81973 7.17637C9.12794 6.86816 9.30109 6.45013 9.30109 6.01426C9.30109 5.57838 9.12794 5.16036 8.81973 4.85215L7.72598 3.7584C7.41777 3.45019 6.99974 3.27704 6.56387 3.27704C6.12799 3.27704 5.70997 3.45019 5.40176 3.7584C5.09355 4.06661 4.9204 4.48463 4.9204 4.92051C4.9204 5.35638 5.09355 5.77441 5.40176 6.08262L6.49551 7.17637ZM32.2656 24.0625V27.3438C32.2656 28.069 31.9775 28.7645 31.4647 29.2772C30.952 29.79 30.2565 30.0781 29.5312 30.0781H5.46875C4.74355 30.0781 4.04805 29.79 3.53525 29.2772C3.02246 28.7645 2.73438 28.069 2.73438 27.3438V24.0625C2.73425 23.4321 2.95191 22.8211 3.35054 22.3328C3.74916 21.8445 4.30425 21.5089 4.92188 21.3828V19.1406C4.92188 15.8047 6.24707 12.6054 8.60592 10.2465C10.9648 7.88769 14.1641 6.5625 17.5 6.5625H17.5971C24.4727 6.61445 30.0781 12.3184 30.0781 19.2773V21.3828C30.6957 21.5089 31.2508 21.8445 31.6495 22.3328C32.0481 22.8211 32.2658 23.4321 32.2656 24.0625ZM8.20312 19.1406V21.3281H26.7969V19.2773C26.7969 14.1135 22.6584 9.88203 17.5711 9.84375H17.5C15.0343 9.84375 12.6696 10.8232 10.9261 12.5667C9.18261 14.3102 8.20312 16.6749 8.20312 19.1406ZM28.9844 24.6094H6.01562V26.7969H28.9844V24.6094ZM18.6484 15.4875C19.2368 15.6724 19.7718 15.9966 20.2079 16.4327C20.644 16.8688 20.9683 17.4038 21.1531 17.9922C21.2837 18.4074 21.5738 18.7537 21.9597 18.955C22.3455 19.1562 22.7956 19.196 23.2107 19.0654C23.6259 18.9349 23.9722 18.6448 24.1735 18.2589C24.3748 17.873 24.4145 17.423 24.284 17.0078C23.9405 15.916 23.3386 14.9233 22.5293 14.114C21.72 13.3048 20.7273 12.7028 19.6355 12.3594C19.2204 12.2288 18.7703 12.2686 18.3845 12.4698C17.9986 12.6711 17.7085 13.0174 17.5779 13.4326C17.4474 13.8478 17.4871 14.2978 17.6884 14.6837C17.8897 15.0696 18.236 15.3597 18.6512 15.4902L18.6484 15.4875Z" fill="white"/>
</svg>
