<svg width="37" height="37" viewBox="0 0 37 37" fill="none" xmlns="http://www.w3.org/2000/svg">
<path d="M18.4974 30.679C20.9898 29.9082 23.071 28.3861 24.7411 26.1126C26.4113 23.8392 27.3877 21.3016 27.6703 18.4999H18.4974V6.35924L9.2474 9.82799V17.8061C9.2474 17.986 9.27309 18.2172 9.32448 18.4999H18.4974V30.679ZM18.4974 33.7624C18.3175 33.7624 18.1505 33.7495 17.9964 33.7238C17.8422 33.6981 17.688 33.6596 17.5339 33.6082C14.0651 32.452 11.303 30.3132 9.2474 27.1918C7.19184 24.0704 6.16406 20.7106 6.16406 17.1124V9.82799C6.16406 9.18563 6.3506 8.60751 6.72369 8.09362C7.09677 7.57973 7.57828 7.20716 8.16823 6.97591L17.4182 3.50716C17.778 3.37869 18.1377 3.31445 18.4974 3.31445C18.8571 3.31445 19.2168 3.37869 19.5766 3.50716L28.8266 6.97591C29.4175 7.20716 29.8996 7.57973 30.2726 8.09362C30.6457 8.60751 30.8318 9.18563 30.8307 9.82799V17.1124C30.8307 20.7096 29.8029 24.0694 27.7474 27.1918C25.6918 30.3142 22.9297 32.453 19.4609 33.6082C19.3068 33.6596 19.1526 33.6981 18.9984 33.7238C18.8443 33.7495 18.6773 33.7624 18.4974 33.7624Z" fill="white"/>
</svg>
