<svg width="32" height="32" viewBox="0 0 32 32" fill="none" xmlns="http://www.w3.org/2000/svg">
<g clip-path="url(#clip0_1_23141)">
<path fill-rule="evenodd" clip-rule="evenodd" d="M4.57366 0.856934C2.52337 0.856934 0.859375 2.52093 0.859375 4.57122V10.6855C0.859121 15.195 2.27774 19.5903 4.91429 23.2487C7.55084 26.9071 11.2717 29.6433 15.5497 31.0695C15.8433 31.1685 16.1612 31.1685 16.4548 31.0695C20.7328 29.6433 24.4536 26.9071 27.0902 23.2487C29.7267 19.5903 31.1453 15.195 31.1451 10.6855V4.57122C31.1451 2.52093 29.4834 0.856934 27.4308 0.856934H4.57366ZM3.71652 4.57122C3.71652 4.09808 4.10052 3.71408 4.57366 3.71408H27.4308C27.9039 3.71408 28.2879 4.09808 28.2879 4.57122V10.6855C28.289 14.6631 27.0152 18.5363 24.6537 21.7369C22.3207 19.5171 19.2225 18.2811 16.0022 18.2855C12.6491 18.2855 9.60223 19.5998 7.34852 21.7369C4.98774 18.536 3.71484 14.6628 3.71652 10.6855V4.57122ZM16.0022 7.99979C15.1687 7.99979 14.3693 8.33091 13.7799 8.92031C13.1905 9.50971 12.8594 10.3091 12.8594 11.1426C12.8594 11.9762 13.1905 12.7756 13.7799 13.365C14.3693 13.9544 15.1687 14.2855 16.0022 14.2855C16.8358 14.2855 17.6352 13.9544 18.2246 13.365C18.814 12.7756 19.1451 11.9762 19.1451 11.1426C19.1451 10.3091 18.814 9.50971 18.2246 8.92031C17.6352 8.33091 16.8358 7.99979 16.0022 7.99979ZM10.0022 11.1426C10.0022 9.55135 10.6344 8.02523 11.7596 6.90001C12.8848 5.77479 14.4109 5.14265 16.0022 5.14265C17.5935 5.14265 19.1197 5.77479 20.2449 6.90001C21.3701 8.02523 22.0022 9.55135 22.0022 11.1426C22.0022 12.7339 21.3701 14.2601 20.2449 15.3853C19.1197 16.5105 17.5935 17.1426 16.0022 17.1426C14.4109 17.1426 12.8848 16.5105 11.7596 15.3853C10.6344 14.2601 10.0022 12.7339 10.0022 11.1426Z" fill="white"/>
</g>
<defs>
<clipPath id="clip0_1_23141">
<rect width="32" height="32" fill="white"/>
</clipPath>
</defs>
</svg>
