<svg width="35" height="36" viewBox="0 0 35 36" fill="none" xmlns="http://www.w3.org/2000/svg">
<g clip-path="url(#clip0_1_23159)">
<path d="M3.88912 19.7H0.972542M3.88912 26.1H0.972542M34.0271 19.7H31.1105M34.0271 26.1H31.1105M20.4125 0.5H14.5891C11.4431 0.5 9.87005 0.5 8.7948 1.284C6.57432 2.9048 6.85625 7.1752 6.4596 9.5144C6.36409 10.1144 6.00859 10.6658 5.45847 11.0674C4.90834 11.4689 4.20056 11.6936 3.46524 11.7C3.12443 11.7013 2.79421 11.7976 2.52835 11.9731C2.26249 12.1485 2.07666 12.3929 2.00112 12.6664C0.640052 17.4312 -2.0782 26.6936 2.75165 30.6728C4.96825 32.5 7.90427 32.5 13.7744 32.5H21.2253C27.0954 32.5 30.0294 32.5 32.2499 30.6728C37.0778 26.6936 34.3596 17.4312 32.9985 12.6664C32.9231 12.3932 32.7375 12.149 32.472 11.9736C32.2066 11.7981 31.8768 11.7017 31.5363 11.7C30.801 11.6936 30.0932 11.4689 29.5431 11.0674C28.993 10.6658 28.6375 10.1144 28.542 9.5144C28.1434 7.1752 28.4253 2.9048 26.2029 1.2824C25.1315 0.5 23.5585 0.5 20.4125 0.5Z" stroke="white" stroke-width="2.5" stroke-linecap="round" stroke-linejoin="round"/>
<path d="M23.3313 0.5C23.3313 1.77304 22.7168 2.99394 21.6229 3.89411C20.5289 4.79429 19.0452 5.3 17.4982 5.3C15.9511 5.3 14.4675 4.79429 13.3735 3.89411C12.2796 2.99394 11.665 1.77304 11.665 0.5M12.7928 19.028C14.2997 17.7896 20.6967 17.7896 22.2036 19.028C23.7086 20.268 23.7086 25.532 22.2036 26.772C20.6967 28.0088 14.2997 28.0088 12.7928 26.772C11.2878 25.532 11.2878 20.268 12.7928 19.028Z" stroke="white" stroke-width="2.5" stroke-linecap="round" stroke-linejoin="round"/>
</g>
<defs>
<clipPath id="clip0_1_23159">
<rect width="35" height="35" fill="white" transform="translate(0 0.5)"/>
</clipPath>
</defs>
</svg>
