<svg width="50" height="50" viewBox="0 0 50 50" fill="none" xmlns="http://www.w3.org/2000/svg">
<path d="M48.4371 26.5625C48.0227 26.5625 47.6253 26.7271 47.3322 27.0202C47.0392 27.3132 46.8746 27.7106 46.8746 28.125V31.25H38.1461L34.5699 27.668L44.4019 17.834C44.9875 17.248 45.3165 16.4535 45.3165 15.625C45.3165 14.7966 44.9875 14.002 44.4019 13.416L37.0426 6.0547L33.4586 2.47853C33.1684 2.18827 32.8238 1.95802 32.4447 1.80093C32.0655 1.64384 31.659 1.56299 31.2486 1.56299C30.8382 1.56299 30.4317 1.64384 30.0526 1.80093C29.6734 1.95802 29.3288 2.18827 29.0386 2.47853L0.5699 31.043C0.297386 31.3164 0.111984 31.6643 0.0371041 32.043C-0.037776 32.4217 0.00122398 32.814 0.149179 33.1705C0.297135 33.5271 0.547411 33.8317 0.868405 34.0461C1.1894 34.2605 1.56672 34.3749 1.95271 34.375H9.64217L16.5406 41.2715C17.1266 41.8571 17.9211 42.1861 18.7496 42.1861C19.578 42.1861 20.3726 41.8571 20.9586 41.2715L32.3551 29.8828L35.9371 33.459C36.2262 33.7504 36.5704 33.9815 36.9496 34.1388C37.3288 34.296 37.7355 34.3763 38.1461 34.375H46.8746V37.5C46.8746 37.9144 47.0392 38.3118 47.3322 38.6049C47.6253 38.8979 48.0227 39.0625 48.4371 39.0625C48.8515 39.0625 49.2489 38.8979 49.5419 38.6049C49.835 38.3118 49.9996 37.9144 49.9996 37.5V28.125C49.9996 27.7106 49.835 27.3132 49.5419 27.0202C49.2489 26.7271 48.8515 26.5625 48.4371 26.5625ZM31.2496 4.68752L33.7281 7.16603L9.64217 31.25H4.77693L31.2496 4.68752Z" fill="white"/>
</svg>
