<svg width="50" height="50" viewBox="0 0 50 50" fill="none" xmlns="http://www.w3.org/2000/svg">
<path d="M22.9141 4.1665C20.1514 4.1665 17.5019 5.26397 15.5484 7.21748C13.5949 9.17098 12.4974 11.8205 12.4974 14.5832C12.4974 17.3458 13.5949 19.9954 15.5484 21.9489C17.5019 23.9024 20.1514 24.9998 22.9141 24.9998C25.6767 24.9998 28.3263 23.9024 30.2798 21.9489C32.2333 19.9954 33.3307 17.3458 33.3307 14.5832C33.3307 11.8205 32.2333 9.17098 30.2798 7.21748C28.3263 5.26397 25.6767 4.1665 22.9141 4.1665ZM22.9141 27.0832C17.9245 27.0832 13.3828 28.529 10.0432 30.5665C8.37656 31.5832 6.95156 32.7832 5.9224 34.0873C4.9099 35.3665 4.16406 36.9019 4.16406 38.5415C4.16406 40.3019 5.02031 41.6894 6.25365 42.679C7.42031 43.6165 8.9599 44.2373 10.5953 44.6707C13.8828 45.5394 18.2703 45.8332 22.9141 45.8332L24.3411 45.8228C24.6901 45.818 25.0322 45.7256 25.3361 45.5542C25.64 45.3827 25.896 45.1377 26.0806 44.8416C26.2652 44.5454 26.3724 44.2077 26.3924 43.8593C26.4125 43.5109 26.3447 43.1631 26.1953 42.8478C25.4053 41.1757 24.9962 39.3491 24.9974 37.4998C24.9974 34.8915 25.7953 32.4748 27.1578 30.4728C27.3603 30.1752 27.4823 29.8303 27.5119 29.4716C27.5415 29.1129 27.4776 28.7527 27.3265 28.426C27.1755 28.0994 26.9424 27.8174 26.6499 27.6076C26.3575 27.3978 26.0157 27.2674 25.6578 27.229C24.7606 27.1318 23.846 27.0832 22.9141 27.0832ZM38.1557 29.2728C37.7284 29.1304 37.2664 29.1304 36.8391 29.2728L30.5891 31.3561C30.1741 31.4943 29.8131 31.7597 29.5573 32.1145C29.3015 32.4694 29.164 32.8957 29.1641 33.3332V36.8144C29.1638 39.0428 29.9852 41.193 31.4713 42.8536C32.9573 44.5141 35.0035 45.5683 37.2182 45.8144C37.4057 45.8353 37.5918 45.8353 37.7766 45.8144C39.9913 45.5683 42.0375 44.5141 43.5235 42.8536C45.0096 41.193 45.831 39.0428 45.8307 36.8144V33.3332C45.8308 32.8957 45.6933 32.4694 45.4375 32.1145C45.1817 31.7597 44.8207 31.4943 44.4057 31.3561L38.1557 29.2728Z" fill="white"/>
</svg>
