<svg width="24" height="24" viewBox="0 0 24 24" fill="none" xmlns="http://www.w3.org/2000/svg">
<path d="M6 23C5.71667 23 5.47934 22.904 5.288 22.712C5.09667 22.52 5.00067 22.2827 5 22C4.99934 21.7173 5.09534 21.48 5.288 21.288C5.48067 21.096 5.718 21 6 21C6.282 21 6.51967 21.096 6.713 21.288C6.90634 21.48 7.002 21.7173 7 22C6.998 22.2827 6.902 22.5203 6.712 22.713C6.522 22.9057 6.28467 23.0013 6 23ZM7.825 20.175C7.575 19.925 7.296 19.7083 6.988 19.525C6.68 19.3417 6.35067 19.2083 6 19.125C5.71667 19.0417 5.47934 18.904 5.288 18.712C5.09667 18.52 5.00067 18.2827 5 18C4.99934 17.7173 5.09934 17.48 5.3 17.288C5.50067 17.096 5.734 17.025 6 17.075C6.61667 17.175 7.20434 17.371 7.763 17.663C8.32167 17.955 8.81734 18.3173 9.25 18.75C9.68267 19.1827 10.0453 19.6787 10.338 20.238C10.6307 20.7973 10.8263 21.3847 10.925 22C10.975 22.2667 10.904 22.5 10.712 22.7C10.52 22.9 10.2827 23 10 23C9.71734 23 9.48 22.904 9.288 22.712C9.096 22.52 8.95834 22.2827 8.875 22C8.79167 21.65 8.65834 21.321 8.475 21.013C8.29167 20.705 8.075 20.4257 7.825 20.175ZM10.65 17.35C10.0167 16.7167 9.30434 16.2043 8.513 15.813C7.72167 15.4217 6.884 15.1673 6 15.05C5.71667 15.0167 5.47934 14.9043 5.288 14.713C5.09667 14.5217 5.00067 14.284 5 14C4.99934 13.716 5.09934 13.4787 5.3 13.288C5.50067 13.0973 5.74234 13.018 6.025 13.05C7.175 13.1667 8.26667 13.4707 9.3 13.962C10.3333 14.4533 11.2583 15.1077 12.075 15.925C12.8917 16.7423 13.5377 17.6673 14.013 18.7C14.4883 19.7327 14.7923 20.8243 14.925 21.975C14.9583 22.2583 14.8833 22.5 14.7 22.7C14.5167 22.9 14.2833 23 14 23C13.7167 23 13.475 22.9043 13.275 22.713C13.075 22.5217 12.9583 22.284 12.925 22C12.8083 21.1167 12.5583 20.2793 12.175 19.488C11.7917 18.6967 11.2833 17.984 10.65 17.35ZM12 6C12.2833 6 12.521 5.904 12.713 5.712C12.905 5.52 13.0007 5.28267 13 5C12.9993 4.71733 12.9033 4.48 12.712 4.288C12.5207 4.096 12.2833 4 12 4C11.7167 4 11.4793 4.096 11.288 4.288C11.0967 4.48 11.0007 4.71733 11 5C10.9993 5.28267 11.0953 5.52033 11.288 5.713C11.4807 5.90567 11.718 6.00133 12 6ZM19 10.9V21.975C19 22.275 18.904 22.5377 18.712 22.763C18.52 22.9883 18.2827 23.1007 18 23.1C17.7173 23.0993 17.484 23.0077 17.3 22.825C17.116 22.6423 17.0077 22.409 16.975 22.125C16.7583 19.125 15.6 16.5793 13.5 14.488C11.4 12.3967 8.85 11.2423 5.85 11.025C5.61667 11.0083 5.41667 10.921 5.25 10.763C5.08334 10.605 5 10.409 5 10.175V3C5 2.45 5.196 1.97933 5.588 1.588C5.98 1.19667 6.45067 1.00067 7 1H17C17.55 1 18.021 1.196 18.413 1.588C18.805 1.98 19.0007 2.45067 19 3V6.1C19.3 6.21667 19.5417 6.4 19.725 6.65C19.9083 6.9 20 7.18333 20 7.5V9.5C20 9.81667 19.9083 10.1 19.725 10.35C19.5417 10.6 19.3 10.7833 19 10.9Z" fill="white"/>
</svg>
