<svg width="24" height="19" viewBox="0 0 24 19" fill="none" xmlns="http://www.w3.org/2000/svg">
<path d="M12.1275 3.16172L8.4975 6.07109C7.89375 6.55352 7.7775 7.42188 8.235 8.0416C8.71875 8.70215 9.66 8.83203 10.3088 8.33105L14.0325 5.46621C14.295 5.26582 14.67 5.31035 14.8763 5.57012C15.0825 5.82988 15.0338 6.20098 14.7713 6.40508L13.9875 7.00625L19.2 11.7562V4.75H19.1737L19.0275 4.65723L16.305 2.93164C15.7312 2.56797 15.06 2.375 14.3775 2.375C13.56 2.375 12.765 2.65332 12.1275 3.16172ZM12.9825 7.77813L11.0438 9.26992C9.8625 10.1828 8.14875 9.94531 7.26375 8.74297C6.43125 7.61113 6.64125 6.03027 7.74 5.15078L10.86 2.65332C10.425 2.47148 9.95625 2.37871 9.48 2.37871C8.775 2.375 8.08875 2.58281 7.5 2.96875L4.8 4.75V13.0625H5.8575L9.285 16.1574C10.02 16.8217 11.1562 16.7697 11.8275 16.0424C12.0338 15.816 12.1725 15.5525 12.2438 15.2779L12.8813 15.8568C13.6125 16.5211 14.7525 16.4729 15.4237 15.7492C15.5925 15.5674 15.7163 15.3559 15.795 15.1369C16.5225 15.6193 17.5125 15.5191 18.1238 14.8586C18.795 14.135 18.7463 13.0068 18.015 12.3426L12.9825 7.77813ZM0.6 4.75C0.27 4.75 0 5.01719 0 5.34375V13.0625C0 13.7193 0.53625 14.25 1.2 14.25H2.4C3.06375 14.25 3.6 13.7193 3.6 13.0625V4.75H0.6ZM1.8 11.875C1.95913 11.875 2.11174 11.9376 2.22426 12.0489C2.33679 12.1603 2.4 12.3113 2.4 12.4688C2.4 12.6262 2.33679 12.7772 2.22426 12.8886C2.11174 12.9999 1.95913 13.0625 1.8 13.0625C1.64087 13.0625 1.48826 12.9999 1.37574 12.8886C1.26321 12.7772 1.2 12.6262 1.2 12.4688C1.2 12.3113 1.26321 12.1603 1.37574 12.0489C1.48826 11.9376 1.64087 11.875 1.8 11.875ZM20.4 4.75V13.0625C20.4 13.7193 20.9363 14.25 21.6 14.25H22.8C23.4638 14.25 24 13.7193 24 13.0625V5.34375C24 5.01719 23.73 4.75 23.4 4.75H20.4ZM21.6 12.4688C21.6 12.3113 21.6632 12.1603 21.7757 12.0489C21.8883 11.9376 22.0409 11.875 22.2 11.875C22.3591 11.875 22.5117 11.9376 22.6243 12.0489C22.7368 12.1603 22.8 12.3113 22.8 12.4688C22.8 12.6262 22.7368 12.7772 22.6243 12.8886C22.5117 12.9999 22.3591 13.0625 22.2 13.0625C22.0409 13.0625 21.8883 12.9999 21.7757 12.8886C21.6632 12.7772 21.6 12.6262 21.6 12.4688Z" fill="white"/>
</svg>
