<svg width="24" height="24" viewBox="0 0 24 24" fill="none" xmlns="http://www.w3.org/2000/svg">
<path d="M20.4019 14.4V12.6C20.4004 12.4856 20.3716 12.3733 20.3179 12.2724C20.2696 12.1926 20.1974 12.13 20.1115 12.0936C20.0209 12.0574 19.9262 12.0324 19.8295 12.0192C19.7273 12.0061 19.6243 11.9997 19.5212 12H19.202V6.14036C19.2395 6.05956 19.2927 5.96276 19.3615 5.84996C19.4303 5.73716 19.496 5.61236 19.5584 5.47556C19.6208 5.33716 19.6768 5.20916 19.7264 5.09156C19.7689 4.99971 19.7945 4.90093 19.802 4.79996C19.7845 4.66988 19.7564 4.54145 19.718 4.41596C19.6625 4.21651 19.5996 4.01917 19.5296 3.82436L19.3136 3.22436C19.263 3.0886 19.2166 2.95133 19.1744 2.81276C19.1286 2.69368 19.0505 2.58977 18.9487 2.51276C18.8488 2.4378 18.7269 2.39812 18.6019 2.39996H16.2019C16.0738 2.40526 15.9499 2.4478 15.8455 2.52236C15.743 2.59214 15.6669 2.69444 15.6295 2.81276C15.5983 2.90636 15.5483 3.04676 15.4795 3.23396C15.4074 3.43265 15.339 3.63269 15.2744 3.83396C15.2048 4.04596 15.1419 4.24316 15.0859 4.42556C15.0299 4.60636 15.0019 4.73116 15.0019 4.79996C15.0019 4.88796 15.0271 4.98796 15.0775 5.09996C15.1263 5.21196 15.1855 5.33716 15.2551 5.47556C15.3667 5.69927 15.4823 5.92091 15.6019 6.14036V12H15.2828C15.1707 12 15.0647 12.0064 14.9647 12.0192C14.8665 12.0304 14.7711 12.0588 14.6827 12.1032C14.6 12.1435 14.5293 12.2047 14.4775 12.2808C14.4232 12.3781 14.397 12.4886 14.4019 12.6V14.4H20.4019ZM20.4019 15.6H14.4019V18.666C14.4019 19.0716 14.4831 19.4528 14.6455 19.8096C14.8079 20.1664 15.0267 20.4788 15.3019 20.7468C15.8634 21.2948 16.6173 21.6011 17.4019 21.6C17.8019 21.6 18.1831 21.522 18.5455 21.366C18.8991 21.2148 19.223 21.0019 19.5019 20.7372C19.778 20.4756 19.9967 20.1664 20.1583 19.8096C20.3203 19.4501 20.4034 19.0602 20.4019 18.666V15.6ZM6.93795 2.55116C7.01938 2.6062 7.08603 2.6804 7.13207 2.76723C7.1781 2.85407 7.2021 2.95088 7.20195 3.04916V7.19756C7.20195 7.51582 7.32838 7.82105 7.55342 8.04609C7.77847 8.27114 8.08369 8.39756 8.40195 8.39756C8.72021 8.39756 9.02543 8.27114 9.25048 8.04609C9.47552 7.82105 9.60195 7.51582 9.60195 7.19756V3.04916C9.60201 2.95089 9.62621 2.85414 9.67242 2.76741C9.71863 2.68068 9.78543 2.60662 9.86696 2.55176C9.94849 2.49689 10.0423 2.46289 10.14 2.45274C10.2377 2.4426 10.3365 2.45661 10.4275 2.49356C11.3922 2.88406 12.2236 3.54494 12.8216 4.39672C13.4196 5.24851 13.7587 6.25491 13.7983 7.29489C13.8378 8.33487 13.5761 9.36413 13.0445 10.2589C12.5129 11.1536 11.7342 11.8757 10.8019 12.3384V19.1976C10.8019 19.8341 10.5491 20.4445 10.099 20.8946C9.64892 21.3447 9.03847 21.5976 8.40195 21.5976C7.76543 21.5976 7.15498 21.3447 6.70489 20.8946C6.25481 20.4445 6.00195 19.8341 6.00195 19.1976V12.3384C5.06927 11.8761 4.29008 11.1541 3.75818 10.2593C3.22628 9.3645 2.96434 8.33503 3.0039 7.29483C3.04346 6.25463 3.38283 5.24803 3.98115 4.39621C4.57948 3.54439 5.41125 2.88366 6.37635 2.49356C6.46734 2.45656 6.56602 2.44246 6.66373 2.4525C6.76144 2.46255 6.85519 2.49643 6.93675 2.55116" fill="white"/>
</svg>
