<svg width="24" height="24" viewBox="0 0 24 24" fill="none" xmlns="http://www.w3.org/2000/svg">
<path d="M12 2.25C10.0716 2.25 8.18657 2.82183 6.58319 3.89317C4.97982 4.96451 3.73013 6.48726 2.99218 8.26884C2.25422 10.0504 2.06114 12.0108 2.43735 13.9021C2.81355 15.7934 3.74215 17.5307 5.10571 18.8943C6.46928 20.2579 8.20656 21.1865 10.0979 21.5627C11.9892 21.9389 13.9496 21.7458 15.7312 21.0078C17.5127 20.2699 19.0355 19.0202 20.1068 17.4168C21.1782 15.8134 21.75 13.9284 21.75 12C21.7473 9.41498 20.7192 6.93661 18.8913 5.10872C17.0634 3.28084 14.585 2.25273 12 2.25ZM14.7675 15.9741C14.7926 16.0311 14.8031 16.0936 14.798 16.1557C14.7929 16.2178 14.7724 16.2777 14.7383 16.3299C14.7042 16.3821 14.6577 16.425 14.6029 16.4547C14.5481 16.4844 14.4867 16.5 14.4244 16.5H9.57563C9.51329 16.5 9.45194 16.4844 9.39713 16.4547C9.34232 16.425 9.29578 16.3821 9.26172 16.3299C9.22765 16.2777 9.20714 16.2178 9.20204 16.1557C9.19694 16.0936 9.20741 16.0311 9.2325 15.9741L10.5 13.0988C9.92808 12.7685 9.48109 12.2589 9.22837 11.6487C8.97564 11.0386 8.9313 10.3621 9.10223 9.72422C9.27315 9.08632 9.64979 8.52264 10.1737 8.12061C10.6977 7.71859 11.3396 7.50067 12 7.50067C12.6604 7.50067 13.3024 7.71859 13.8263 8.12061C14.3502 8.52264 14.7269 9.08632 14.8978 9.72422C15.0687 10.3621 15.0244 11.0386 14.7716 11.6487C14.5189 12.2589 14.0719 12.7685 13.5 13.0988L14.7675 15.9741Z" fill="white"/>
</svg>
