<svg width="24" height="24" viewBox="0 0 24 24" fill="none" xmlns="http://www.w3.org/2000/svg">
<path fill-rule="evenodd" clip-rule="evenodd" d="M6.75 5.0485C6.75 3.887 12 3 12 3C12 3 17.25 3.887 17.25 5.0485C17.25 6.597 16.295 7.25 16.295 7.25H7.705C7.705 7.25 6.75 6.597 6.75 5.0485ZM12.75 5.25C12.75 5.44891 12.671 5.63968 12.5303 5.78033C12.3897 5.92098 12.1989 6 12 6C11.8011 6 11.6103 5.92098 11.4697 5.78033C11.329 5.63968 11.25 5.44891 11.25 5.25C11.25 5.05109 11.329 4.86032 11.4697 4.71967C11.6103 4.57902 11.8011 4.5 12 4.5C12.1989 4.5 12.3897 4.57902 12.5303 4.71967C12.671 4.86032 12.75 5.05109 12.75 5.25ZM15.907 9.14C16.602 8.5975 16.494 8 16.494 8H7.506C7.506 8 7.3975 8.5975 8.093 9.14C7.96497 9.72414 7.96954 10.3296 8.10638 10.9117C8.24322 11.4938 8.50885 12.0379 8.88372 12.5038C9.25858 12.9697 9.73315 13.3457 10.2725 13.604C10.8118 13.8623 11.4022 13.9964 12.0002 13.9964C12.5983 13.9964 13.1887 13.8623 13.728 13.604C14.2673 13.3457 14.7419 12.9697 15.1168 12.5038C15.4916 12.0379 15.7573 11.4938 15.8941 10.9117C16.031 10.3296 16.0355 9.72414 15.9075 9.14M12 10C13.3605 10 14.312 9.843 14.976 9.617C14.9917 9.74233 14.9997 9.87 15 10C14.9994 10.4098 14.9149 10.8151 14.7516 11.1909C14.5884 11.5667 14.3499 11.9052 14.0508 12.1853C13.7517 12.4654 13.3984 12.6813 13.0127 12.8196C12.627 12.9579 12.2171 13.0158 11.8081 12.9895C11.3992 12.9633 11 12.8536 10.6351 12.6672C10.2702 12.4808 9.94735 12.2216 9.68648 11.9056C9.42562 11.5896 9.23225 11.2235 9.11831 10.8299C9.00437 10.4363 8.97228 10.0235 9.024 9.617C9.6885 9.843 10.639 10 12 10ZM12.75 15C12.8826 15 13.0098 15.0527 13.1036 15.1464C13.1973 15.2402 13.25 15.3674 13.25 15.5V16.191C13.25 16.2838 13.2241 16.3748 13.1752 16.4538C13.1264 16.5327 13.0565 16.5965 12.9735 16.638L12.75 16.75L13.0385 18.1925L15.1585 15.0125C15.3038 15.0125 15.4378 15.0132 15.5605 15.0145C18.263 15.631 21 16.888 21 18.779V21H3V18.779C3 16.888 5.857 15.6165 8.559 15C8.5495 15.002 8.651 15.0035 8.8365 15.005L10.9785 18.2175L11.25 16.75L11.0265 16.638C10.9435 16.5965 10.8736 16.5327 10.8248 16.4538C10.7759 16.3748 10.75 16.2838 10.75 16.191V15.5C10.75 15.3674 10.8027 15.2402 10.8964 15.1464C10.9902 15.0527 11.1174 15 11.25 15H12.75ZM17.5 17.6665C17.5 17.6665 16.8335 17.3335 16.5 17C16.1665 17.3335 15.5 17.6665 15.5 17.6665C15.5 17.6665 15.849 19 16.5 19C17.151 19 17.5 17.6665 17.5 17.6665Z" fill="white"/>
</svg>
