<svg width="24" height="24" viewBox="0 0 24 24" fill="none" xmlns="http://www.w3.org/2000/svg">
<path d="M20.8692 5.05009C20.5215 4.56907 20.0309 4.21003 19.4672 4.02409L14.6662 2.42409C12.9252 1.85929 11.0502 1.85929 9.30923 2.42409L4.50923 4.02409C3.94814 4.21133 3.46012 4.57025 3.11423 5.05009C2.76522 5.53204 2.5776 6.11204 2.57823 6.70709V11.8651C2.57092 13.3072 2.93191 14.7272 3.62701 15.9907C4.32211 17.2542 5.32829 18.3193 6.55023 19.0851L10.5042 21.5711C10.9528 21.852 11.4714 22.0009 12.0007 22.0009C12.53 22.0009 13.0486 21.852 13.4972 21.5711L17.4512 19.0861C18.6649 18.3233 19.6651 17.2651 20.3582 16.0103C21.0513 14.7556 21.4147 13.3455 21.4142 11.9121V6.75409C21.422 6.14188 21.2314 5.54376 20.8692 5.05009ZM12.9332 12.3361V14.6051C12.9332 14.8548 12.834 15.0943 12.6575 15.2708C12.4809 15.4474 12.2414 15.5466 11.9917 15.5466C11.742 15.5466 11.5026 15.4474 11.326 15.2708C11.1494 15.0943 11.0502 14.8548 11.0502 14.6051V12.3361C10.3777 12.1125 9.8067 11.6568 9.43949 11.0506C9.07228 10.4444 8.93282 9.72727 9.04609 9.02764C9.15935 8.328 9.51794 7.69152 10.0577 7.23215C10.5974 6.77278 11.283 6.52052 11.9917 6.52052C12.7005 6.52052 13.3861 6.77278 13.9258 7.23215C14.4655 7.69152 14.8241 8.328 14.9374 9.02764C15.0506 9.72727 14.9112 10.4444 14.544 11.0506C14.1768 11.6568 13.6058 12.1125 12.9332 12.3361Z" fill="white"/>
<path d="M13.1004 9.50188C13.1004 9.79388 12.9844 10.0739 12.778 10.2804C12.5715 10.4869 12.2914 10.6029 11.9994 10.6029C11.7074 10.6029 11.4274 10.4869 11.2209 10.2804C11.0144 10.0739 10.8984 9.79388 10.8984 9.50188C10.8984 9.20988 11.0144 8.92983 11.2209 8.72335C11.4274 8.51688 11.7074 8.40088 11.9994 8.40088C12.2914 8.40088 12.5715 8.51688 12.778 8.72335C12.9844 8.92983 13.1004 9.20988 13.1004 9.50188Z" fill="white"/>
</svg>
