<svg width="24" height="24" viewBox="0 0 24 24" fill="none" xmlns="http://www.w3.org/2000/svg">
<path d="M20.4068 1.57129C21.5787 1.57129 22.4163 3.01973 21.1812 4.21785C20.8746 4.51504 16.256 8.83363 12.2417 12.7416L10.7351 11.2529C14.4218 7.32238 18.5468 2.77879 19.1093 2.19379C19.5312 1.75363 19.9906 1.57129 20.4068 1.57129ZM10.301 11.7136L11.7874 13.1832L11.3346 13.628L9.86602 12.1749L10.301 11.7136ZM9.43056 12.6371L10.8837 14.0724L10.4323 14.5177L8.99415 13.0964L9.43056 12.6371ZM8.55681 13.5554L9.98134 14.9649C9.82978 15.1164 9.68087 15.2658 9.53462 15.413L8.11759 14.0124C8.26134 13.8633 8.40774 13.711 8.55681 13.5554ZM7.67649 14.468L9.08837 15.8635C8.93584 16.0175 8.78787 16.1682 8.64446 16.3154L7.23399 14.9213C7.38198 14.7707 7.52948 14.6196 7.67649 14.468ZM6.78868 15.3722L8.20337 16.7705C7.94743 17.0358 7.71165 17.2847 7.49978 17.5135C7.42952 17.5918 7.34341 17.6543 7.24716 17.6968C7.15091 17.7393 7.04671 17.7609 6.94149 17.76C6.19524 17.76 5.38149 16.7504 6.05743 16.0955C6.30387 15.8571 6.54763 15.616 6.78868 15.3722ZM5.52399 17.8289C5.69665 18.026 5.90479 18.1888 6.13759 18.3089C6.05883 18.5072 5.9818 18.7061 5.90649 18.9057C5.60462 19.7086 4.92212 19.7119 4.42524 19.7143C3.8304 19.7171 3.36071 19.7194 2.99931 20.6049C2.90837 20.8285 2.96556 20.9471 3.03353 21.0343C3.4479 21.5635 5.18415 21.8283 6.74931 21.6005C7.66853 21.4664 8.04681 21.218 8.08571 21.1196C8.08571 21.1196 8.10118 21.0404 7.95353 20.8069C7.79677 20.5779 7.62614 20.3588 7.44259 20.1507C7.28884 19.9679 7.1304 19.7789 6.9954 19.5933C6.79243 19.3121 6.72353 18.9118 6.72212 18.4955C6.79404 18.5054 6.86655 18.5105 6.93915 18.5105C7.12173 18.5108 7.30282 18.4778 7.47353 18.413C7.45899 18.8907 7.55228 19.0838 7.60196 19.1518C7.72149 19.3163 7.87149 19.4949 8.01681 19.6674C8.52353 20.2707 9.00118 20.8393 8.78415 21.3933C8.65665 21.7172 8.21884 22.1433 6.85759 22.343C6.43826 22.4013 6.01533 22.43 5.59196 22.4288C4.37649 22.4288 2.99368 22.2014 2.44243 21.4969C2.25962 21.2607 2.08571 20.8669 2.30696 20.3222C2.85774 18.9718 3.8004 18.9675 4.42384 18.9629C4.96103 18.9605 5.09743 18.93 5.20665 18.6404C5.31587 18.3507 5.42509 18.0718 5.52399 17.8289Z" fill="white"/>
</svg>
