<svg width="85" height="58" viewBox="0 0 85 58" fill="none" xmlns="http://www.w3.org/2000/svg">
<path d="M21.2672 18.8036C20.4828 19.7318 19.2279 20.4638 17.9729 20.3592C17.8161 19.1043 18.4305 17.7709 19.1494 16.9473C19.9338 15.993 21.3064 15.3133 22.4176 15.261C22.5483 16.5682 22.0385 17.8493 21.2672 18.8036ZM22.4045 20.6076C20.5874 20.503 19.0318 21.6403 18.169 21.6403C17.2932 21.6403 15.9728 20.6599 14.5349 20.686C12.6655 20.7122 10.9269 21.7711 9.97261 23.4574C8.01175 26.8301 9.46278 31.8237 11.3583 34.5689C12.2864 35.9285 13.3976 37.4187 14.8617 37.3664C16.2474 37.3142 16.7964 36.4644 18.4697 36.4644C20.156 36.4644 20.6397 37.3664 22.1038 37.3403C23.6202 37.3142 24.5745 35.9808 25.5026 34.6212C26.5615 33.0787 26.9929 31.5754 27.019 31.4969C26.9929 31.4708 24.0908 30.3596 24.0647 27.0131C24.0385 24.2156 26.3524 22.8822 26.4569 22.8038C25.1497 20.8691 23.1104 20.6599 22.4045 20.6076ZM32.9016 16.8166V37.1965H36.0652V30.2289H40.4444C44.4446 30.2289 47.2551 27.4837 47.2551 23.5097C47.2551 19.5357 44.4969 16.8166 40.549 16.8166H32.9016ZM36.0652 19.4834H39.7124C42.4576 19.4834 44.0263 20.9475 44.0263 23.5228C44.0263 26.098 42.4576 27.5752 39.6993 27.5752H36.0652V19.4834ZM53.0332 37.3534C55.0202 37.3534 56.8634 36.3468 57.7 34.752H57.7654V37.1965H60.6936V27.0523C60.6936 24.111 58.3406 22.2155 54.7195 22.2155C51.3599 22.2155 48.8761 24.1372 48.7846 26.7778H51.6344C51.8697 25.5228 53.0332 24.6993 54.628 24.6993C56.5627 24.6993 57.6477 25.6013 57.6477 27.2615V28.3857L53.6998 28.621C50.0265 28.8432 48.0395 30.3466 48.0395 32.961C48.0395 35.6017 50.0919 37.3534 53.0332 37.3534ZM53.8829 34.935C52.1965 34.935 51.1246 34.1245 51.1246 32.8826C51.1246 31.6015 52.1573 30.8564 54.1312 30.7387L57.6477 30.5165V31.6669C57.6477 33.5754 56.0267 34.935 53.8829 34.935ZM64.6022 42.7392C67.6873 42.7392 69.1384 41.5627 70.4064 37.9939L75.9622 22.4116H72.7464L69.0207 34.4513H68.9554L65.2297 22.4116H61.9224L67.2821 37.2488L66.9945 38.1508C66.5108 39.6803 65.7265 40.2685 64.3277 40.2685C64.0794 40.2685 63.5957 40.2424 63.3996 40.2162V42.6608C63.5826 42.7131 64.3669 42.7392 64.6022 42.7392Z" fill="#090909"/>
</svg>
