<svg width="35" height="35" viewBox="0 0 35 35" fill="none" xmlns="http://www.w3.org/2000/svg">
<path d="M29.3977 17.4984C29.3977 24.0784 24.0777 29.3984 17.4977 29.3984C10.9177 29.3984 5.59766 24.0784 5.59766 17.4984C5.59766 10.9184 10.9177 5.59844 17.4977 5.59844C24.0777 5.59844 29.3977 10.9184 29.3977 17.4984ZM6.99766 17.4984C6.99766 23.3084 11.6877 27.9984 17.4977 27.9984C23.3077 27.9984 27.9977 23.3084 27.9977 17.4984C27.9977 11.6884 23.3077 6.99844 17.4977 6.99844C11.6877 6.99844 6.99766 11.6884 6.99766 17.4984Z" fill="#28374D"/>
<path d="M24.2909 17.2881L17.5009 24.0781L10.7109 17.2881L11.6909 16.3081L17.5009 22.1181L23.3109 16.3081L24.2909 17.2881Z" fill="#28374D"/>
<path d="M16.8008 23.1016L16.8008 11.2016L18.2008 11.2016L18.2008 23.1016L16.8008 23.1016Z" fill="#28374D"/>
</svg>
