<svg width="35" height="36" viewBox="0 0 35 36" fill="none" xmlns="http://www.w3.org/2000/svg">
<path fill-rule="evenodd" clip-rule="evenodd" d="M17.5002 10.1587C17.4999 8.9629 17.7797 7.78362 18.3172 6.7154C18.8547 5.64717 19.635 4.7197 20.5955 4.00732C21.5559 3.29493 22.6699 2.81744 23.8482 2.6131C25.0264 2.40875 26.2362 2.48325 27.3804 2.83061C27.5613 2.8854 27.7249 2.98611 27.8552 3.12293C27.9856 3.25975 28.0782 3.42801 28.1242 3.61131C28.1702 3.7946 28.1679 3.98669 28.1175 4.16883C28.0672 4.35097 27.9705 4.51696 27.8369 4.65061L22.9952 9.49082C23.0892 10.2083 23.4177 10.8746 23.9297 11.386C24.4416 11.8974 25.1082 12.2253 25.8258 12.3185L30.6646 7.47832C30.7982 7.34472 30.9642 7.24803 31.1464 7.19768C31.3285 7.14733 31.5206 7.14502 31.7039 7.19099C31.8872 7.23696 32.0554 7.32964 32.1923 7.45999C32.3291 7.59034 32.4298 7.75392 32.4846 7.93478C32.848 9.13185 32.9126 10.3998 32.6726 11.6276C32.4327 12.8554 31.8955 14.0057 31.1081 14.9778C30.3207 15.95 29.3071 16.7144 28.1559 17.2041C27.0047 17.6939 25.7511 17.8941 24.5046 17.7873C23.02 17.6619 21.7775 17.9331 21.1373 18.7119L10.7102 31.3775C10.2833 31.8934 9.7533 32.3144 9.15423 32.6137C8.55517 32.913 7.90021 33.0838 7.2313 33.1154C6.56239 33.1469 5.89427 33.0384 5.26971 32.7968C4.64516 32.5552 4.07794 32.1858 3.60437 31.7124C3.13081 31.2389 2.76133 30.6717 2.5196 30.0472C2.27787 29.4227 2.16922 28.7546 2.2006 28.0857C2.23198 27.4168 2.4027 26.7618 2.70183 26.1627C3.00096 25.5636 3.4219 25.0335 3.93771 24.6064L16.6019 14.1779C17.3792 13.5362 17.6519 12.2952 17.5265 10.8106C17.508 10.5938 17.4992 10.3763 17.5002 10.1587ZM6.00417 28.2056C6.00417 27.9155 6.11941 27.6373 6.32452 27.4322C6.52964 27.2271 6.80784 27.1119 7.09792 27.1119H7.10959C7.39967 27.1119 7.67787 27.2271 7.88299 27.4322C8.0881 27.6373 8.20334 27.9155 8.20334 28.2056V28.2173C8.20334 28.5074 8.0881 28.7856 7.88299 28.9907C7.67787 29.1958 7.39967 29.311 7.10959 29.311H7.09792C6.80784 29.311 6.52964 29.1958 6.32452 28.9907C6.11941 28.7856 6.00417 28.5074 6.00417 28.2173V28.2056Z" fill="white"/>
<path d="M14.6938 12.915L11.484 9.70669V7.42294C11.484 7.23411 11.4351 7.04851 11.342 6.88418C11.249 6.71986 11.115 6.58242 10.9531 6.48523L5.48439 3.20398C5.27523 3.0786 5.03016 3.02671 4.78813 3.05657C4.54609 3.08643 4.32098 3.19632 4.14856 3.36878L3.05481 4.46252C2.88235 4.63495 2.77246 4.86006 2.74261 5.10209C2.71275 5.34412 2.76463 5.58919 2.89002 5.79836L6.17127 11.2671C6.26845 11.429 6.40589 11.563 6.57022 11.656C6.73454 11.749 6.92015 11.7979 7.10898 11.7979H9.38981L12.3969 14.805L14.6938 12.915Z" fill="white"/>
<path fill-rule="evenodd" clip-rule="evenodd" d="M18.3125 25.5865L24.4127 31.6852C24.8698 32.1422 25.4123 32.5048 26.0095 32.7521C26.6066 32.9995 27.2467 33.1268 27.893 33.1268C28.5394 33.1268 29.1794 32.9995 29.7766 32.7521C30.3737 32.5048 30.9163 32.1422 31.3733 31.6852C31.8304 31.2282 32.1929 30.6856 32.4403 30.0884C32.6876 29.4913 32.8149 28.8512 32.8149 28.2049C32.8149 27.5585 32.6876 26.9185 32.4403 26.3214C32.1929 25.7242 31.8304 25.1816 31.3733 24.7246L26.5521 19.9048C25.8131 20.0096 25.0646 20.0306 24.3208 19.9675C23.7463 19.9179 23.3263 19.9587 23.0565 20.0287C22.9712 20.0471 22.8891 20.078 22.8129 20.1206L18.3125 25.5865ZM23.2913 23.6031C23.4963 23.3983 23.7743 23.2832 24.0642 23.2832C24.354 23.2832 24.632 23.3983 24.8371 23.6031L27.5715 26.339C27.6789 26.4391 27.7651 26.5598 27.8249 26.694C27.8847 26.8282 27.9168 26.973 27.9194 27.1199C27.922 27.2667 27.895 27.4126 27.84 27.5488C27.785 27.685 27.7031 27.8087 27.5992 27.9125C27.4954 28.0164 27.3716 28.0983 27.2355 28.1533C27.0993 28.2083 26.9534 28.2353 26.8065 28.2327C26.6597 28.2301 26.5148 28.198 26.3807 28.1382C26.2465 28.0784 26.1258 27.9922 26.0256 27.8848L23.2913 25.1504C23.0864 24.9453 22.9714 24.6673 22.9714 24.3775C22.9714 24.0876 23.0864 23.8097 23.2913 23.6046" fill="white"/>
</svg>
