<svg width="35" height="36" viewBox="0 0 35 36" fill="none" xmlns="http://www.w3.org/2000/svg">
<path d="M14.834 2.2356V33.3941L24.541 30.4822V5.14764L14.834 2.2356ZM8.13477 4.0746V15.0121H9.36523V5.30507H13.6035V4.0746H8.13477ZM25.7701 4.07665L25.7715 4.23217V6.2621H26.8652V4.0746L25.7701 4.07665ZM25.7715 7.49257V8.58632H26.8652V7.49257H25.7715ZM25.7715 9.81679V25.9496H26.8652V9.81679H25.7715ZM6.86574 13.8313L2.88217 17.8148L6.86574 21.7983V19.3871H13.4282V16.2426H6.86574V13.8313ZM16.6797 16.1742C17.1327 16.1742 17.5 16.9087 17.5 17.8148C17.5 18.7209 17.1327 19.4555 16.6797 19.4555C16.2267 19.4555 15.8594 18.7209 15.8594 17.8148C15.8594 16.9087 16.2267 16.1742 16.6797 16.1742ZM8.13477 20.6176V30.9398H9.36523V20.6176H8.13477ZM25.7715 27.1801V28.1371H26.8652V27.1801H25.7715ZM25.7715 29.3676V30.9398H26.8652V29.3676H25.7715ZM2.1875 32.5121V33.7426H13.6035V32.5121H2.1875ZM22.0563 32.5121L17.9547 33.7426H32.8125V32.5121H22.0563Z" fill="white"/>
</svg>
