<svg width="35" height="36" viewBox="0 0 35 36" fill="none" xmlns="http://www.w3.org/2000/svg">
<path d="M4.37526 25.4712V30.94H9.84401L25.9732 14.7962L20.5044 9.32746L4.37526 25.4712ZM32.9732 27.09L26.7753 33.2879L19.1919 25.7045L21.7732 23.1233L23.2315 24.5816L26.8336 20.965L28.9044 23.0358L26.7753 25.1066L28.3211 26.565L30.3919 24.5233L32.9732 27.09ZM9.63984 16.1087L2.02734 8.53996L8.22526 2.34204L10.7919 4.92329L7.18984 8.53996L8.75026 10.0858L12.3378 6.46912L14.4086 8.53996L12.3378 10.5962L13.7961 12.0545L9.63984 16.1087ZM30.2023 10.5233C30.7711 9.95454 30.7711 9.06496 30.2023 8.46704L26.7898 5.11287C26.2503 4.54412 25.3023 4.54412 24.7336 5.11287L22.0503 7.78162L27.519 13.2504L30.2023 10.5233Z" fill="white"/>
</svg>
