<svg width="40" height="41" viewBox="0 0 40 41" fill="none" xmlns="http://www.w3.org/2000/svg">
<path d="M20.0013 25.3149C12.6346 25.3149 6.66797 28.2982 6.66797 31.9815V35.3149H33.3346V31.9815C33.3346 28.2982 27.368 25.3149 20.0013 25.3149ZM13.3346 15.3149C13.3346 17.083 14.037 18.7787 15.2873 20.0289C16.5375 21.2791 18.2332 21.9815 20.0013 21.9815C21.7694 21.9815 23.4651 21.2791 24.7153 20.0289C25.9656 18.7787 26.668 17.083 26.668 15.3149M19.168 3.64819C18.668 3.64819 18.3346 3.99819 18.3346 4.48153V9.48153H16.668V5.31486C16.668 5.31486 12.918 6.74819 12.918 11.5649C12.918 11.5649 11.668 11.7982 11.668 13.6482H28.3346C28.2513 11.7982 27.0846 11.5649 27.0846 11.5649C27.0846 6.74819 23.3346 5.31486 23.3346 5.31486V9.48153H21.668V4.48153C21.668 3.99819 21.3513 3.64819 20.8346 3.64819H19.168Z" fill="white"/>
</svg>
