<svg width="35" height="36" viewBox="0 0 35 36" fill="none" xmlns="http://www.w3.org/2000/svg">
<path d="M13.8542 14.8983C14.5245 14.8983 15.1882 14.7663 15.8074 14.5097C16.4267 14.2532 16.9894 13.8773 17.4634 13.4033C17.9373 12.9293 18.3133 12.3667 18.5698 11.7474C18.8263 11.1281 18.9583 10.4644 18.9583 9.79411C18.9583 9.12382 18.8263 8.46009 18.5698 7.84083C18.3133 7.22156 17.9373 6.65888 17.4634 6.18492C16.9894 5.71095 16.4267 5.33498 15.8074 5.07847C15.1882 4.82196 14.5245 4.68994 13.8542 4.68994C12.5005 4.68994 11.2022 5.2277 10.245 6.18492C9.28776 7.14213 8.75 8.4404 8.75 9.79411C8.75 11.1478 9.28776 12.4461 10.245 13.4033C11.2022 14.3605 12.5005 14.8983 13.8542 14.8983Z" fill="white" stroke="white" stroke-width="2" stroke-linecap="round" stroke-linejoin="round"/>
<path d="M23.7773 5.41895C24.532 5.87286 25.1564 6.51431 25.5898 7.28094C26.0232 8.04757 26.2509 8.91329 26.2507 9.79395C26.2509 10.6746 26.0232 11.5403 25.5898 12.307C25.1564 13.0736 24.532 13.715 23.7773 14.1689" stroke="white" stroke-width="2" stroke-linecap="round" stroke-linejoin="round"/>
<path d="M2.91797 30.065V30.94H24.793V30.065C24.793 26.7984 24.793 25.165 24.1571 23.9167C23.5979 22.8191 22.7055 21.9268 21.608 21.3675C20.3596 20.7317 18.7263 20.7317 15.4596 20.7317H12.2513C8.98463 20.7317 7.3513 20.7317 6.10297 21.3675C5.00541 21.9268 4.11306 22.8191 3.5538 23.9167C2.91797 25.165 2.91797 26.7984 2.91797 30.065Z" fill="white" stroke="white" stroke-width="2" stroke-linecap="round" stroke-linejoin="round"/>
<path d="M32.0834 30.9402V30.0652C32.0834 26.7985 32.0834 25.1652 31.4476 23.9168C30.8884 22.8193 29.996 21.9269 28.8984 21.3677" stroke="white" stroke-width="2" stroke-linecap="round" stroke-linejoin="round"/>
</svg>
