<svg width="40" height="40" viewBox="0 0 40 40" fill="none" xmlns="http://www.w3.org/2000/svg">
<path d="M35 33.3334V10C35 8.16171 33.505 6.66671 31.6667 6.66671H28.3333V3.33337H25V6.66671H15V3.33337H11.6667V6.66671H8.33333C6.495 6.66671 5 8.16171 5 10V33.3334C5 35.1717 6.495 36.6667 8.33333 36.6667H31.6667C33.505 36.6667 35 35.1717 35 33.3334ZM15 30H11.6667V26.6667H15V30ZM15 23.3334H11.6667V20H15V23.3334ZM21.6667 30H18.3333V26.6667H21.6667V30ZM21.6667 23.3334H18.3333V20H21.6667V23.3334ZM28.3333 30H25V26.6667H28.3333V30ZM28.3333 23.3334H25V20H28.3333V23.3334ZM31.6667 15H8.33333V11.6667H31.6667V15Z" fill="#28374D"/>
</svg>
