<svg width="30" height="30" viewBox="0 0 30 30" fill="none" xmlns="http://www.w3.org/2000/svg">
<g clip-path="url(#clip0_1_122406)">
<path fill-rule="evenodd" clip-rule="evenodd" d="M24.6342 29.1087C24.3998 29.3431 24.0819 29.4748 23.7504 29.4749H6.2504C5.91888 29.4749 5.60094 29.3432 5.36652 29.1088C5.1321 28.8744 5.0004 28.5564 5.0004 28.2249C5.0004 27.8934 5.1321 27.5754 5.36652 27.341C5.60094 27.1066 5.91888 26.9749 6.2504 26.9749H11.0254L11.6966 24.8999H3.7504C2.75584 24.8999 1.80201 24.5048 1.09875 23.8016C0.395488 23.0983 0.00039988 22.1445 0.00039988 21.1499V3.7499C-0.00621815 3.33294 0.0693682 2.91876 0.222842 2.53102C0.376316 2.14327 0.60467 1.78956 0.894863 1.49008C1.18506 1.1906 1.5314 0.951222 1.91412 0.785615C2.29684 0.620008 2.70844 0.531417 3.1254 0.524902H26.8754C27.2924 0.531417 27.704 0.620008 28.0867 0.785615C28.4694 0.951222 28.8157 1.1906 29.1059 1.49008C29.3961 1.78956 29.6245 2.14327 29.778 2.53102C29.9314 2.91876 30.007 3.33294 30.0004 3.7499V21.1499C30.0004 22.1445 29.6053 23.0983 28.9021 23.8016C28.1988 24.5048 27.245 24.8999 26.2504 24.8999H18.3041L18.9766 26.9749H23.7504C23.9976 26.975 24.2392 27.0483 24.4447 27.1856C24.6502 27.323 24.8104 27.5182 24.905 27.7466C24.9996 27.975 25.0243 28.2263 24.9761 28.4687C24.9279 28.7111 24.8089 28.9338 24.6342 29.1087ZM2.53165 3.4874C2.50264 3.57167 2.49198 3.66118 2.5004 3.7499V18.6499C2.5004 18.8157 2.56625 18.9746 2.68346 19.0918C2.80067 19.2091 2.95964 19.2749 3.1254 19.2749H26.8754C27.0412 19.2749 27.2001 19.2091 27.3173 19.0918C27.4346 18.9746 27.5004 18.8157 27.5004 18.6499V3.7499C27.5072 3.66121 27.4964 3.57204 27.4687 3.48753C27.4409 3.40302 27.3967 3.32483 27.3386 3.25746C27.2806 3.19008 27.2097 3.13485 27.1302 3.09494C27.0507 3.05503 26.9641 3.03123 26.8754 3.0249H3.1254C2.9917 3.03433 2.86382 3.08335 2.75808 3.16572C2.65234 3.24809 2.57351 3.36007 2.53165 3.4874ZM5.99165 5.89115C6.22602 5.65672 6.54391 5.52497 6.8754 5.5249H12.5004C12.8319 5.5249 13.1499 5.6566 13.3843 5.89102C13.6187 6.12544 13.7504 6.44338 13.7504 6.7749C13.7504 7.10642 13.6187 7.42437 13.3843 7.65879C13.1499 7.89321 12.8319 8.0249 12.5004 8.0249H6.8754C6.62821 8.02485 6.38659 7.95151 6.18108 7.81415C5.97556 7.6768 5.81539 7.4816 5.7208 7.25322C5.62621 7.02485 5.60146 6.77355 5.64967 6.53111C5.69788 6.28867 5.81689 6.06597 5.99165 5.89115ZM6.8754 9.8999C6.54388 9.8999 6.22594 10.0316 5.99152 10.266C5.7571 10.5004 5.6254 10.8184 5.6254 11.1499C5.6254 11.4814 5.7571 11.7994 5.99152 12.0338C6.22594 12.2682 6.54388 12.3999 6.8754 12.3999H12.5004C12.8319 12.3999 13.1499 12.2682 13.3843 12.0338C13.6187 11.7994 13.7504 11.4814 13.7504 11.1499C13.7504 10.8184 13.6187 10.5004 13.3843 10.266C13.1499 10.0316 12.8319 9.8999 12.5004 9.8999H6.8754ZM5.99165 14.6412C6.22602 14.4067 6.54391 14.275 6.8754 14.2749H8.7504C9.08192 14.2749 9.39986 14.4066 9.63428 14.641C9.8687 14.8754 10.0004 15.1934 10.0004 15.5249C10.0004 15.8564 9.8687 16.1744 9.63428 16.4088C9.39986 16.6432 9.08192 16.7749 8.7504 16.7749H6.8754C6.62821 16.7748 6.38659 16.7015 6.18108 16.5642C5.97556 16.4268 5.81539 16.2316 5.7208 16.0032C5.62621 15.7748 5.60146 15.5236 5.64967 15.2811C5.69788 15.0387 5.81689 14.816 5.99165 14.6412ZM20.5129 8.6124C20.7763 8.60132 21.0384 8.65448 21.2766 8.76728C21.5148 8.88009 21.7221 9.04916 21.8804 9.2599C22.0829 9.51703 22.3781 9.6845 22.7027 9.72634C23.0273 9.76818 23.3553 9.68105 23.6164 9.48366C23.8774 9.28628 24.0507 8.99438 24.0989 8.67068C24.1471 8.34697 24.0664 8.01728 23.8742 7.7524C23.3341 7.03643 22.5753 6.51598 21.7129 6.2699V6.06615C21.7129 5.73463 21.5812 5.41669 21.3468 5.18227C21.1124 4.94785 20.7944 4.81615 20.4629 4.81615C20.1314 4.81615 19.8134 4.94785 19.579 5.18227C19.3446 5.41669 19.2129 5.73463 19.2129 6.06615V6.28615C18.6916 6.43365 18.2129 6.6724 17.8054 6.9874C17.0929 7.5399 16.5392 8.38865 16.5392 9.4149C16.5392 10.4462 17.0991 11.2899 17.8179 11.8324C18.5366 12.3749 19.4754 12.6762 20.4629 12.6762C20.9629 12.6762 21.3629 12.8274 21.6079 13.0099C21.8504 13.1899 21.8867 13.3474 21.8867 13.4262C21.8867 13.5062 21.8479 13.6674 21.6042 13.8512C21.3579 14.0362 20.9592 14.1887 20.4629 14.1887H20.4129C20.1497 14.1995 19.8879 14.1463 19.6499 14.0335C19.4119 13.9207 19.2049 13.7517 19.0466 13.5412C18.9477 13.4102 18.8238 13.2999 18.6823 13.2168C18.5407 13.1337 18.3841 13.0792 18.2215 13.0566C18.0589 13.0339 17.8934 13.0436 17.7345 13.0849C17.5756 13.1262 17.4264 13.1984 17.2954 13.2974C17.1644 13.3964 17.0542 13.5202 16.971 13.6618C16.8879 13.8034 16.8335 13.9599 16.8108 14.1225C16.7651 14.451 16.8517 14.7841 17.0516 15.0487C17.5921 15.7648 18.3513 16.2853 19.2141 16.5312V16.7749C19.2141 17.1064 19.3458 17.4244 19.5803 17.6588C19.8147 17.8932 20.1326 18.0249 20.4642 18.0249C20.7957 18.0249 21.1136 17.8932 21.348 17.6588C21.5825 17.4244 21.7142 17.1064 21.7142 16.7749V16.5212C22.2165 16.3872 22.6889 16.1594 23.1067 15.8499C23.8292 15.3062 24.3867 14.4624 24.3867 13.4249C24.3867 12.3874 23.8267 11.5449 23.1017 11.0049C22.3792 10.4674 21.4417 10.1762 20.4642 10.1762C19.9704 10.1762 19.5729 10.0237 19.3241 9.8374C19.0754 9.65115 19.0392 9.48615 19.0392 9.4149C19.0392 9.3374 19.0816 9.16115 19.3366 8.96365C19.6784 8.71834 20.0927 8.59382 20.5129 8.6124Z" fill="#28374D"/>
</g>
<defs>
<clipPath id="clip0_1_122406">
<rect width="30" height="30" fill="white"/>
</clipPath>
</defs>
</svg>
