<svg width="45" height="45" viewBox="0 0 45 45" fill="none" xmlns="http://www.w3.org/2000/svg">
<path d="M33.75 28.125V33.75M33.75 33.75V39.375M33.75 33.75H28.125M33.75 33.75H39.375" stroke="white" stroke-width="2" stroke-linecap="round" stroke-linejoin="round"/>
<path fill-rule="evenodd" clip-rule="evenodd" d="M9.375 9.375C7.88316 9.375 6.45242 9.96763 5.39752 11.0225C4.34263 12.0774 3.75 13.5082 3.75 15V30C3.75 31.4918 4.34263 32.9226 5.39752 33.9775C6.45242 35.0324 7.88316 35.625 9.375 35.625H22.6556C22.5515 35.0054 22.4994 34.3782 22.5 33.75C22.5 31.5975 23.1037 29.5875 24.1519 27.8794C23.3105 28.1379 22.4201 28.1953 21.5525 28.047C20.6848 27.8987 19.864 27.5489 19.1562 27.0256C18.4484 26.5024 17.8732 25.8203 17.477 25.0343C17.0808 24.2483 16.8746 23.3802 16.875 22.5C16.8761 21.6914 17.0516 20.8925 17.3894 20.1579C17.7272 19.4232 18.2194 18.77 18.8326 18.2428C19.4457 17.7156 20.1653 17.3268 20.9422 17.1028C21.7192 16.8789 22.5354 16.8251 23.335 16.9452C24.1347 17.0652 24.899 17.3562 25.576 17.7984C26.253 18.2406 26.8267 18.8236 27.258 19.5075C27.6893 20.1915 27.9681 20.9605 28.0753 21.7619C28.1825 22.5634 28.1157 23.3786 27.8794 24.1519C29.6456 23.0685 31.678 22.4967 33.75 22.5C36.6319 22.5 39.2606 23.5837 41.25 25.365V15C41.25 13.5082 40.6574 12.0774 39.6025 11.0225C38.5476 9.96763 37.1168 9.375 35.625 9.375H9.375ZM22.5 20.625C22.0027 20.625 21.5258 20.8225 21.1742 21.1742C20.8225 21.5258 20.625 22.0027 20.625 22.5C20.625 22.9973 20.8225 23.4742 21.1742 23.8258C21.5258 24.1775 22.0027 24.375 22.5 24.375C22.9973 24.375 23.4742 24.1775 23.8258 23.8258C24.1775 23.4742 24.375 22.9973 24.375 22.5C24.375 22.0027 24.1775 21.5258 23.8258 21.1742C23.4742 20.8225 22.9973 20.625 22.5 20.625Z" fill="white"/>
</svg>
