<svg width="20" height="20" viewBox="0 0 20 20" fill="none" xmlns="http://www.w3.org/2000/svg">
<path d="M16.0265 12.7166L13.9098 12.475C13.6609 12.4457 13.4087 12.4733 13.172 12.5556C12.9353 12.6378 12.7203 12.7727 12.5432 12.95L11.0098 14.4833C8.64433 13.2799 6.72155 11.3571 5.51817 8.99164L7.05983 7.44997C7.41817 7.09164 7.59317 6.59164 7.53483 6.0833L7.29317 3.9833C7.2461 3.57671 7.05105 3.20166 6.74522 2.92963C6.43938 2.65761 6.04414 2.50763 5.63483 2.5083H4.19317C3.2515 2.5083 2.46817 3.29164 2.5265 4.2333C2.96817 11.35 8.65983 17.0333 15.7682 17.475C16.7098 17.5333 17.4932 16.75 17.4932 15.8083V14.3666C17.5015 13.525 16.8682 12.8166 16.0265 12.7166Z" fill="white"/>
</svg>
