<svg width="20" height="20" viewBox="0 0 20 20" fill="none" xmlns="http://www.w3.org/2000/svg">
<path d="M2.5 5.83329C2.5 5.39127 2.67559 4.96734 2.98816 4.65478C3.30072 4.34222 3.72464 4.16663 4.16667 4.16663H15.8333C16.2754 4.16663 16.6993 4.34222 17.0118 4.65478C17.3244 4.96734 17.5 5.39127 17.5 5.83329V14.1666C17.5 14.6087 17.3244 15.0326 17.0118 15.3451C16.6993 15.6577 16.2754 15.8333 15.8333 15.8333H4.16667C3.72464 15.8333 3.30072 15.6577 2.98816 15.3451C2.67559 15.0326 2.5 14.6087 2.5 14.1666V5.83329Z" stroke="white" stroke-width="2" stroke-linecap="round" stroke-linejoin="round"/>
<path d="M2.5 5.83325L10 10.8333L17.5 5.83325" stroke="white" stroke-width="2" stroke-linecap="round" stroke-linejoin="round"/>
</svg>
