<svg width="60" height="60" viewBox="0 0 60 60" fill="none" xmlns="http://www.w3.org/2000/svg">
<path d="M16.4991 8.25C16.0962 8.25022 15.7007 8.35863 15.354 8.56391C15.0073 8.7692 14.7221 9.06382 14.5281 9.417L6.27814 24.417C6.06072 24.8126 5.96734 25.2645 6.01014 25.714C6.05294 26.1634 6.22994 26.5895 6.51814 26.937L28.2681 53.187C28.4793 53.4418 28.744 53.6469 29.0435 53.7876C29.3429 53.9284 29.6697 54.0014 30.0006 54.0014C30.3315 54.0014 30.6584 53.9284 30.9578 53.7876C31.2573 53.6469 31.522 53.4418 31.7331 53.187L53.4831 26.937C53.7713 26.5895 53.9483 26.1634 53.9911 25.714C54.0339 25.2645 53.9406 24.8126 53.7231 24.417L45.4731 9.417C45.2789 9.06337 44.9933 8.76846 44.646 8.56315C44.2987 8.35784 43.9026 8.24968 43.4991 8.25H16.4991ZM12.4671 22.5L17.8281 12.75H22.3281L18.9141 22.5H12.4671ZM18.4311 27L24.2181 41.244L12.4131 27H18.4311ZM29.9661 43.443L23.2881 27H36.4461L29.9661 43.443ZM23.6841 22.5L27.0951 12.75H32.9301L36.5211 22.5H23.6841ZM41.3181 22.5L37.7271 12.75H42.1671L47.5311 22.5H41.3181ZM41.2821 27H47.5821L35.5671 41.502L41.2821 27Z" fill="white"/>
</svg>
