<svg width="60" height="60" viewBox="0 0 60 60" fill="none" xmlns="http://www.w3.org/2000/svg">
<path d="M24.1875 34.25L26.375 27.125L20.625 22.5H27.75L30 15.5L32.25 22.5H39.375L33.5625 27.125L35.75 34.25L30 29.8125L24.1875 34.25ZM15 57.5V38.1875C13.4167 36.4375 12.1875 34.4375 11.3125 32.1875C10.4375 29.9375 10 27.5417 10 25C10 19.4167 11.9375 14.6875 15.8125 10.8125C19.6875 6.9375 24.4167 5 30 5C35.5833 5 40.3125 6.9375 44.1875 10.8125C48.0625 14.6875 50 19.4167 50 25C50 27.5417 49.5625 29.9375 48.6875 32.1875C47.8125 34.4375 46.5833 36.4375 45 38.1875V57.5L30 52.5L15 57.5ZM30 40C34.1667 40 37.7083 38.5417 40.625 35.625C43.5417 32.7083 45 29.1667 45 25C45 20.8333 43.5417 17.2917 40.625 14.375C37.7083 11.4583 34.1667 10 30 10C25.8333 10 22.2917 11.4583 19.375 14.375C16.4583 17.2917 15 20.8333 15 25C15 29.1667 16.4583 32.7083 19.375 35.625C22.2917 38.5417 25.8333 40 30 40Z" fill="white"/>
</svg>
