<svg width="35" height="35" viewBox="0 0 35 35" fill="none" xmlns="http://www.w3.org/2000/svg">
<path fill-rule="evenodd" clip-rule="evenodd" d="M16.4763 3.20106C17.0517 2.98574 17.6805 2.95767 18.2729 3.12085L18.5238 3.20106L28.7321 7.02918C29.2497 7.22327 29.7015 7.56046 30.0348 8.00146C30.3681 8.44245 30.5693 8.9691 30.6148 9.52002L30.625 9.76064V17.5817C30.6249 19.9448 29.9869 22.2641 28.7782 24.2947C27.5695 26.3253 25.8349 27.9919 23.7577 29.1186L23.3698 29.3213L18.4785 31.7669C18.2092 31.9014 17.9151 31.9788 17.6144 31.9944C17.3138 32.0099 17.0132 31.9633 16.7315 31.8573L16.5215 31.7669L11.6302 29.3213C9.51652 28.2644 7.72738 26.6564 6.45167 24.6672C5.17596 22.6779 4.46101 20.3811 4.38229 18.0192L4.375 17.5817V9.76064C4.37501 9.20812 4.53196 8.66697 4.82757 8.20018C5.12318 7.7334 5.54531 7.36018 6.04479 7.12398L6.26792 7.02918L16.4763 3.20106ZM22.5065 12.584L15.801 19.2894L13.2227 16.7111C12.9491 16.4376 12.578 16.2841 12.1912 16.2842C11.8043 16.2843 11.4333 16.4381 11.1599 16.7118C10.8864 16.9854 10.7329 17.3565 10.733 17.7433C10.7332 18.1302 10.887 18.5012 11.1606 18.7746L14.6665 22.2804C14.8154 22.4295 14.9923 22.5477 15.187 22.6284C15.3817 22.709 15.5903 22.7505 15.801 22.7505C16.0118 22.7505 16.2204 22.709 16.4151 22.6284C16.6098 22.5477 16.7867 22.4295 16.9356 22.2804L24.5685 14.6461C24.7078 14.5115 24.8189 14.3506 24.8954 14.1727C24.9718 13.9948 25.012 13.8034 25.0137 13.6098C25.0154 13.4161 24.9785 13.2241 24.9052 13.0449C24.8318 12.8657 24.7235 12.7028 24.5866 12.5659C24.4497 12.429 24.2869 12.3207 24.1076 12.2474C23.9284 12.174 23.7364 12.1371 23.5427 12.1388C23.3491 12.1405 23.1577 12.1807 22.9798 12.2572C22.8019 12.3336 22.641 12.4447 22.5065 12.584Z" fill="white"/>
</svg>
