<svg width="33" height="32" viewBox="0 0 33 32" fill="none" xmlns="http://www.w3.org/2000/svg">
<g clip-path="url(#clip0_1_112036)">
<path d="M28.1126 19.605C27.959 18.5378 27.135 17.7058 26.0742 17.4578C21.951 16.4914 20.9174 14.117 20.743 11.4834C20.0118 11.3474 18.711 11.2002 16.503 11.2002C14.295 11.2002 12.9942 11.3474 12.263 11.4834C12.0886 14.117 11.055 16.4914 6.93178 17.4578C5.87098 17.7074 5.04698 18.5378 4.89338 19.605L4.09818 25.1122C3.81818 27.0514 5.24218 28.8002 7.22298 28.8002H25.783C27.7622 28.8002 29.1878 27.0514 28.9078 25.1122L28.1126 19.605ZM16.503 24.7874C14.271 24.7874 12.4614 22.9954 12.4614 20.7874C12.4614 18.5794 14.271 16.7874 16.503 16.7874C18.735 16.7874 20.5446 18.5794 20.5446 20.7874C20.5446 22.9954 18.7334 24.7874 16.503 24.7874ZM32.423 9.6002C32.3846 7.2002 26.2758 3.2018 16.503 3.2002C6.72858 3.2018 0.619776 7.2002 0.582976 9.6002C0.546176 12.0002 0.616576 15.1234 4.63898 14.6034C9.34458 13.9938 9.05498 12.3506 9.05498 10.0018C9.05498 8.3634 12.8822 7.9682 16.503 7.9682C20.1238 7.9682 23.9494 8.3634 23.951 10.0018C23.951 12.3506 23.6614 13.9938 28.367 14.6034C32.3878 15.1234 32.4598 12.0002 32.423 9.6002Z" fill="white"/>
</g>
<defs>
<clipPath id="clip0_1_112036">
<rect width="32" height="32" fill="white" transform="translate(0.5)"/>
</clipPath>
</defs>
</svg>
