<svg width="35" height="35" viewBox="0 0 35 35" fill="none" xmlns="http://www.w3.org/2000/svg">
<mask id="mask0_1_112045" style="mask-type:luminance" maskUnits="userSpaceOnUse" x="3" y="3" width="29" height="29">
<path d="M3.64844 3.646H31.3568V31.3543H3.64844V3.646Z" fill="white"/>
</mask>
<g mask="url(#mask0_1_112045)">
<path d="M20.113 3.85025L19.2818 3.73358C16.7835 3.37288 14.2343 3.72973 11.9311 4.76253C9.62793 5.79534 7.6658 7.46155 6.27344 9.56692C4.792 11.5794 3.90887 13.9692 3.7257 16.4615C3.54252 18.9537 4.06674 21.447 5.23802 23.6544C5.35789 23.8757 5.43252 24.1185 5.45756 24.3689C5.4826 24.6193 5.45754 24.8722 5.38385 25.1127C4.78594 27.169 4.23177 29.2398 3.64844 31.4128L4.3776 31.194C6.34635 30.669 8.3151 30.144 10.2839 29.6628C10.6994 29.5764 11.1313 29.617 11.5234 29.7794C13.2898 30.6415 15.2201 31.1157 17.1848 31.1704C19.1495 31.225 21.1031 30.8588 22.9146 30.0962C24.7261 29.3337 26.3536 28.1925 27.6878 26.7492C29.0219 25.3059 30.0319 23.5939 30.65 21.7282C31.2681 19.8624 31.4799 17.886 31.2713 15.9317C31.0627 13.9773 30.4384 12.0902 29.4404 10.3969C28.4425 8.70369 27.0938 7.24349 25.4851 6.11435C23.8763 4.98521 22.0447 4.21324 20.113 3.85025ZM23.788 22.9836C23.258 23.4581 22.6117 23.7837 21.9149 23.9271C21.2181 24.0706 20.4957 24.0268 19.8214 23.8002C16.7661 22.9386 14.1153 21.0216 12.3401 18.3898C11.6622 17.4588 11.1174 16.4379 10.7214 15.3565C10.5068 14.7291 10.4681 14.0549 10.6095 13.4071C10.7509 12.7592 11.0669 12.1624 11.5234 11.6815C11.7457 11.3979 12.0482 11.1878 12.3915 11.0785C12.7349 10.9693 13.1032 10.9659 13.4484 11.069C13.7401 11.1419 13.9443 11.5648 14.2068 11.8857C14.4207 12.4884 14.6686 13.0766 14.9505 13.6502C15.1641 13.9427 15.2532 14.3077 15.1986 14.6656C15.1439 15.0235 14.9499 15.3453 14.6589 15.5607C14.0026 16.144 14.1047 16.6252 14.5714 17.2815C15.6025 18.7683 17.0262 19.9396 18.6839 20.6648C19.1505 20.869 19.5005 20.9128 19.8068 20.4315C19.938 20.2419 20.113 20.0815 20.2589 19.9065C21.1047 18.8419 20.8422 18.8565 22.1839 19.4398C22.6116 19.6197 23.0248 19.8287 23.4234 20.0669C23.8172 20.3002 24.4151 20.5482 24.5026 20.8982C24.5868 21.2779 24.5646 21.6734 24.4386 22.0414C24.3125 22.4093 24.0874 22.7353 23.788 22.9836Z" fill="white"/>
</g>
</svg>
