<svg width="35" height="35" viewBox="0 0 35 35" fill="none" xmlns="http://www.w3.org/2000/svg">
<path d="M7.28906 33.5416V30.6249C8.09115 30.6249 8.77802 30.9107 9.34969 31.4824C9.92135 32.0541 10.2067 32.7405 10.2057 33.5416H7.28906ZM13.1224 33.5416C13.1224 31.9374 12.5512 30.5642 11.4089 29.4218C10.2665 28.2794 8.89323 27.7083 7.28906 27.7083V24.7916C9.71962 24.7916 11.7856 25.6423 13.487 27.3437C15.1884 29.0451 16.0391 31.111 16.0391 33.5416H13.1224ZM18.9557 33.5416C18.9557 30.2846 17.8255 27.526 15.5651 25.2655C13.3047 23.0051 10.546 21.8749 7.28906 21.8749V18.9583C9.30642 18.9583 11.2023 19.3413 12.9766 20.1074C14.7509 20.8735 16.2943 21.9123 17.6068 23.2239C18.9193 24.5354 19.9586 26.0788 20.7247 27.8541C21.4908 29.6294 21.8734 31.5252 21.8724 33.5416H18.9557ZM17.4974 8.74992C17.9106 8.74992 18.2572 8.60992 18.5372 8.32992C18.8172 8.04992 18.9567 7.70381 18.9557 7.29158C18.9548 6.87936 18.8148 6.53325 18.5357 6.25325C18.2567 5.97325 17.9106 5.83325 17.4974 5.83325C17.0842 5.83325 16.7381 5.97325 16.4591 6.25325C16.18 6.53325 16.04 6.87936 16.0391 7.29158C16.0381 7.70381 16.1781 8.0504 16.4591 8.33138C16.74 8.61235 17.0861 8.75186 17.4974 8.74992ZM24.7891 33.5416C24.7891 31.111 24.3273 28.8326 23.4036 26.7064C22.48 24.5801 21.222 22.7266 19.6295 21.1458C18.037 19.5649 16.1839 18.3195 14.0703 17.4095C11.9567 16.4995 9.69628 16.0435 7.28906 16.0416V1.45825H27.7057V8.89575H29.1641V15.8958H27.7057V33.5416H24.7891Z" fill="white"/>
</svg>
