<svg width="35" height="35" viewBox="0 0 35 35" fill="none" xmlns="http://www.w3.org/2000/svg">
<path fill-rule="evenodd" clip-rule="evenodd" d="M14.5851 8.75006H17.5009V2.91675H14.5851V8.75006ZM2.92188 17.5001H8.75348V14.5834H2.92188V17.5001ZM9.85803 11.9169L5.735 7.79125L7.79645 5.72912L11.9194 9.85475L9.85803 11.9169ZM7.79638 26.3535L5.73493 24.2914L9.85782 20.1658L11.9193 22.2279L7.79638 26.3535ZM22.2288 11.9169L20.1672 9.85475L24.2902 5.72912L26.3517 7.79125L22.2288 11.9169ZM18.5246 31.7188L13.0075 12.997L31.7225 18.5209L27.435 22.8084L31.5183 26.8772L26.8808 31.5147L22.8121 27.4313L18.5246 31.7188Z" fill="white"/>
</svg>
