<svg width="32" height="32" viewBox="0 0 32 32" fill="none" xmlns="http://www.w3.org/2000/svg">
<path fill-rule="evenodd" clip-rule="evenodd" d="M4.57143 5.71425V20.5714H14.6217V5.71425H4.57143ZM27.4286 16.944L23.7874 13.8057C23.2254 13.3391 22.5179 13.0838 21.7874 13.0838C21.057 13.0838 20.3495 13.3391 19.7874 13.8057L17.776 15.4285C17.7018 15.4656 17.6379 15.5205 17.59 15.5883C17.5422 15.6561 17.5118 15.7347 17.5017 15.8171V20.5714H27.4286V16.944ZM0 4.47311C0 2.63311 1.49029 1.14282 3.33029 1.14282H28.6697C30.5097 1.14282 32 2.63311 32 4.47311V21.8125C32 23.6525 30.5097 25.1428 28.6697 25.1428H19.4674L20.6903 28.56H22.8571C23.3118 28.56 23.7478 28.7406 24.0693 29.0621C24.3908 29.3836 24.5714 29.8196 24.5714 30.2742C24.5714 30.7289 24.3908 31.1649 24.0693 31.4864C23.7478 31.8079 23.3118 31.9885 22.8571 31.9885H9.14286C8.6882 31.9885 8.25216 31.8079 7.93067 31.4864C7.60918 31.1649 7.42857 30.7289 7.42857 30.2742C7.42857 29.8196 7.60918 29.3836 7.93067 29.0621C8.25216 28.7406 8.6882 28.56 9.14286 28.56H11.3097L12.5326 25.1428H3.33029C2.89295 25.1428 2.45989 25.0567 2.05584 24.8893C1.65179 24.722 1.28466 24.4766 0.975418 24.1674C0.666173 23.8582 0.420865 23.491 0.253503 23.087C0.0861404 22.6829 0 22.2499 0 21.8125L0 4.47311ZM10.9166 8.84568H6.91657C6.53466 8.84568 6.16839 8.99739 5.89834 9.26744C5.62829 9.5375 5.47657 9.90377 5.47657 10.2857C5.47657 10.6676 5.62829 11.0339 5.89834 11.3039C6.16839 11.574 6.53466 11.7257 6.91657 11.7257H10.9166C11.2985 11.7257 11.6648 11.574 11.9348 11.3039C12.2049 11.0339 12.3566 10.6676 12.3566 10.2857C12.3566 9.90377 12.2049 9.5375 11.9348 9.26744C11.6648 8.99739 11.2985 8.84568 10.9166 8.84568ZM6.91657 14.56H9.20229C9.5842 14.56 9.95047 14.7117 10.2205 14.9817C10.4906 15.2518 10.6423 15.6181 10.6423 16C10.6423 16.3819 10.4906 16.7481 10.2205 17.0182C9.95047 17.2882 9.5842 17.44 9.20229 17.44H6.91657C6.53466 17.44 6.16839 17.2882 5.89834 17.0182C5.62829 16.7481 5.47657 16.3819 5.47657 16C5.47657 15.6181 5.62829 15.2518 5.89834 14.9817C6.16839 14.7117 6.53466 14.56 6.91657 14.56Z" fill="white"/>
</svg>
