<svg width="40" height="40" viewBox="0 0 40 40" fill="none" xmlns="http://www.w3.org/2000/svg">
<path d="M27.5026 29.1667C27.8082 28.8334 27.9682 28.4379 27.9826 27.9801C27.997 27.5223 27.837 27.1401 27.5026 26.8334L25.7526 25.1251C25.5026 24.8751 25.4126 24.5767 25.4826 24.2301C25.5526 23.8834 25.7537 23.654 26.0859 23.5417C26.3082 23.4862 26.5376 23.4445 26.7743 23.4167C27.0109 23.389 27.2537 23.3751 27.5026 23.3751C29.1137 23.3751 30.4887 23.9379 31.6276 25.0634C32.7665 26.189 33.3359 27.5706 33.3359 29.2084C33.3359 29.5417 33.3082 29.8751 33.2526 30.2084C33.1971 30.5417 33.0998 30.8612 32.9609 31.1667L35.4609 33.6668C35.7943 34.0001 35.9609 34.389 35.9609 34.8334C35.9609 35.2779 35.7943 35.6668 35.4609 36.0001L34.2943 37.1667C33.9609 37.4723 33.5721 37.6317 33.1276 37.6451C32.6832 37.6584 32.2943 37.499 31.9609 37.1667L29.4609 34.6667C29.1554 34.8056 28.8359 34.8962 28.5026 34.9384C28.1693 34.9806 27.8359 35.0012 27.5026 35.0001C25.8637 35.0001 24.4815 34.4379 23.3559 33.3134C22.2304 32.189 21.6682 30.8206 21.6693 29.2084C21.6693 28.9584 21.6832 28.7156 21.7109 28.4801C21.7387 28.2445 21.7804 28.0151 21.8359 27.7917C21.9193 27.4584 22.1348 27.2501 22.4826 27.1667C22.8304 27.0834 23.1426 27.1806 23.4193 27.4584L25.1693 29.2084C25.5026 29.5417 25.8915 29.7017 26.3359 29.6884C26.7804 29.6751 27.1693 29.5012 27.5026 29.1667ZM11.6693 38.3334C10.7526 38.3334 9.96816 38.0073 9.31594 37.3551C8.66371 36.7029 8.33705 35.9179 8.33594 35.0001V5.00008C8.33594 4.08341 8.6626 3.29897 9.31594 2.64675C9.96927 1.99453 10.7537 1.66786 11.6693 1.66675H28.3359C29.2526 1.66675 30.0376 1.99341 30.6909 2.64675C31.3443 3.30008 31.6704 4.08453 31.6693 5.00008V10.1667C32.1693 10.3612 32.5721 10.6667 32.8776 11.0834C33.1832 11.5001 33.3359 11.9723 33.3359 12.5001V15.8334C33.3359 16.3612 33.1832 16.8334 32.8776 17.2501C32.5721 17.6667 32.1693 17.9723 31.6693 18.1667V21.0001C31.0304 20.6945 30.3637 20.4517 29.6693 20.2717C28.9748 20.0917 28.2526 20.0012 27.5026 20.0001C24.9748 20.0001 22.8154 20.8962 21.0243 22.6884C19.2332 24.4806 18.337 26.6401 18.3359 29.1667C18.3348 31.6934 19.2309 33.8534 21.0243 35.6468C22.8176 37.4401 24.977 38.3356 27.5026 38.3334H11.6693ZM20.0026 10.0001C20.4748 10.0001 20.8709 9.84008 21.1909 9.52008C21.5109 9.20008 21.6704 8.80453 21.6693 8.33342C21.6682 7.8623 21.5082 7.46675 21.1893 7.14675C20.8704 6.82675 20.4748 6.66675 20.0026 6.66675C19.5304 6.66675 19.1348 6.82675 18.8159 7.14675C18.497 7.46675 18.337 7.8623 18.3359 8.33342C18.3348 8.80453 18.4948 9.20064 18.8159 9.52175C19.137 9.84286 19.5326 10.0023 20.0026 10.0001Z" fill="white"/>
</svg>
