<svg width="40" height="40" viewBox="0 0 40 40" fill="none" xmlns="http://www.w3.org/2000/svg">
<path d="M11.6693 38.3334C10.7526 38.3334 9.96816 38.0073 9.31594 37.3551C8.66371 36.7029 8.33705 35.9179 8.33594 35.0001V5.00008C8.33594 4.08341 8.6626 3.29897 9.31594 2.64675C9.96927 1.99453 10.7537 1.66786 11.6693 1.66675H28.3359C29.2526 1.66675 30.0376 1.99341 30.6909 2.64675C31.3443 3.30008 31.6704 4.08453 31.6693 5.00008V10.1667C32.1693 10.3612 32.572 10.6667 32.8776 11.0834C33.1832 11.5001 33.3359 11.9723 33.3359 12.5001V15.8334C33.3359 16.3612 33.1832 16.8334 32.8776 17.2501C32.572 17.6667 32.1693 17.9723 31.6693 18.1667V35.0001C31.6693 35.9167 31.3432 36.7017 30.6909 37.3551C30.0387 38.0084 29.2537 38.3345 28.3359 38.3334H11.6693ZM18.2526 25.9167C18.2804 26.139 18.3709 26.3195 18.5243 26.4584C18.6776 26.5973 18.8648 26.6667 19.0859 26.6667H20.9193C21.1415 26.6667 21.3287 26.5973 21.4809 26.4584C21.6332 26.3195 21.7237 26.139 21.7526 25.9167L21.9193 24.5834C22.1415 24.5001 22.3359 24.4101 22.5026 24.3134C22.6693 24.2167 22.8359 24.0845 23.0026 23.9167L24.2526 24.4584C24.447 24.5417 24.6415 24.5484 24.8359 24.4784C25.0304 24.4084 25.1832 24.2767 25.2943 24.0834L26.2109 22.4584C26.322 22.264 26.357 22.0695 26.3159 21.8751C26.2748 21.6806 26.1704 21.514 26.0026 21.3751L24.9193 20.5834C24.9748 20.3612 25.0026 20.1529 25.0026 19.9584C25.0026 19.764 24.9748 19.5556 24.9193 19.3334L25.9609 18.5417C26.1276 18.4029 26.232 18.229 26.2743 18.0201C26.3165 17.8112 26.2815 17.6101 26.1693 17.4167L25.2109 15.8334C25.0998 15.6667 24.947 15.549 24.7526 15.4801C24.5582 15.4112 24.3637 15.4179 24.1693 15.5001L23.0026 16.0001C22.8359 15.8612 22.6693 15.7501 22.5026 15.6667C22.3359 15.5834 22.1415 15.5001 21.9193 15.4167L21.7526 14.0834C21.7248 13.8612 21.6348 13.6806 21.4826 13.5417C21.3304 13.4029 21.1426 13.3334 20.9193 13.3334H19.0859C18.8637 13.3334 18.6765 13.4029 18.5243 13.5417C18.372 13.6806 18.2815 13.8612 18.2526 14.0834L18.0859 15.4167C17.8637 15.5001 17.6693 15.5834 17.5026 15.6667C17.3359 15.7501 17.1693 15.8612 17.0026 16.0001L15.8359 15.5001C15.6415 15.4167 15.447 15.4101 15.2526 15.4801C15.0582 15.5501 14.9054 15.6679 14.7943 15.8334L13.8359 17.4167C13.7248 17.6112 13.6904 17.8129 13.7326 18.0217C13.7748 18.2306 13.8787 18.404 14.0443 18.5417L15.0859 19.3334C15.0304 19.5556 15.0026 19.764 15.0026 19.9584C15.0026 20.1529 15.0304 20.3612 15.0859 20.5834L14.0026 21.3751C13.8359 21.514 13.732 21.6806 13.6909 21.8751C13.6498 22.0695 13.6843 22.264 13.7943 22.4584L14.7109 24.0834C14.822 24.2779 14.9748 24.4101 15.1693 24.4801C15.3637 24.5501 15.5582 24.5429 15.7526 24.4584L17.0026 23.9167C17.1693 24.0834 17.3359 24.2156 17.5026 24.3134C17.6693 24.4112 17.8637 24.5012 18.0859 24.5834L18.2526 25.9167ZM20.0026 22.5001C19.2804 22.5001 18.6832 22.264 18.2109 21.7917C17.7387 21.3195 17.5026 20.7223 17.5026 20.0001C17.5026 19.2779 17.7387 18.6806 18.2109 18.2084C18.6832 17.7362 19.2804 17.5001 20.0026 17.5001C20.7248 17.5001 21.322 17.7362 21.7943 18.2084C22.2665 18.6806 22.5026 19.2779 22.5026 20.0001C22.5026 20.7223 22.2665 21.3195 21.7943 21.7917C21.322 22.264 20.7248 22.5001 20.0026 22.5001Z" fill="white"/>
</svg>
