<svg width="35" height="36" viewBox="0 0 35 36" fill="none" xmlns="http://www.w3.org/2000/svg">
<path d="M15.3125 31.125C15.3125 31.125 13.125 31.125 13.125 28.9375C13.125 26.75 15.3125 20.1875 24.0625 20.1875C32.8125 20.1875 35 26.75 35 28.9375C35 31.125 32.8125 31.125 32.8125 31.125H15.3125ZM24.0625 18C25.803 18 27.4722 17.3086 28.7029 16.0779C29.9336 14.8472 30.625 13.178 30.625 11.4375C30.625 9.69702 29.9336 8.02782 28.7029 6.79711C27.4722 5.5664 25.803 4.875 24.0625 4.875C22.322 4.875 20.6528 5.5664 19.4221 6.79711C18.1914 8.02782 17.5 9.69702 17.5 11.4375C17.5 13.178 18.1914 14.8472 19.4221 16.0779C20.6528 17.3086 22.322 18 24.0625 18ZM11.41 31.125C11.0859 30.442 10.9241 29.6934 10.9375 28.9375C10.9375 25.9734 12.425 22.9219 15.1725 20.8C13.8013 20.3766 12.3724 20.1699 10.9375 20.1875C2.1875 20.1875 0 26.75 0 28.9375C0 31.125 2.1875 31.125 2.1875 31.125H11.41ZM9.84375 18C11.2942 18 12.6852 17.4238 13.7107 16.3982C14.7363 15.3727 15.3125 13.9817 15.3125 12.5312C15.3125 11.0808 14.7363 9.68985 13.7107 8.66426C12.6852 7.63867 11.2942 7.0625 9.84375 7.0625C8.39335 7.0625 7.00235 7.63867 5.97676 8.66426C4.95117 9.68985 4.375 11.0808 4.375 12.5312C4.375 13.9817 4.95117 15.3727 5.97676 16.3982C7.00235 17.4238 8.39335 18 9.84375 18Z" fill="white"/>
</svg>
