<svg width="40" height="40" viewBox="0 0 40 40" fill="none" xmlns="http://www.w3.org/2000/svg">
<path d="M30 1.25H10C9.30964 1.25 8.75 1.80964 8.75 2.5V37.5C8.75 38.1904 9.30964 38.75 10 38.75H30C30.6904 38.75 31.25 38.1904 31.25 37.5V2.5C31.25 1.80964 30.6904 1.25 30 1.25Z" stroke="white"/>
<path d="M8.75 1.25H31.25V5H8.75V1.25ZM8.75 32.5V38.75H31.25V32.5H8.75ZM23.75 37.5H16.25C15.9185 37.5 15.6005 37.3683 15.3661 37.1339C15.1317 36.8995 15 36.5815 15 36.25C15 35.9185 15.1317 35.6005 15.3661 35.3661C15.6005 35.1317 15.9185 35 16.25 35H23.75C24.0815 35 24.3995 35.1317 24.6339 35.3661C24.8683 35.6005 25 35.9185 25 36.25C25 36.5815 24.8683 36.8995 24.6339 37.1339C24.3995 37.3683 24.0815 37.5 23.75 37.5ZM12.5 7.5H27.5V30H12.5V7.5Z" fill="white"/>
</svg>
