<svg width="36" height="35" viewBox="0 0 36 35" fill="none" xmlns="http://www.w3.org/2000/svg">
<path d="M15.0885 23.3333V21.875H4.89479L4.88021 27.7083C4.88021 29.3271 6.17812 30.625 7.79688 30.625H28.2135C29.8323 30.625 31.1302 29.3271 31.1302 27.7083V21.875H20.9219V23.3333H15.0885ZM29.6719 10.2083H23.824V7.29167L20.9073 4.375H15.074L12.1573 7.29167V10.2083H6.33854C4.73437 10.2083 3.42188 11.5208 3.42188 13.125V17.5C3.42188 19.1188 4.71979 20.4167 6.33854 20.4167H15.0885V17.5H20.9219V20.4167H29.6719C31.276 20.4167 32.5885 19.1042 32.5885 17.5V13.125C32.5885 11.5208 31.276 10.2083 29.6719 10.2083ZM20.9219 10.2083H15.0885V7.29167H20.9219V10.2083Z" fill="white"/>
</svg>
