<svg width="36" height="35" viewBox="0 0 36 35" fill="none" xmlns="http://www.w3.org/2000/svg">
<path d="M23.8281 16.0417C26.249 16.0417 28.1885 14.0876 28.1885 11.6667C28.1885 9.24591 26.249 7.29175 23.8281 7.29175C21.4073 7.29175 19.4531 9.24591 19.4531 11.6667C19.4531 14.0876 21.4073 16.0417 23.8281 16.0417ZM12.1615 16.0417C14.5823 16.0417 16.5219 14.0876 16.5219 11.6667C16.5219 9.24591 14.5823 7.29175 12.1615 7.29175C9.74062 7.29175 7.78646 9.24591 7.78646 11.6667C7.78646 14.0876 9.74062 16.0417 12.1615 16.0417ZM12.1615 18.9584C8.76354 18.9584 1.95312 20.6647 1.95312 24.0626V27.7084H22.3698V24.0626C22.3698 20.6647 15.5594 18.9584 12.1615 18.9584ZM23.8281 18.9584C23.4052 18.9584 22.924 18.9876 22.4135 19.0313C24.1052 20.2563 25.2865 21.9042 25.2865 24.0626V27.7084H34.0365V24.0626C34.0365 20.6647 27.226 18.9584 23.8281 18.9584Z" fill="white"/>
</svg>
