<svg width="35" height="35" viewBox="0 0 35 35" fill="none" xmlns="http://www.w3.org/2000/svg">
<path d="M30.6302 10.2083H21.8802C21.4934 10.2083 21.1225 10.362 20.849 10.6355C20.5755 10.909 20.4219 11.2799 20.4219 11.6667V16.0417H17.5052V5.83333C17.5052 5.44656 17.3516 5.07563 17.0781 4.80214C16.8046 4.52865 16.4336 4.375 16.0469 4.375H4.38021C3.99343 4.375 3.6225 4.52865 3.34901 4.80214C3.07552 5.07563 2.92188 5.44656 2.92188 5.83333V29.1667C2.92188 29.5534 3.07552 29.9244 3.34901 30.1979C3.6225 30.4714 3.99343 30.625 4.38021 30.625H30.6302C31.017 30.625 31.3879 30.4714 31.6614 30.1979C31.9349 29.9244 32.0885 29.5534 32.0885 29.1667V11.6667C32.0885 11.2799 31.9349 10.909 31.6614 10.6355C31.3879 10.362 31.017 10.2083 30.6302 10.2083ZM11.6719 8.75H14.5885V11.6667H11.6719V8.75ZM8.75521 23.3333H5.83854V20.4167H8.75521V23.3333ZM8.75521 17.5H5.83854V14.5833H8.75521V17.5ZM8.75521 11.6667H5.83854V8.75H8.75521V11.6667ZM14.5885 23.3333H11.6719V20.4167H14.5885V23.3333ZM14.5885 17.5H11.6719V14.5833H14.5885V17.5ZM27.7135 23.3333H24.7969V20.4167H27.7135V23.3333ZM27.7135 17.5H24.7969V14.5833H27.7135V17.5Z" fill="white"/>
</svg>
