<svg width="36" height="35" viewBox="0 0 36 35" fill="none" xmlns="http://www.w3.org/2000/svg">
<path d="M33.3125 10.3906H15.7332L12.9045 4.73457C12.7682 4.46221 12.5588 4.23315 12.2997 4.07306C12.0406 3.91297 11.7421 3.82816 11.4375 3.82812H7.0625C6.62738 3.82812 6.21008 4.00098 5.9024 4.30865C5.59473 4.61633 5.42188 5.03363 5.42188 5.46875V10.3906H3.78125C3.34613 10.3906 2.92883 10.5635 2.62115 10.8712C2.31348 11.1788 2.14063 11.5961 2.14062 12.0312C2.14063 12.4664 2.31348 12.8837 2.62115 13.1913C2.92883 13.499 3.34613 13.6719 3.78125 13.6719H5.42188V27.8906H3.78125C3.34613 27.8906 2.92883 28.0635 2.62115 28.3712C2.31348 28.6788 2.14063 29.0961 2.14062 29.5312C2.14063 29.9664 2.31348 30.3837 2.62115 30.6913C2.92883 30.999 3.34613 31.1719 3.78125 31.1719H18C18.4351 31.1719 18.8524 30.999 19.1601 30.6913C19.4678 30.3837 19.6406 29.9664 19.6406 29.5312C19.6406 29.0961 19.4678 28.6788 19.1601 28.3712C18.8524 28.0635 18.4351 27.8906 18 27.8906H16.3594V13.6719H28.3906V24.6094H26.75V24.0625C26.75 23.6274 26.5771 23.2101 26.2695 22.9024C25.9618 22.5947 25.5445 22.4219 25.1094 22.4219C24.6743 22.4219 24.257 22.5947 23.9493 22.9024C23.6416 23.2101 23.4688 23.6274 23.4688 24.0625V25.1562C23.4688 25.8815 23.7568 26.577 24.2696 27.0897C24.7824 27.6025 25.4779 27.8906 26.2031 27.8906H28.9375C29.6627 27.8906 30.3582 27.6025 30.871 27.0897C31.3838 26.577 31.6719 25.8815 31.6719 25.1562V13.6719H33.3125C33.7476 13.6719 34.1649 13.499 34.4726 13.1913C34.7803 12.8837 34.9531 12.4664 34.9531 12.0312C34.9531 11.5961 34.7803 11.1788 34.4726 10.8712C34.1649 10.5635 33.7476 10.3906 33.3125 10.3906ZM8.70312 7.10938H10.423L12.0637 10.3906H8.70312V7.10938ZM8.70312 27.8906V22.4219H13.0781V27.8906H8.70312ZM13.0781 19.1406H8.70312V13.6719H13.0781V19.1406Z" fill="white"/>
</svg>
