<svg width="35" height="35" viewBox="0 0 35 35" fill="none" xmlns="http://www.w3.org/2000/svg">
<path fill-rule="evenodd" clip-rule="evenodd" d="M5.82812 5.83333C5.82812 5.44656 5.98177 5.07563 6.25526 4.80214C6.52875 4.52865 6.89968 4.375 7.28646 4.375H27.7031C28.0899 4.375 28.4608 4.52865 28.7343 4.80214C29.0078 5.07563 29.1615 5.44656 29.1615 5.83333C29.1615 6.22011 29.0078 6.59104 28.7343 6.86453C28.4608 7.13802 28.0899 7.29167 27.7031 7.29167V27.7083C28.0899 27.7083 28.4608 27.862 28.7343 28.1355C29.0078 28.409 29.1615 28.7799 29.1615 29.1667C29.1615 29.5534 29.0078 29.9244 28.7343 30.1979C28.4608 30.4714 28.0899 30.625 27.7031 30.625H7.28646C6.89968 30.625 6.52875 30.4714 6.25526 30.1979C5.98177 29.9244 5.82812 29.5534 5.82812 29.1667C5.82812 28.7799 5.98177 28.409 6.25526 28.1355C6.52875 27.862 6.89968 27.7083 7.28646 27.7083V7.29167C6.89968 7.29167 6.52875 7.13802 6.25526 6.86453C5.98177 6.59104 5.82812 6.22011 5.82812 5.83333ZM13.1198 8.75C12.733 8.75 12.3621 8.90365 12.0886 9.17714C11.8151 9.45063 11.6615 9.82156 11.6615 10.2083V11.6667C11.6615 12.0534 11.8151 12.4244 12.0886 12.6979C12.3621 12.9714 12.733 13.125 13.1198 13.125H14.5781C14.9649 13.125 15.3358 12.9714 15.6093 12.6979C15.8828 12.4244 16.0365 12.0534 16.0365 11.6667V10.2083C16.0365 9.82156 15.8828 9.45063 15.6093 9.17714C15.3358 8.90365 14.9649 8.75 14.5781 8.75H13.1198ZM20.4115 8.75C20.0247 8.75 19.6538 8.90365 19.3803 9.17714C19.1068 9.45063 18.9531 9.82156 18.9531 10.2083V11.6667C18.9531 12.0534 19.1068 12.4244 19.3803 12.6979C19.6538 12.9714 20.0247 13.125 20.4115 13.125H21.8698C22.2566 13.125 22.6275 12.9714 22.901 12.6979C23.1745 12.4244 23.3281 12.0534 23.3281 11.6667V10.2083C23.3281 9.82156 23.1745 9.45063 22.901 9.17714C22.6275 8.90365 22.2566 8.75 21.8698 8.75H20.4115ZM13.1198 14.5833C12.733 14.5833 12.3621 14.737 12.0886 15.0105C11.8151 15.284 11.6615 15.6549 11.6615 16.0417V17.5C11.6615 17.8868 11.8151 18.2577 12.0886 18.5312C12.3621 18.8047 12.733 18.9583 13.1198 18.9583H14.5781C14.9649 18.9583 15.3358 18.8047 15.6093 18.5312C15.8828 18.2577 16.0365 17.8868 16.0365 17.5V16.0417C16.0365 15.6549 15.8828 15.284 15.6093 15.0105C15.3358 14.737 14.9649 14.5833 14.5781 14.5833H13.1198ZM20.4115 14.5833C20.0247 14.5833 19.6538 14.737 19.3803 15.0105C19.1068 15.284 18.9531 15.6549 18.9531 16.0417V17.5C18.9531 17.8868 19.1068 18.2577 19.3803 18.5312C19.6538 18.8047 20.0247 18.9583 20.4115 18.9583H21.8698C22.2566 18.9583 22.6275 18.8047 22.901 18.5312C23.1745 18.2577 23.3281 17.8868 23.3281 17.5V16.0417C23.3281 15.6549 23.1745 15.284 22.901 15.0105C22.6275 14.737 22.2566 14.5833 21.8698 14.5833H20.4115ZM16.0365 20.4167C15.2629 20.4167 14.521 20.724 13.9741 21.2709C13.4271 21.8179 13.1198 22.5598 13.1198 23.3333V27.7083H16.0365V23.3333H18.9531V27.7083H21.8698V23.3333C21.8698 22.5598 21.5625 21.8179 21.0155 21.2709C20.4685 20.724 19.7267 20.4167 18.9531 20.4167H16.0365Z" fill="white"/>
</svg>
