<svg width="35" height="35" viewBox="0 0 35 35" fill="none" xmlns="http://www.w3.org/2000/svg">
<path fill-rule="evenodd" clip-rule="evenodd" d="M5.83203 5.83333C5.83203 5.44656 5.98568 5.07563 6.25917 4.80214C6.53266 4.52865 6.90359 4.375 7.29036 4.375H27.707C28.0938 4.375 28.4647 4.52865 28.7382 4.80214C29.0117 5.07563 29.1654 5.44656 29.1654 5.83333C29.1654 6.22011 29.0117 6.59104 28.7382 6.86453C28.4647 7.13802 28.0938 7.29167 27.707 7.29167V27.7083C28.0938 27.7083 28.4647 27.862 28.7382 28.1355C29.0117 28.409 29.1654 28.7799 29.1654 29.1667C29.1654 29.5534 29.0117 29.9244 28.7382 30.1979C28.4647 30.4714 28.0938 30.625 27.707 30.625H7.29036C6.90359 30.625 6.53266 30.4714 6.25917 30.1979C5.98568 29.9244 5.83203 29.5534 5.83203 29.1667C5.83203 28.7799 5.98568 28.409 6.25917 28.1355C6.53266 27.862 6.90359 27.7083 7.29036 27.7083V7.29167C6.90359 7.29167 6.53266 7.13802 6.25917 6.86453C5.98568 6.59104 5.83203 6.22011 5.83203 5.83333ZM13.1237 8.75C12.7369 8.75 12.366 8.90365 12.0925 9.17714C11.819 9.45063 11.6654 9.82156 11.6654 10.2083V11.6667C11.6654 12.0534 11.819 12.4244 12.0925 12.6979C12.366 12.9714 12.7369 13.125 13.1237 13.125H14.582C14.9688 13.125 15.3397 12.9714 15.6132 12.6979C15.8867 12.4244 16.0404 12.0534 16.0404 11.6667V10.2083C16.0404 9.82156 15.8867 9.45063 15.6132 9.17714C15.3397 8.90365 14.9688 8.75 14.582 8.75H13.1237ZM20.4154 8.75C20.0286 8.75 19.6577 8.90365 19.3842 9.17714C19.1107 9.45063 18.957 9.82156 18.957 10.2083V11.6667C18.957 12.0534 19.1107 12.4244 19.3842 12.6979C19.6577 12.9714 20.0286 13.125 20.4154 13.125H21.8737C22.2605 13.125 22.6314 12.9714 22.9049 12.6979C23.1784 12.4244 23.332 12.0534 23.332 11.6667V10.2083C23.332 9.82156 23.1784 9.45063 22.9049 9.17714C22.6314 8.90365 22.2605 8.75 21.8737 8.75H20.4154ZM13.1237 14.5833C12.7369 14.5833 12.366 14.737 12.0925 15.0105C11.819 15.284 11.6654 15.6549 11.6654 16.0417V17.5C11.6654 17.8868 11.819 18.2577 12.0925 18.5312C12.366 18.8047 12.7369 18.9583 13.1237 18.9583H14.582C14.9688 18.9583 15.3397 18.8047 15.6132 18.5312C15.8867 18.2577 16.0404 17.8868 16.0404 17.5V16.0417C16.0404 15.6549 15.8867 15.284 15.6132 15.0105C15.3397 14.737 14.9688 14.5833 14.582 14.5833H13.1237ZM20.4154 14.5833C20.0286 14.5833 19.6577 14.737 19.3842 15.0105C19.1107 15.284 18.957 15.6549 18.957 16.0417V17.5C18.957 17.8868 19.1107 18.2577 19.3842 18.5312C19.6577 18.8047 20.0286 18.9583 20.4154 18.9583H21.8737C22.2605 18.9583 22.6314 18.8047 22.9049 18.5312C23.1784 18.2577 23.332 17.8868 23.332 17.5V16.0417C23.332 15.6549 23.1784 15.284 22.9049 15.0105C22.6314 14.737 22.2605 14.5833 21.8737 14.5833H20.4154ZM16.0404 20.4167C15.2668 20.4167 14.525 20.724 13.978 21.2709C13.431 21.8179 13.1237 22.5598 13.1237 23.3333V27.7083H16.0404V23.3333H18.957V27.7083H21.8737V23.3333C21.8737 22.5598 21.5664 21.8179 21.0194 21.2709C20.4724 20.724 19.7306 20.4167 18.957 20.4167H16.0404Z" fill="white"/>
</svg>
