<svg width="36" height="35" viewBox="0 0 36 35" fill="none" xmlns="http://www.w3.org/2000/svg">
<path d="M23.832 16.0417C26.2529 16.0417 28.1924 14.0876 28.1924 11.6667C28.1924 9.24591 26.2529 7.29175 23.832 7.29175C21.4112 7.29175 19.457 9.24591 19.457 11.6667C19.457 14.0876 21.4112 16.0417 23.832 16.0417ZM12.1654 16.0417C14.5862 16.0417 16.5258 14.0876 16.5258 11.6667C16.5258 9.24591 14.5862 7.29175 12.1654 7.29175C9.74453 7.29175 7.79036 9.24591 7.79036 11.6667C7.79036 14.0876 9.74453 16.0417 12.1654 16.0417ZM12.1654 18.9584C8.76745 18.9584 1.95703 20.6647 1.95703 24.0626V27.7084H22.3737V24.0626C22.3737 20.6647 15.5633 18.9584 12.1654 18.9584ZM23.832 18.9584C23.4091 18.9584 22.9279 18.9876 22.4174 19.0313C24.1091 20.2563 25.2904 21.9042 25.2904 24.0626V27.7084H34.0404V24.0626C34.0404 20.6647 27.2299 18.9584 23.832 18.9584Z" fill="white"/>
</svg>
