<svg width="35" height="35" viewBox="0 0 35 35" fill="none" xmlns="http://www.w3.org/2000/svg">
<path d="M30.6263 10.2083H21.8763C21.4895 10.2083 21.1186 10.362 20.8451 10.6355C20.5716 10.909 20.418 11.2799 20.418 11.6667V16.0417H17.5013V5.83333C17.5013 5.44656 17.3477 5.07563 17.0742 4.80214C16.8007 4.52865 16.4297 4.375 16.043 4.375H4.3763C3.98953 4.375 3.6186 4.52865 3.3451 4.80214C3.07161 5.07563 2.91797 5.44656 2.91797 5.83333V29.1667C2.91797 29.5534 3.07161 29.9244 3.3451 30.1979C3.6186 30.4714 3.98953 30.625 4.3763 30.625H30.6263C31.0131 30.625 31.384 30.4714 31.6575 30.1979C31.931 29.9244 32.0846 29.5534 32.0846 29.1667V11.6667C32.0846 11.2799 31.931 10.909 31.6575 10.6355C31.384 10.362 31.0131 10.2083 30.6263 10.2083ZM11.668 8.75H14.5846V11.6667H11.668V8.75ZM8.7513 23.3333H5.83464V20.4167H8.7513V23.3333ZM8.7513 17.5H5.83464V14.5833H8.7513V17.5ZM8.7513 11.6667H5.83464V8.75H8.7513V11.6667ZM14.5846 23.3333H11.668V20.4167H14.5846V23.3333ZM14.5846 17.5H11.668V14.5833H14.5846V17.5ZM27.7096 23.3333H24.793V20.4167H27.7096V23.3333ZM27.7096 17.5H24.793V14.5833H27.7096V17.5Z" fill="white"/>
</svg>
