<svg width="36" height="35" viewBox="0 0 36 35" fill="none" xmlns="http://www.w3.org/2000/svg">
<path d="M15.0846 23.3333V21.875H4.89089L4.8763 27.7083C4.8763 29.3271 6.17422 30.625 7.79297 30.625H28.2096C29.8284 30.625 31.1263 29.3271 31.1263 27.7083V21.875H20.918V23.3333H15.0846ZM29.668 10.2083H23.8201V7.29167L20.9034 4.375H15.0701L12.1534 7.29167V10.2083H6.33464C4.73047 10.2083 3.41797 11.5208 3.41797 13.125V17.5C3.41797 19.1188 4.71589 20.4167 6.33464 20.4167H15.0846V17.5H20.918V20.4167H29.668C31.2721 20.4167 32.5846 19.1042 32.5846 17.5V13.125C32.5846 11.5208 31.2721 10.2083 29.668 10.2083ZM20.918 10.2083H15.0846V7.29167H20.918V10.2083Z" fill="white"/>
</svg>
