<svg width="36" height="35" viewBox="0 0 36 35" fill="none" xmlns="http://www.w3.org/2000/svg">
<path d="M18 2.91663C15.8727 2.91663 13.8326 3.76168 12.3284 5.26587C10.8242 6.77007 9.97917 8.8102 9.97917 10.9375C9.97917 13.0647 10.8242 15.1048 12.3284 16.609C13.8326 18.1132 15.8727 18.9583 18 18.9583C20.1273 18.9583 22.1674 18.1132 23.6716 16.609C25.1758 15.1048 26.0208 13.0647 26.0208 10.9375C26.0208 8.8102 25.1758 6.77007 23.6716 5.26587C22.1674 3.76168 20.1273 2.91663 18 2.91663ZM12.1667 20.4166C10.2328 20.4166 8.37813 21.1849 7.01068 22.5523C5.64323 23.9198 4.875 25.7744 4.875 27.7083V32.0833H31.125V27.7083C31.125 25.7744 30.3568 23.9198 28.9893 22.5523C27.6219 21.1849 25.7672 20.4166 23.8333 20.4166H21.8179L18 28.0525L14.1821 20.4166H12.1667Z" fill="white"/>
</svg>
