<svg width="47" height="47" viewBox="0 0 47 47" fill="none" xmlns="http://www.w3.org/2000/svg">
<path d="M37.1963 29.8891L32.3337 29.3339C31.7619 29.2667 31.1824 29.33 30.6386 29.519C30.0948 29.708 29.6009 30.0178 29.1941 30.4251L25.6716 33.9476C20.2373 31.1831 15.8201 26.7659 13.0556 21.3316L16.5972 17.79C17.4204 16.9668 17.8225 15.8181 17.6884 14.6503L17.1333 9.82602C17.0251 8.89195 16.5771 8.03034 15.8745 7.40542C15.1719 6.7805 14.2639 6.43597 13.3236 6.43751H10.0116C7.84835 6.43751 6.0488 8.23705 6.18281 10.4003C7.19745 26.7494 20.2729 39.8057 36.6029 40.8204C38.7661 40.9544 40.5657 39.1548 40.5657 36.9916V33.6796C40.5848 31.7461 39.1299 30.1188 37.1963 29.8891Z" fill="white"/>
</svg>
